<svg version="1.1" id="Layer_1" xmlns="http://www.w3.org/2000/svg" xmlns:xlink="http://www.w3.org/1999/xlink" x="0px" y="0px"
	 width="100%" viewBox="0 0 669 671" enable-background="new 0 0 669 671" xml:space="preserve">
<path fill="#010101" opacity="1.000000" stroke="none" 
	d="
M392.000000,672.000000 
	C261.333344,672.000000 131.166672,672.000000 1.000000,672.000000 
	C1.000000,448.333344 1.000000,224.666672 1.000000,1.000000 
	C224.000000,1.000000 447.000000,1.000000 670.000000,1.000000 
	C670.000000,224.666672 670.000000,448.333344 670.000000,672.000000 
	C577.500000,672.000000 485.000000,672.000000 392.000000,672.000000 
M334.261169,413.322388 
	C331.954254,407.169678 329.647339,401.016998 327.531616,395.374207 
	C338.755402,384.100189 349.973938,372.831451 360.855988,361.900726 
	C369.749298,370.795105 378.791107,379.837952 387.863770,388.911682 
	C364.396637,418.979523 373.433289,454.858490 395.430725,473.878662 
	C416.976044,492.507904 451.551788,492.730682 473.113251,474.185059 
	C496.556793,454.020630 501.686798,420.823059 485.266113,395.191559 
	C477.337189,382.815216 466.454803,373.971527 452.296692,369.985321 
	C433.605255,364.722717 415.769684,367.146515 400.100525,377.844116 
	C390.555267,368.305145 381.396454,359.152374 371.972473,349.734589 
	C383.014954,338.697693 394.253052,327.348053 405.716064,316.230286 
	C406.635223,315.338867 409.347900,315.473724 410.813995,316.099518 
	C422.403229,321.046448 434.588165,322.026978 446.577271,319.528503 
	C479.150909,312.740265 499.574585,281.913666 493.899780,249.260757 
	C487.931580,214.919785 453.369293,193.270401 418.608643,202.099304 
	C385.591461,210.485367 366.108307,246.892715 377.186493,279.480377 
	C380.664581,289.711578 386.501129,298.417297 393.774292,304.992035 
	C382.463226,316.500519 371.425812,327.730591 360.850006,338.490936 
	C346.116241,323.871124 331.231232,309.101257 316.326843,294.312134 
	C334.330048,267.357697 327.666931,231.226929 303.983215,213.165543 
	C278.251953,193.542694 243.675903,196.058167 222.417847,218.853836 
	C201.329117,241.467926 200.323456,276.369812 220.307922,299.453766 
	C229.743393,310.352600 241.570312,317.742126 255.922714,319.851685 
	C274.324036,322.556396 291.256226,318.647522 305.502808,306.152344 
	C320.403351,321.122498 335.072906,335.860535 349.192993,350.046570 
	C338.418823,360.868713 327.514587,371.821472 316.455078,382.930206 
	C316.226929,382.743439 315.734924,382.339447 315.241577,381.937042 
	C295.914490,366.172089 274.163361,362.684937 251.640640,372.476257 
	C228.664261,382.464813 216.453262,401.081970 215.586075,426.530853 
	C214.268143,465.206390 251.067215,497.144928 292.252777,485.770294 
	C322.965302,477.288055 341.796631,445.481995 334.261169,413.322388 
M242.200790,641.998047 
	C245.898163,641.182068 249.842072,640.933533 253.250488,639.452515 
	C268.483246,632.833923 275.562347,620.866333 275.505615,604.374878 
	C275.425446,581.052673 275.477264,557.730042 275.473389,534.407593 
	C275.472137,526.772034 275.473206,519.136536 275.473206,511.251190 
	C250.606903,510.943695 229.949387,501.531281 213.492722,483.431122 
	C196.976593,465.265533 190.630783,443.436340 192.292557,419.297150 
	C191.557022,419.063110 191.252930,418.881958 190.948578,418.881500 
	C156.465652,418.830536 121.979744,418.506226 87.500862,418.862000 
	C66.699463,419.076660 52.027657,434.614471 52.012726,455.333679 
	C51.976707,505.310486 51.959976,555.287415 52.020897,605.264221 
	C52.047146,626.798096 67.375664,642.042114 88.838554,642.043518 
	C139.645691,642.046997 190.452820,642.016174 242.200790,641.998047 
M87.609261,269.247070 
	C119.566391,269.247070 151.523514,269.247070 184.092789,269.247070 
	C181.839417,242.988556 189.310623,220.262970 207.676331,201.619827 
	C226.207153,182.809082 249.072754,175.258118 275.264587,177.158890 
	C275.264587,144.008194 275.700684,111.373207 275.095245,78.757553 
	C274.751404,60.234055 258.898346,46.029606 240.270309,46.006695 
	C189.776550,45.944599 139.282639,45.928440 88.788887,45.980312 
	C67.274895,46.002415 52.031986,61.307831 52.014198,82.819748 
	C51.973133,132.482208 51.977032,182.144745 52.012093,231.807205 
	C52.027218,253.228439 65.398506,267.611115 87.609261,269.247070 
M629.999939,209.500000 
	C629.997437,167.000854 630.070435,124.501518 629.958801,82.002670 
	C629.906982,62.292515 614.637390,46.101929 595.857727,46.049782 
	C544.195312,45.906319 492.531830,45.908401 440.870178,46.148224 
	C436.072937,46.170490 430.871857,47.460972 426.569916,49.596268 
	C412.933258,56.364986 406.431549,67.794319 406.466705,83.067162 
	C406.539612,114.732941 406.486572,146.399002 406.496399,178.064941 
	C406.496674,178.990265 406.620514,179.915558 406.702972,181.067215 
	C435.716431,173.062912 462.599701,175.915924 486.317627,194.853958 
	C510.035492,213.791962 519.744385,239.167343 517.956360,269.010040 
	C544.492371,269.010040 570.300781,268.895081 596.107605,269.052429 
	C612.032410,269.149536 627.131714,255.857391 629.051575,240.410370 
	C630.276672,230.553223 629.744324,220.477646 629.999939,209.500000 
M517.966980,422.628418 
	C518.735901,437.736237 516.184753,452.268707 508.933105,465.562653 
	C493.269714,494.277191 469.205566,510.218475 436.158630,510.847504 
	C426.369965,511.033844 416.540497,509.077789 406.714844,508.101990 
	C406.714844,541.492432 406.262604,575.631470 406.898651,609.750183 
	C407.235077,627.796570 423.087433,641.946472 441.188782,641.978088 
	C491.350739,642.065674 541.518372,641.597290 591.672485,642.236572 
	C614.485291,642.527344 630.505249,624.849060 630.136597,603.675598 
	C629.602783,573.020020 630.000183,542.348206 629.999817,511.683350 
	C629.999573,492.684448 630.156006,473.683868 629.955017,454.687103 
	C629.736328,434.015747 614.302246,418.922211 593.774292,418.905701 
	C585.445740,418.898987 577.117249,418.842957 568.788696,418.836670 
	C553.289612,418.824982 537.790222,418.793701 522.291687,418.887024 
	C520.497375,418.897827 517.461731,417.734375 517.966980,422.628418 
z"/>
<path fill="#FEFEFE" opacity="1.000000" stroke="none" 
	d="
M334.408356,413.715057 
	C341.796631,445.481995 322.965302,477.288055 292.252777,485.770294 
	C251.067215,497.144928 214.268143,465.206390 215.586075,426.530853 
	C216.453262,401.081970 228.664261,382.464813 251.640640,372.476257 
	C274.163361,362.684937 295.914490,366.172089 315.241577,381.937042 
	C315.734924,382.339447 316.226929,382.743439 316.455078,382.930206 
	C327.514587,371.821472 338.418823,360.868713 349.192993,350.046570 
	C335.072906,335.860535 320.403351,321.122498 305.502808,306.152344 
	C291.256226,318.647522 274.324036,322.556396 255.922714,319.851685 
	C241.570312,317.742126 229.743393,310.352600 220.307922,299.453766 
	C200.323456,276.369812 201.329117,241.467926 222.417847,218.853836 
	C243.675903,196.058167 278.251953,193.542694 303.983215,213.165543 
	C327.666931,231.226929 334.330048,267.357697 316.326843,294.312134 
	C331.231232,309.101257 346.116241,323.871124 360.850006,338.490936 
	C371.425812,327.730591 382.463226,316.500519 393.774292,304.992035 
	C386.501129,298.417297 380.664581,289.711578 377.186493,279.480377 
	C366.108307,246.892715 385.591461,210.485367 418.608643,202.099304 
	C453.369293,193.270401 487.931580,214.919785 493.899780,249.260757 
	C499.574585,281.913666 479.150909,312.740265 446.577271,319.528503 
	C434.588165,322.026978 422.403229,321.046448 410.813995,316.099518 
	C409.347900,315.473724 406.635223,315.338867 405.716064,316.230286 
	C394.253052,327.348053 383.014954,338.697693 371.972473,349.734589 
	C381.396454,359.152374 390.555267,368.305145 400.100525,377.844116 
	C415.769684,367.146515 433.605255,364.722717 452.296692,369.985321 
	C466.454803,373.971527 477.337189,382.815216 485.266113,395.191559 
	C501.686798,420.823059 496.556793,454.020630 473.113251,474.185059 
	C451.551788,492.730682 416.976044,492.507904 395.430725,473.878662 
	C373.433289,454.858490 364.396637,418.979523 387.863770,388.911682 
	C378.791107,379.837952 369.749298,370.795105 360.855988,361.900726 
	C349.973938,372.831451 338.755402,384.100189 327.531616,395.374207 
	C329.647339,401.016998 331.954254,407.169678 334.408356,413.715057 
z"/>
<path fill="#FFFFFF" opacity="1.000000" stroke="none" 
	d="
M241.730377,641.998596 
	C190.452820,642.016174 139.645691,642.046997 88.838554,642.043518 
	C67.375664,642.042114 52.047146,626.798096 52.020897,605.264221 
	C51.959976,555.287415 51.976707,505.310486 52.012726,455.333679 
	C52.027657,434.614471 66.699463,419.076660 87.500862,418.862000 
	C121.979744,418.506226 156.465652,418.830536 190.948578,418.881500 
	C191.252930,418.881958 191.557022,419.063110 192.292557,419.297150 
	C190.630783,443.436340 196.976593,465.265533 213.492722,483.431122 
	C229.949387,501.531281 250.606903,510.943695 275.473206,511.251190 
	C275.473206,519.136536 275.472137,526.772034 275.473389,534.407593 
	C275.477264,557.730042 275.425446,581.052673 275.505615,604.374878 
	C275.562347,620.866333 268.483246,632.833923 253.250488,639.452515 
	C249.842072,640.933533 245.898163,641.182068 241.730377,641.998596 
z"/>
<path fill="#FFFFFF" opacity="1.000000" stroke="none" 
	d="
M87.128555,269.238770 
	C65.398506,267.611115 52.027218,253.228439 52.012093,231.807205 
	C51.977032,182.144745 51.973133,132.482208 52.014198,82.819748 
	C52.031986,61.307831 67.274895,46.002415 88.788887,45.980312 
	C139.282639,45.928440 189.776550,45.944599 240.270309,46.006695 
	C258.898346,46.029606 274.751404,60.234055 275.095245,78.757553 
	C275.700684,111.373207 275.264587,144.008194 275.264587,177.158890 
	C249.072754,175.258118 226.207153,182.809082 207.676331,201.619827 
	C189.310623,220.262970 181.839417,242.988556 184.092789,269.247070 
	C151.523514,269.247070 119.566391,269.247070 87.128555,269.238770 
z"/>
<path fill="#FEFEFE" opacity="1.000000" stroke="none" 
	d="
M629.999939,210.000000 
	C629.744324,220.477646 630.276672,230.553223 629.051575,240.410370 
	C627.131714,255.857391 612.032410,269.149536 596.107605,269.052429 
	C570.300781,268.895081 544.492371,269.010040 517.956360,269.010040 
	C519.744385,239.167343 510.035492,213.791962 486.317627,194.853958 
	C462.599701,175.915924 435.716431,173.062912 406.702972,181.067215 
	C406.620514,179.915558 406.496674,178.990265 406.496399,178.064941 
	C406.486572,146.399002 406.539612,114.732941 406.466705,83.067162 
	C406.431549,67.794319 412.933258,56.364986 426.569916,49.596268 
	C430.871857,47.460972 436.072937,46.170490 440.870178,46.148224 
	C492.531830,45.908401 544.195312,45.906319 595.857727,46.049782 
	C614.637390,46.101929 629.906982,62.292515 629.958801,82.002670 
	C630.070435,124.501518 629.997437,167.000854 629.999939,210.000000 
z"/>
<path fill="#FFFFFF" opacity="1.000000" stroke="none" 
	d="
M517.962891,422.141907 
	C517.461731,417.734375 520.497375,418.897827 522.291687,418.887024 
	C537.790222,418.793701 553.289612,418.824982 568.788696,418.836670 
	C577.117249,418.842957 585.445740,418.898987 593.774292,418.905701 
	C614.302246,418.922211 629.736328,434.015747 629.955017,454.687103 
	C630.156006,473.683868 629.999573,492.684448 629.999817,511.683350 
	C630.000183,542.348206 629.602783,573.020020 630.136597,603.675598 
	C630.505249,624.849060 614.485291,642.527344 591.672485,642.236572 
	C541.518372,641.597290 491.350739,642.065674 441.188782,641.978088 
	C423.087433,641.946472 407.235077,627.796570 406.898651,609.750183 
	C406.262604,575.631470 406.714844,541.492432 406.714844,508.101990 
	C416.540497,509.077789 426.369965,511.033844 436.158630,510.847504 
	C469.205566,510.218475 493.269714,494.277191 508.933105,465.562653 
	C516.184753,452.268707 518.735901,437.736237 517.962891,422.141907 
z"/>
</svg>