<?xml version="1.0" encoding="UTF-8"?>
<svg version="1.1" xmlns="http://www.w3.org/2000/svg" width="250" height="100">
<path d="M0 0 C82.5 0 165 0 250 0 C250 33 250 66 250 100 C167.5 100 85 100 0 100 C0 67 0 34 0 0 Z " fill="#010101" transform="translate(0,0)"/>
<path d="M0 0 C2.97 0 5.94 0 9 0 C10.17460695 4.41459421 11.33831024 8.83199067 12.5 13.25 C12.83386719 14.50425781 13.16773438 15.75851563 13.51171875 17.05078125 C13.82753906 18.25605469 14.14335937 19.46132813 14.46875 20.703125 C14.90864258 22.36843262 14.90864258 22.36843262 15.35742188 24.06738281 C16 27 16 27 16 31 C13.69 31 11.38 31 9 31 C8.67 28.69 8.34 26.38 8 24 C5.69 24.33 3.38 24.66 1 25 C0.34 26.98 -0.32 28.96 -1 31 C-2.98 31 -4.96 31 -7 31 C-6.34664916 24.11914052 -4.73500725 17.66453965 -2.9375 11 C-2.65583984 9.93910156 -2.37417969 8.87820312 -2.08398438 7.78515625 C-1.39396867 5.18882599 -0.69920797 2.59386689 0 0 Z " fill="#F5F5F5" transform="translate(140,28)"/>
<path d="M0 0 C2.93423195 1.79646854 4.47205355 2.9441071 6 6 C6.039992 7.99960012 6.04346799 10.00047242 6 12 C4.02 12 2.04 12 0 12 C-0.66 10.35 -1.32 8.7 -2 7 C-3.98 7 -5.96 7 -8 7 C-9.41693757 9.83387515 -9.1699013 12.28029373 -9.1875 15.4375 C-9.20167969 16.59121094 -9.21585938 17.74492188 -9.23046875 18.93359375 C-9.23925088 22.17280168 -9.23925088 22.17280168 -7 25 C-4.41619823 25.25030977 -4.41619823 25.25030977 -2 25 C-1.34 23.68 -0.68 22.36 0 21 C1.98 21 3.96 21 6 21 C5.51068997 27.48335794 5.51068997 27.48335794 3.32421875 29.6953125 C0.42650512 31.32192822 -1.62375851 31.49981889 -4.9375 31.5625 C-5.95714844 31.60503906 -6.97679687 31.64757812 -8.02734375 31.69140625 C-11.40666364 30.90541463 -13.0023783 29.67597847 -15.06469727 26.88305664 C-16.82542125 23.33816911 -16.64009011 19.81863286 -16.5 15.9375 C-16.50257812 15.14794922 -16.50515625 14.35839844 -16.5078125 13.54492188 C-16.43012571 8.91090487 -15.99800406 5.74043431 -13 2 C-8.76447144 -0.82368571 -4.97522686 -0.66653757 0 0 Z " fill="#F5F5F5" transform="translate(47,28)"/>
<path d="M0 0 C1.98 0 3.96 0 6 0 C6 3.63 6 7.26 6 11 C6.66 10.67 7.32 10.34 8 10 C14.36904896 9.53679644 14.36904896 9.53679644 16.7043457 11.2512207 C18.31310574 13.4226072 18.34997414 14.55121554 18.29296875 17.23046875 C18.28330078 18.03291016 18.27363281 18.83535156 18.26367188 19.66210938 C18.23853516 20.49548828 18.21339844 21.32886719 18.1875 22.1875 C18.16719727 23.4549707 18.16719727 23.4549707 18.14648438 24.74804688 C18.11115799 26.83230384 18.05735139 28.91623277 18 31 C16.02 31 14.04 31 12 31 C11.67 26.05 11.34 21.1 11 16 C9.68 16 8.36 16 7 16 C6.67 20.95 6.34 25.9 6 31 C4.02 31 2.04 31 0 31 C0 20.77 0 10.54 0 0 Z " fill="#F8F8F8" transform="translate(57,28)"/>
<path d="M0 0 C2.8100346 1.79363911 4.50940468 3.01880935 6 6 C6.04022391 8.3329866 6.04320247 10.66706666 6 13 C1.71 13 -2.58 13 -7 13 C-6.67 13.99 -6.34 14.98 -6 16 C-4.02 16 -2.04 16 0 16 C0 15.34 0 14.68 0 14 C1.98 14 3.96 14 6 14 C5.43334296 17.28661084 4.64927924 18.94392894 2 21 C-1.71675472 21.68093216 -5.27478654 21.61435304 -9 21 C-12.39547239 17.92790594 -13.87679539 15.28132796 -14.3125 10.75 C-13.94713599 6.36563187 -12.73973233 4.38437523 -10 1 C-6.79826746 -0.60086627 -3.47422941 -0.49917089 0 0 Z " fill="#EFEFEF" transform="translate(182,38)"/>
<path d="M0 0 C1.28197266 -0.02900391 1.28197266 -0.02900391 2.58984375 -0.05859375 C6.02702604 0.6310147 7.09742728 1.52377148 9.0625 4.4375 C9.53641868 7.37311116 9.44028218 10.22393643 9.3125 13.1875 C9.29445313 13.98027344 9.27640625 14.77304687 9.2578125 15.58984375 C9.21083082 17.53958348 9.13909044 19.48869878 9.0625 21.4375 C6.43722811 21.49132106 3.81305287 21.53108313 1.1875 21.5625 C0.44113281 21.57925781 -0.30523437 21.59601562 -1.07421875 21.61328125 C-3.02944461 21.6308959 -4.98492021 21.54070189 -6.9375 21.4375 C-8.9375 19.4375 -8.9375 19.4375 -9.375 15.5 C-9.31640625 13.34765625 -9.31640625 13.34765625 -8.9375 11.4375 C-6.14058991 8.80511404 -4.44543153 8.46625084 -0.625 8.25 C0.261875 8.311875 1.14875 8.37375 2.0625 8.4375 C2.0625 7.4475 2.0625 6.4575 2.0625 5.4375 C0.4125 5.4375 -1.2375 5.4375 -2.9375 5.4375 C-2.9375 6.0975 -2.9375 6.7575 -2.9375 7.4375 C-4.9175 7.4375 -6.8975 7.4375 -8.9375 7.4375 C-7.98409278 1.90773811 -5.56912245 0.00837462 0 0 Z " fill="#F3F3F3" transform="translate(87.9375,37.5625)"/>
<path d="M0 0 C3 0 6 0 9 0 C10.7325 -0.0928125 10.7325 -0.0928125 12.5 -0.1875 C16 0 16 0 17.70043945 1.24731445 C19.31248487 3.42144071 19.350057 4.54732114 19.29296875 7.23046875 C19.28330078 8.03291016 19.27363281 8.83535156 19.26367188 9.66210938 C19.23853516 10.49548828 19.21339844 11.32886719 19.1875 12.1875 C19.16719727 13.4549707 19.16719727 13.4549707 19.14648438 14.74804688 C19.11115799 16.83230384 19.05735139 18.91623277 19 21 C17.02 21 15.04 21 13 21 C12.67 16.05 12.34 11.1 12 6 C10.35 6.33 8.7 6.66 7 7 C6.67 11.62 6.34 16.24 6 21 C4.02 21 2.04 21 0 21 C0 14.07 0 7.14 0 0 Z " fill="#F6F6F6" transform="translate(111,38)"/>
<path d="M0 0 C1.98 0 3.96 0 6 0 C6 1.98 6 3.96 6 6 C7.98 6 9.96 6 12 6 C12 7.98 12 9.96 12 12 C10.02 12 8.04 12 6 12 C6.33 14.97 6.66 17.94 7 21 C8.32 21.33 9.64 21.66 11 22 C11 23.65 11 25.3 11 27 C5.04296875 27.390625 5.04296875 27.390625 3 27 C0.64204195 24.76836113 0.04641998 23.44315607 -0.29296875 20.203125 C-0.25816406 19.22859375 -0.22335938 18.2540625 -0.1875 17.25 C-0.16042969 16.26515625 -0.13335937 15.2803125 -0.10546875 14.265625 C-0.07066406 13.51796875 -0.03585938 12.7703125 0 12 C-0.99 12 -1.98 12 -3 12 C-3 10.02 -3 8.04 -3 6 C-2.01 6 -1.02 6 0 6 C0 4.02 0 2.04 0 0 Z " fill="#F2F2F2" transform="translate(208,32)"/>
<path d="M0 0 C1.98 0 3.96 0 6 0 C6 10.23 6 20.46 6 31 C4.02 31 2.04 31 0 31 C0 20.77 0 10.54 0 0 Z " fill="#FFFFFF" transform="translate(159,28)"/>
<path d="M0 0 C1.65 0 3.3 0 5 0 C5 0.66 5 1.32 5 2 C5.99 1.34 6.98 0.68 8 0 C9.32 0 10.64 0 12 0 C12 1.98 12 3.96 12 6 C10.35 6.33 8.7 6.66 7 7 C6.67 11.62 6.34 16.24 6 21 C4.02 21 2.04 21 0 21 C0 14.07 0 7.14 0 0 Z " fill="#F7F7F7" transform="translate(191,38)"/>
<path d="M0 0 C1.98 0 3.96 0 6 0 C6 6.93 6 13.86 6 21 C4.02 21 2.04 21 0 21 C0 14.07 0 7.14 0 0 Z " fill="#F9F9F9" transform="translate(101,38)"/>
<path d="M0 0 C1.98 0 3.96 0 6 0 C6 1.98 6 3.96 6 6 C4.02 6 2.04 6 0 6 C0 4.02 0 2.04 0 0 Z " fill="#FFFFFF" transform="translate(101,29)"/>
<path d="M0 0 C3.63 0 7.26 0 11 0 C9.68 0.33 8.36 0.66 7 1 C7 1.66 7 2.32 7 3 C5.02 3.33 3.04 3.66 1 4 C0.67 2.68 0.34 1.36 0 0 Z " fill="#171717" transform="translate(175,51)"/>
<path d="M0 0 C0.33 0 0.66 0 1 0 C1.66 3.3 2.32 6.6 3 10 C1.35 10 -0.3 10 -2 10 C-1.54177532 6.53058454 -1.10868317 3.32604951 0 0 Z " fill="#1D1D1D" transform="translate(144,37)"/>
<path d="M0 0 C-0.33 1.65 -0.66 3.3 -1 5 C-2.65 5 -4.3 5 -6 5 C-6 3.68 -6 2.36 -6 1 C-4 0 -4 0 0 0 Z " fill="#232323" transform="translate(91,49)"/>
<path d="M0 0 C1.65 0 3.3 0 5 0 C5 0.99 5 1.98 5 3 C-1.4 4.23076923 -1.4 4.23076923 -4.4375 3.0625 C-4.953125 2.711875 -5.46875 2.36125 -6 2 C-4.02 2 -2.04 2 0 2 C0 1.34 0 0.68 0 0 Z " fill="#1B1B1B" transform="translate(85,43)"/>
<path d="M0 0 C1.65 0 3.3 0 5 0 C5 0.99 5 1.98 5 3 C3.02 3 1.04 3 -1 3 C-0.67 2.01 -0.34 1.02 0 0 Z " fill="#070707" transform="translate(176,43)"/>
</svg>
