<?xml version="1.0" encoding="UTF-8"?>
<svg version="1.1" xmlns="http://www.w3.org/2000/svg" width="400" height="150">
<path d="M0 0 C132 0 264 0 400 0 C400 49.5 400 99 400 150 C268 150 136 150 0 150 C0 100.5 0 51 0 0 Z " fill="#FEFEFE" transform="translate(0,0)"/>
<path d="M0 0 C4.29 0 8.58 0 13 0 C14.49636177 5.13840999 15.86428633 10.29693044 17.1640625 15.48828125 C17.45946426 16.66489571 17.45946426 16.66489571 17.76083374 17.86528015 C18.17320215 19.50972341 18.58494688 21.15432317 18.99609375 22.79907227 C19.62764694 25.32307853 20.26296957 27.84611751 20.8984375 30.36914062 C21.29970916 31.97129658 21.7007588 33.57350816 22.1015625 35.17578125 C22.2921524 35.93095535 22.48274231 36.68612946 22.67910767 37.46418762 C24 42.7711488 24 42.7711488 24 45 C20.7 45 17.4 45 14 45 C13.34 42.03 12.68 39.06 12 36 C8.37 35.67 4.74 35.34 1 35 C0.7834375 37.1965625 0.7834375 37.1965625 0.5625 39.4375 C0.125 43.875 0.125 43.875 -1 45 C-2.51928038 45.07179964 -4.04167482 45.08392007 -5.5625 45.0625 C-6.38878906 45.05347656 -7.21507812 45.04445312 -8.06640625 45.03515625 C-8.70449219 45.02355469 -9.34257812 45.01195312 -10 45 C-9.37933648 39.23383564 -8.33706919 33.74789676 -6.93359375 28.125 C-6.73524429 27.31506592 -6.53689484 26.50513184 -6.33253479 25.6706543 C-5.70508452 23.11270784 -5.07140437 20.55635378 -4.4375 18 C-4.00804887 16.25400819 -3.57900845 14.50791531 -3.15039062 12.76171875 C-2.10500285 8.50662977 -1.0540294 4.25295622 0 0 Z " fill="#060606" transform="translate(262,43)"/>
<path d="M0 0 C3.53296473 2.5364875 5.067571 4.64021299 6.4375 8.75 C6.47704234 11.08299825 6.48151732 13.41708189 6.4375 15.75 C3.1375 15.75 -0.1625 15.75 -3.5625 15.75 C-3.8925 13.11 -4.2225 10.47 -4.5625 7.75 C-7.8625 7.75 -11.1625 7.75 -14.5625 7.75 C-15.98977587 12.03182762 -15.78697769 16.13945436 -15.8125 20.625 C-15.833125 21.52347656 -15.85375 22.42195313 -15.875 23.34765625 C-15.92897541 30.06604123 -15.92897541 30.06604123 -12.5625 35.75 C-9.51996492 36.33345476 -9.51996492 36.33345476 -6.5625 35.75 C-4.20296906 33.39046906 -4.07108587 31.97104383 -3.5625 28.75 C-0.2625 28.75 3.0375 28.75 6.4375 28.75 C6.94287432 34.05643041 5.74405751 36.61680312 2.4375 40.75 C-1.99051763 44.76289097 -6.53594886 45.05026923 -12.31640625 44.96484375 C-16.87821103 44.52849721 -19.67920977 42.65782607 -22.8125 39.4375 C-26.50197597 33.77151905 -26.9023792 28.43505653 -26.875 21.875 C-26.89111328 21.11058594 -26.90722656 20.34617187 -26.92382812 19.55859375 C-26.92964771 12.70311757 -25.61574012 7.16255714 -21.0625 1.8125 C-15.37523521 -2.87949345 -6.68402938 -2.34527347 0 0 Z " fill="#0B0B0B" transform="translate(129.5625,44.25)"/>
<path d="M0 0 C2.97 0 5.94 0 9 0 C9.33 5.61 9.66 11.22 10 17 C11.32 16.34 12.64 15.68 14 15 C18.22780705 14.45195094 20.4167513 14.69130496 24.203125 16.6953125 C26.49115663 18.70547596 26.96688181 19.80386298 27.48095703 22.84838867 C27.5915676 26.35422923 27.52203764 29.80810299 27.375 33.3125 C27.34792969 34.53001953 27.32085937 35.74753906 27.29296875 37.00195312 C27.22235341 40.00310498 27.12376972 43.00064712 27 46 C24.03 46 21.06 46 18 46 C17.67 38.74 17.34 31.48 17 24 C15.02 24 13.04 24 11 24 C9.38219843 25.61780157 9.77727853 27.45635518 9.68359375 29.69140625 C9.64169922 30.63564453 9.59980469 31.57988281 9.55664062 32.55273438 C9.51732422 33.54595703 9.47800781 34.53917969 9.4375 35.5625 C9.39431641 36.55958984 9.35113281 37.55667969 9.30664062 38.58398438 C9.20019702 41.0558415 9.09818072 43.5278031 9 46 C6.03 46 3.06 46 0 46 C0 30.82 0 15.64 0 0 Z " fill="#060606" transform="translate(141,42)"/>
<path d="M0 0 C3.14924709 1.31116513 5.43587432 2.87174864 7 6 C7.15344209 7.88472859 7.24959571 9.77427874 7.31640625 11.6640625 C7.35830078 12.78554687 7.40019531 13.90703125 7.44335938 15.0625 C7.48267578 16.238125 7.52199219 17.41375 7.5625 18.625 C7.60568359 19.80835937 7.64886719 20.99171875 7.69335938 22.2109375 C7.79967426 25.14050328 7.90170642 28.07015588 8 31 C5.36 31 2.72 31 0 31 C0 30.01 0 29.02 0 28 C-1.03125 28.66 -2.0625 29.32 -3.125 30 C-6.58723048 31.96146525 -8.97073182 32.61314951 -13 32 C-17.63235294 29.73529412 -17.63235294 29.73529412 -19 27 C-19.50077007 22.74755905 -19.79720222 19.19580334 -17.375 15.5625 C-12.34327151 12.25215231 -7.95153961 11.76193842 -2 12 C-2.33 10.68 -2.66 9.36 -3 8 C-5.41619823 7.74969023 -5.41619823 7.74969023 -8 8 C-8.99 9.485 -8.99 9.485 -10 11 C-11.9453125 11.29296875 -11.9453125 11.29296875 -14.125 11.1875 C-16.043125 11.0946875 -16.043125 11.0946875 -18 11 C-17.83721765 6.76765896 -17.63098132 4.6475861 -14.625 1.5625 C-9.65371788 -0.58029402 -5.33732392 -0.80772558 0 0 Z " fill="#090909" transform="translate(192,57)"/>
<path d="M0 0 C3.39518445 2.36873334 4.90830689 4.11132227 6.6875 7.875 C7.00362439 11.28608415 6.87341372 14.43559625 6.6875 17.875 C0.4175 17.875 -5.8525 17.875 -12.3125 17.875 C-11.3225 19.525 -10.3325 21.175 -9.3125 22.875 C-5.68650578 23.29225678 -5.68650578 23.29225678 -2.3125 22.875 C-1.9825 21.885 -1.6525 20.895 -1.3125 19.875 C1.3275 19.875 3.9675 19.875 6.6875 19.875 C6.0861014 25.28758741 6.0861014 25.28758741 4.5 27.625 C-0.19572564 30.86343148 -5.74031088 31.78701499 -11.3125 30.875 C-16.41459922 28.17955136 -19.48631037 25.3535689 -21.3125 19.875 C-21.89021254 13.52016202 -21.62448266 8.3949711 -18.3125 2.875 C-12.74887858 -2.29121989 -6.90604781 -2.3454502 0 0 Z " fill="#070707" transform="translate(325.3125,58.125)"/>
<path d="M0 0 C3.5386994 1.65139305 4.81070153 2.71605229 7 6 C7.22705078 8.63549805 7.22705078 8.63549805 7.1953125 11.76171875 C7.18886719 12.87998047 7.18242187 13.99824219 7.17578125 15.15039062 C7.15902344 16.31763672 7.14226562 17.48488281 7.125 18.6875 C7.11597656 19.86634766 7.10695312 21.04519531 7.09765625 22.25976562 C7.07406423 25.17338026 7.0411454 28.08658892 7 31 C4.03 31 1.06 31 -2 31 C-2.02505615 30.36908447 -2.0501123 29.73816895 -2.07592773 29.08813477 C-2.19154137 26.24603175 -2.31442316 23.40428917 -2.4375 20.5625 C-2.47681641 19.56927734 -2.51613281 18.57605469 -2.55664062 17.55273438 C-2.59853516 16.60849609 -2.64042969 15.66425781 -2.68359375 14.69140625 C-2.72025146 13.81685791 -2.75690918 12.94230957 -2.79467773 12.04125977 C-2.78181066 10.0072598 -2.78181066 10.0072598 -4 9 C-6.5 8.83333333 -6.5 8.83333333 -9 9 C-10.61780157 10.61780157 -10.22272147 12.45635518 -10.31640625 14.69140625 C-10.35830078 15.63564453 -10.40019531 16.57988281 -10.44335938 17.55273438 C-10.48267578 18.54595703 -10.52199219 19.53917969 -10.5625 20.5625 C-10.60568359 21.55958984 -10.64886719 22.55667969 -10.69335938 23.58398438 C-10.79980298 26.0558415 -10.90181928 28.5278031 -11 31 C-13.97 31 -16.94 31 -20 31 C-20.33 21.1 -20.66 11.2 -21 1 C-18.36 1 -15.72 1 -13 1 C-12.34 1.66 -11.68 2.32 -11 3 C-10.484375 2.505 -9.96875 2.01 -9.4375 1.5 C-6.0870925 -0.56178923 -3.87608446 -0.40800889 0 0 Z " fill="#090909" transform="translate(241,57)"/>
<path d="M0 0 C3.3 0 6.6 0 10 0 C10 2.97 10 5.94 10 9 C12.31 9 14.62 9 17 9 C17 11.64 17 14.28 17 17 C14.69 17 12.38 17 10 17 C10.33 21.62 10.66 26.24 11 31 C12.98 31.33 14.96 31.66 17 32 C17.04241723 34.33294775 17.04092937 36.66702567 17 39 C16 40 16 40 12.25 40.25 C8.38865386 40.20156017 6.08420211 39.44921932 3 37 C0.96879293 33.95318939 0.75340125 33.39881676 0.8046875 29.98828125 C0.81113281 29.23095703 0.81757813 28.47363281 0.82421875 27.69335938 C0.84097656 26.90767578 0.85773438 26.12199219 0.875 25.3125 C0.88402344 24.51521484 0.89304687 23.71792969 0.90234375 22.89648438 C0.92588415 20.930861 0.96175453 18.96539225 1 17 C-0.65 17 -2.3 17 -4 17 C-4 14.36 -4 11.72 -4 9 C-2.68 9 -1.36 9 0 9 C0 6.03 0 3.06 0 0 Z " fill="#0D0D0D" transform="translate(361,49)"/>
<path d="M0 0 C2.97 0 5.94 0 9 0 C9 15.18 9 30.36 9 46 C6.03 46 3.06 46 0 46 C0 30.82 0 15.64 0 0 Z " fill="#040404" transform="translate(290,42)"/>
<path d="M0 0 C0 2.97 0 5.94 0 9 C-2.31 9.66 -4.62 10.32 -7 11 C-7.33 17.6 -7.66 24.2 -8 31 C-10.97 31 -13.94 31 -17 31 C-17 21.1 -17 11.2 -17 1 C-14.36 1 -11.72 1 -9 1 C-8.67 1.66 -8.34 2.32 -8 3 C-7.13375 2.2575 -7.13375 2.2575 -6.25 1.5 C-4 0 -4 0 0 0 Z " fill="#030303" transform="translate(354,57)"/>
<path d="M0 0 C0.50961846 1.39235043 1.00724909 2.78909118 1.5 4.1875 C1.7784375 4.96480469 2.056875 5.74210937 2.34375 6.54296875 C3.0353168 9.13222779 3.11370917 11.33257238 3 14 C0.23058394 14.83830973 -2.54035069 15.67082034 -5.3125 16.5 C-6.09818359 16.73847656 -6.88386719 16.97695313 -7.69335938 17.22265625 C-8.45068359 17.44824219 -9.20800781 17.67382812 -9.98828125 17.90625 C-10.68477783 18.11572266 -11.38127441 18.32519531 -12.09887695 18.54101562 C-14 19 -14 19 -17 19 C-17.50833591 17.75336669 -18.00631145 16.50250613 -18.5 15.25 C-18.7784375 14.55390625 -19.056875 13.8578125 -19.34375 13.140625 C-20 11 -20 11 -20 7 C-17.23174812 5.82685974 -14.46071514 4.66129785 -11.6875 3.5 C-10.50897461 2.99919922 -10.50897461 2.99919922 -9.30664062 2.48828125 C-8.54931641 2.17246094 -7.79199219 1.85664062 -7.01171875 1.53125 C-6.31522217 1.23798828 -5.61872559 0.94472656 -4.90112305 0.64257812 C-3 0 -3 0 0 0 Z " fill="#080808" transform="translate(92,47)"/>
<path d="M0 0 C4.56736441 0.70062483 8.5699505 2.31270207 12.8125 4.0625 C13.50537109 4.34416016 14.19824219 4.62582031 14.91210938 4.91601562 C16.60967624 5.60674973 18.30506312 6.30283728 20 7 C19.43584866 11.3149954 18.80723554 15.02408182 17 19 C9.91296261 18.45484328 3.67203894 16.39081395 -3 14 C-2.48594831 9.03083364 -1.76615118 4.70973649 0 0 Z " fill="#070707" transform="translate(35,47)"/>
<path d="M0 0 C3.15330554 0.60694155 5.18888867 1.6416665 7.75 3.5625 C8.67039062 4.24505859 8.67039062 4.24505859 9.609375 4.94140625 C10.06828125 5.29074219 10.5271875 5.64007813 11 6 C9.51407215 10.12842841 7.50667639 13.63213592 5.125 17.3125 C4.44695313 18.38113281 3.76890625 19.44976562 3.0703125 20.55078125 C2.04550781 21.76314453 2.04550781 21.76314453 1 23 C-3.37451315 23 -4.00472003 22.59622397 -7.25 20 C-7.95640625 19.443125 -8.6628125 18.88625 -9.390625 18.3125 C-9.92171875 17.879375 -10.4528125 17.44625 -11 17 C-10.12429445 12.59214242 -7.68803513 9.69289817 -4.9375 6.25 C-4.46505859 5.64800781 -3.99261719 5.04601562 -3.50585938 4.42578125 C-2.34309599 2.94590057 -1.1723234 1.47231904 0 0 Z " fill="#060606" transform="translate(51,69)"/>
<path d="M0 0 C4.40064304 1.54228144 6.59595898 5.01426977 9.25 8.625 C9.70890625 9.23601562 10.1678125 9.84703125 10.640625 10.4765625 C11.76751252 11.9790792 12.88472437 13.48884409 14 15 C12.63783758 18.21965664 11.27468847 19.81687435 8.375 21.75 C7.74335937 22.17796875 7.11171875 22.6059375 6.4609375 23.046875 C5.97882813 23.36140625 5.49671875 23.6759375 5 24 C0.69826046 22.47708531 -1.33869252 19.24209693 -3.8125 15.625 C-4.44188477 14.75875 -4.44188477 14.75875 -5.08398438 13.875 C-8.00459983 9.66007555 -8.00459983 9.66007555 -7.984375 6.7578125 C-6.76689164 4.58373507 -5.516715 3.61094073 -3.4375 2.25 C-2.79683594 1.82203125 -2.15617187 1.3940625 -1.49609375 0.953125 C-1.00238281 0.63859375 -0.50867188 0.3240625 0 0 Z " fill="#060606" transform="translate(73,69)"/>
<path d="M0 0 C4.29 0 8.58 0 13 0 C13 6.93 13 13.86 13 21 C8.71 21 4.42 21 0 21 C0 14.07 0 7.14 0 0 Z " fill="#000000" transform="translate(57,32)"/>
<path d="M0 0 C2.97 0 5.94 0 9 0 C9 9.9 9 19.8 9 30 C6.03 30 3.06 30 0 30 C0 20.1 0 10.2 0 0 Z " fill="#0C0C0C" transform="translate(205,58)"/>
<path d="M0 0 C3.3 0 6.6 0 10 0 C10 3.3 10 6.6 10 10 C6.7 10 3.4 10 0 10 C0 6.7 0 3.4 0 0 Z " fill="#191919" transform="translate(205,44)"/>
<path d="M0 0 C6.27 0 12.54 0 19 0 C19 0.33 19 0.66 19 1 C16.36 1.33 13.72 1.66 11 2 C10.67 2.99 10.34 3.98 10 5 C3.53104925 6.34261242 3.53104925 6.34261242 1.0625 4.75 C0 3 0 3 0 0 Z " fill="#E9E9E9" transform="translate(313,76)"/>
<path d="M0 0 C2.18742014 3.2811302 2.54442806 5.33084356 3.125 9.1875 C3.29257812 10.27417969 3.46015625 11.36085938 3.6328125 12.48046875 C3.75398438 13.31191406 3.87515625 14.14335938 4 15 C1.69 15 -0.62 15 -3 15 C-2.01 10.05 -1.02 5.1 0 0 Z " fill="#EFEFEF" transform="translate(268,55)"/>
<path d="M0 0 C3.0625 0.1875 3.0625 0.1875 5.0625 2.1875 C5.0625 3.5075 5.0625 4.8275 5.0625 6.1875 C1.7625 6.1875 -1.5375 6.1875 -4.9375 6.1875 C-3.87127483 0.24710265 -3.87127483 0.24710265 0 0 Z " fill="#E0E0E0" transform="translate(317.9375,63.8125)"/>
<path d="M0 0 C0.94875 0.04125 1.8975 0.0825 2.875 0.125 C2.91754356 2.12454746 2.91580783 4.12541636 2.875 6.125 C1.875 7.125 1.875 7.125 -1.1875 7.1875 C-2.156875 7.166875 -3.12625 7.14625 -4.125 7.125 C-4.75 4.75 -4.75 4.75 -5.125 2.125 C-3.125 0.125 -3.125 0.125 0 0 Z " fill="#F4F4F4" transform="translate(187.125,73.875)"/>
<path d="M0 0 C1.2065625 0.0309375 1.2065625 0.0309375 2.4375 0.0625 C2.7675 1.7125 3.0975 3.3625 3.4375 5.0625 C-1.0175 5.5575 -1.0175 5.5575 -5.5625 6.0625 C-3.26136364 0.07954545 -3.26136364 0.07954545 0 0 Z " fill="#EAEAEA" transform="translate(186.5625,63.9375)"/>
</svg>
