<?xml version="1.0" encoding="UTF-8"?>
<svg version="1.1" xmlns="http://www.w3.org/2000/svg" width="500" height="500">
<path d="M0 0 C165 0 330 0 500 0 C500 165 500 330 500 500 C335 500 170 500 0 500 C0 335 0 170 0 0 Z " fill="#000000" transform="translate(0,0)"/>
<path d="M0 0 C25.74 0 51.48 0 78 0 C77.43672303 39.42938769 75.90337554 78.60840186 74 118 C50.9 118 27.8 118 4 118 C2.8541274 103.10365618 2.8541274 103.10365618 2.71875 96.015625 C2.70034058 95.23088806 2.68193115 94.44615112 2.66296387 93.63763428 C2.60536262 91.17515021 2.55213668 88.71260537 2.5 86.25 C2.3052451 77.13110221 2.10625239 68.02810833 1.50390625 58.92578125 C0.74622842 47.27723478 0.64231894 35.60605432 0.4375 23.9375 C0.293125 16.038125 0.14875 8.13875 0 0 Z " fill="#FDFDFD" transform="translate(211,83)"/>
<path d="M0 0 C6.74327011 19.58529753 13.48408121 39.17131964 19.875 58.875 C20.1965506 59.85897263 20.1965506 59.85897263 20.52459717 60.86282349 C21.1227458 62.69605708 21.71390967 64.53156533 22.3046875 66.3671875 C22.63452637 67.38925293 22.96436523 68.41131836 23.30419922 69.46435547 C24 72 24 72 24 75 C23.195625 75.20753906 22.39125 75.41507812 21.5625 75.62890625 C12.41164293 78.0269927 3.32902593 80.62816922 -5.74804688 83.29125977 C-12.32468748 85.220715 -18.90755827 87.12527044 -25.5 89 C-33.00879908 91.13699879 -40.50686751 93.30871389 -48 95.5 C-55.82851094 97.78774072 -63.65997368 100.06450387 -71.5 102.3125 C-72.34175781 102.55484375 -73.18351562 102.7971875 -74.05078125 103.046875 C-79.01210601 104.46554137 -83.9871202 105.77552363 -89 107 C-94.48922055 92.52686879 -99.61096619 77.92255399 -103.83203125 63.02734375 C-104.6466018 60.16543426 -105.52616549 57.33269637 -106.44921875 54.50390625 C-106.68745361 53.76970459 -106.92568848 53.03550293 -107.17114258 52.27905273 C-107.62860683 50.87905028 -108.09292011 49.48126077 -108.56518555 48.08618164 C-110.11043941 43.33131824 -110.11043941 43.33131824 -109 40 C-106.34361267 38.68426514 -106.34361267 38.68426514 -102.74584961 37.34667969 C-102.09216211 37.09993752 -101.43847462 36.85319534 -100.76497841 36.59897614 C-98.58546629 35.77917909 -96.4002948 34.97569156 -94.21484375 34.171875 C-92.6769097 33.59670368 -91.13939473 33.02041065 -89.60227966 32.4430542 C-86.37145969 31.23128835 -83.13840377 30.02578058 -79.90350342 28.82495117 C-75.18838283 27.07304314 -70.48180006 25.29918464 -65.77783203 23.51757812 C-64.26006541 22.94289915 -62.74229402 22.36823279 -61.22451782 21.7935791 C-60.47610249 21.51021194 -59.72768715 21.22684479 -58.95659256 20.93489075 C-55.18276849 19.50751006 -51.40687394 18.08563635 -47.63085938 16.6640625 C-46.88712885 16.38406654 -46.14339832 16.10407059 -45.37713051 15.8155899 C-43.8695893 15.2480593 -42.36204317 14.68054175 -40.85449219 14.11303711 C-37.72746922 12.93557373 -34.60085189 11.75703515 -31.47422886 10.57851028 C-28.43674403 9.43370581 -25.39904738 8.2894643 -22.36128044 7.14540863 C-20.9262917 6.60491978 -19.49136057 6.06427798 -18.05648994 5.52347565 C-16.08287446 4.77973637 -14.10898276 4.03673509 -12.13500977 3.29394531 C-11.01844498 2.87348938 -9.90188019 2.45303345 -8.7514801 2.01983643 C-3.30203782 0 -3.30203782 0 0 0 Z " fill="#FDFDFD" transform="translate(403,166)"/>
<path d="M0 0 C4.42081153 0.60725133 8.29186242 1.710767 12.4597168 3.29394531 C13.38709593 3.64357503 13.38709593 3.64357503 14.33320999 4.00026798 C16.37387682 4.77105637 18.41149244 5.54959977 20.44921875 6.328125 C21.89389296 6.87528834 23.33876717 7.42192385 24.78382874 7.96806335 C28.62934659 9.42289225 32.47236095 10.88422148 36.31480408 12.3471489 C42.60713373 14.74148722 48.90321584 17.12596102 55.19875717 19.51183891 C56.75123544 20.10033353 58.30361635 20.68908505 59.85589981 21.27809334 C68.9899753 24.74380252 78.13313808 28.17789569 87.31640625 31.51171875 C88.16502731 31.82084198 89.01364838 32.12996521 89.88798523 32.44845581 C93.57630118 33.79071452 97.26806973 35.12139416 100.9675293 36.43261719 C102.18996338 36.87637695 103.41239746 37.32013672 104.671875 37.77734375 C106.20473145 38.32249634 106.20473145 38.32249634 107.76855469 38.87866211 C110 40 110 40 111 43 C110.3677063 45.61167908 110.3677063 45.61167908 109.29345703 48.78491211 C108.89619415 49.97301987 108.49893127 51.16112762 108.08963013 52.38523865 C107.64583328 53.68265572 107.2018905 54.98002288 106.7578125 56.27734375 C106.30954558 57.60840967 105.86211851 58.9397587 105.41549683 60.27137756 C104.23672072 63.77911681 103.04745287 67.28320734 101.85571289 70.78656006 C100.41180177 75.03688345 98.97913872 79.29100741 97.54594231 83.54495335 C96.4302076 86.85643867 95.31243961 90.16718471 94.18826294 93.47581482 C93.78469574 94.66707474 93.38112854 95.85833466 92.96533203 97.08569336 C92.60923859 98.13365585 92.25314514 99.18161835 91.88626099 100.26133728 C91.16215284 102.49892644 90.5297122 104.7102452 90 107 C83.54037276 105.94104472 77.46177434 104.26405871 71.25 102.25 C64.31387322 100.00417976 57.35489812 97.94901443 50.3125 96.0625 C39.51945481 93.16692092 28.79603574 90.05882217 18.07617188 86.90429688 C12.84458598 85.3663767 7.60980486 83.83942092 2.375 82.3125 C1.37678223 82.02117187 0.37856445 81.72984375 -0.64990234 81.4296875 C-8.09235296 79.25954306 -15.54144115 77.11413376 -23 75 C-22.48573503 70.79331257 -21.82356613 67.05891533 -20.25 63.125 C-18.52080881 58.59618518 -17.08413761 54.02035885 -15.75 49.36328125 C-13.14624657 40.3981044 -10.36949858 31.49165499 -7.55078125 22.59204102 C-6.73443394 20.0133293 -5.92177672 17.43347277 -5.109375 14.85351562 C-4.58875709 13.20566109 -4.06793199 11.557872 -3.546875 9.91015625 C-3.18441681 8.75882957 -3.18441681 8.75882957 -2.81463623 7.58424377 C-1.11503321 2.23006642 -1.11503321 2.23006642 0 0 Z " fill="#FDFDFD" transform="translate(96,166)"/>
<path d="M0 0 C5.08084235 1.62706739 8.95243346 4.67754568 13.1875 7.8125 C14.80332987 8.99356558 16.41921689 10.17455297 18.03515625 11.35546875 C18.85902832 11.96052246 19.68290039 12.56557617 20.53173828 13.18896484 C24.38509092 16.01628135 28.25293921 18.82337816 32.125 21.625 C32.85855713 22.15609375 33.59211426 22.6871875 34.34790039 23.234375 C41.81056905 28.61809275 49.39046134 33.82675778 57 39 C55.67733655 42.61458558 54.07827843 45.59713865 51.89453125 48.76171875 C51.25306152 49.69749756 50.6115918 50.63327637 49.95068359 51.59741211 C48.89228271 53.12700562 48.89228271 53.12700562 47.8125 54.6875 C46.66288708 56.3613427 45.51513774 58.03645433 44.36737061 59.71156311 C43.54635403 60.90948555 42.72476523 62.10701598 41.90264893 63.30418396 C37.34052478 69.94972024 32.82671994 76.62773493 28.31433105 83.30709839 C26.38491543 86.16289042 24.45422827 89.01782186 22.52359009 91.87278748 C21.03984342 94.06695614 19.55628658 96.26125305 18.07275391 98.45556641 C13.25571158 105.58012521 8.43647883 112.70320245 3.61749268 119.82644653 C1.15247088 123.47018356 -1.31243369 127.11399988 -3.77734375 130.7578125 C-4.60278262 131.97802774 -5.42822201 133.19824263 -6.25366211 134.41845703 C-6.82995361 135.27036621 -7.40624512 136.12227539 -8 137 C-11.26516543 135.78996189 -13.99020554 134.48074062 -16.79296875 132.41796875 C-17.49615234 131.90492188 -18.19933594 131.391875 -18.92382812 130.86328125 C-19.67083984 130.31027344 -20.41785156 129.75726563 -21.1875 129.1875 C-22.80588677 128.00376568 -24.42437929 126.82017591 -26.04296875 125.63671875 C-26.86716309 125.03134277 -27.69135742 124.4259668 -28.54052734 123.80224609 C-32.34542603 121.01410215 -36.17335156 118.25816868 -40 115.5 C-41.48308768 114.42710375 -42.96616052 113.35418696 -44.44921875 112.28125 C-47.60961689 109.99778497 -50.78029198 107.72942076 -53.95703125 105.46875 C-54.76978516 104.88802734 -55.58253906 104.30730469 -56.41992188 103.70898438 C-57.96928258 102.60229816 -59.52121077 101.49919403 -61.07617188 100.40039062 C-65.08702935 97.52919018 -68.62805659 94.60380592 -72 91 C-71.26136719 90.07960938 -70.52273437 89.15921875 -69.76171875 88.2109375 C-64.62744588 81.80696245 -59.50496178 75.39453107 -54.4375 68.9375 C-53.98705322 68.36354492 -53.53660645 67.78958984 -53.07250977 67.19824219 C-50.82002281 64.32594879 -48.57099615 61.45097974 -46.32421875 58.57421875 C-41.42461222 52.30926469 -36.46857073 46.09752977 -31.4375 39.9375 C-26.70287962 34.13920009 -22.09336919 28.26486943 -17.5546875 22.3125 C-14.11565251 17.82561266 -10.5663689 13.4263858 -7.02124023 9.02319336 C-4.62989099 6.0507611 -2.26124692 3.07376276 0 0 Z " fill="#FDFDFD" transform="translate(188,284)"/>
<path d="M0 0 C4.12236237 1.54588589 5.92848757 4.20310066 8.5 7.6875 C9.38525402 8.8708888 10.27203625 10.05313557 11.16015625 11.234375 C11.85455811 12.1615332 11.85455811 12.1615332 12.56298828 13.10742188 C14.96099627 16.26565462 17.44973162 19.34981852 19.9375 22.4375 C26.13703439 30.1544584 32.25114391 37.93639212 38.35449219 45.72949219 C43.53769979 52.34563839 48.7427789 58.94245109 54 65.5 C58.03121107 70.53343498 62.05960854 75.56899885 66.0625 80.625 C66.51560547 81.19283203 66.96871094 81.76066406 67.43554688 82.34570312 C69.87946492 85.44232158 72.05423537 88.56779878 74 92 C64.73876741 99.16280141 55.41312355 106.20908092 45.8996582 113.03393555 C39.37689407 117.71504451 32.90959162 122.46855962 26.45556641 127.24389648 C24.30632253 128.83284345 22.15328529 130.41653695 20 132 C19.32888184 132.50015625 18.65776367 133.0003125 17.96630859 133.515625 C13.22545427 137 13.22545427 137 11 137 C9.75415039 135.50976562 9.75415039 135.50976562 8.34765625 133.40625 C7.56237549 132.24379761 7.56237549 132.24379761 6.76123047 131.05786133 C6.20064941 130.21376709 5.64006836 129.36967285 5.0625 128.5 C3.87914 126.7433321 2.69554262 124.98682408 1.51171875 123.23046875 C0.9192334 122.34665527 0.32674805 121.4628418 -0.28369141 120.55224609 C-2.70371341 116.95353911 -5.1620574 113.38190397 -7.625 109.8125 C-8.52360264 108.50662404 -9.42204052 107.20063468 -10.3203125 105.89453125 C-10.76149414 105.25338379 -11.20267578 104.61223633 -11.65722656 103.95166016 C-13.93908519 100.63508236 -16.21945755 97.3174829 -18.5 94 C-19.41665976 92.66666192 -20.33332642 91.33332858 -21.25 90 C-26.75 82 -26.75 82 -28.12548828 79.99926758 C-29.0404997 78.66835665 -29.95553869 77.33746466 -30.87060547 76.0065918 C-33.18782581 72.63635196 -35.50453932 69.26576567 -37.8203125 65.89453125 C-38.28526123 65.21793457 -38.75020996 64.54133789 -39.22924805 63.84423828 C-40.15054133 62.50314982 -41.07128843 61.16168596 -41.99145508 59.81982422 C-44.20694333 56.59226339 -46.43474191 53.3747164 -48.69140625 50.17578125 C-49.32344971 49.27605591 -49.32344971 49.27605591 -49.96826172 48.3581543 C-51.11468637 46.72850499 -52.2661587 45.10240996 -53.41796875 43.4765625 C-55 41 -55 41 -55 39 C-53.2613167 37.65758904 -51.45372969 36.40439544 -49.625 35.1875 C-48.42195408 34.37550697 -47.22020142 33.56159562 -46.01953125 32.74609375 C-45.36936035 32.30507324 -44.71918945 31.86405273 -44.04931641 31.40966797 C-40.42643037 28.91758506 -36.87154039 26.33206408 -33.3125 23.75 C-32.18497314 22.93354004 -32.18497314 22.93354004 -31.03466797 22.10058594 C-28.68902913 20.401422 -26.34444278 18.70081374 -24 17 C-20.75113259 14.64426548 -17.50088703 12.29044638 -14.25 9.9375 C-13.51177002 9.40157227 -12.77354004 8.86564453 -12.01293945 8.31347656 C-8.06202725 5.45380331 -4.0788197 2.67432046 0 0 Z " fill="#FDFDFD" transform="translate(309,284)"/>
</svg>
