<?xml version="1.0" encoding="UTF-8"?>
<svg version="1.1" xmlns="http://www.w3.org/2000/svg" width="669" height="671">
<path d="M0 0 C1.27101563 -0.00128906 2.54203125 -0.00257813 3.8515625 -0.00390625 C5.16640625 -0.00003906 6.48125 0.00382813 7.8359375 0.0078125 C9.17187595 0.0042474 10.50781355 0.00034416 11.84375 -0.00390625 C13.74640625 -0.00197266 13.74640625 -0.00197266 15.6875 0 C16.84330566 0.00112793 17.99911133 0.00225586 19.18994141 0.00341797 C21.7246303 0.11198311 23.80134845 0.38872904 26.2109375 1.1328125 C26.2109375 1.7928125 26.2109375 2.4528125 26.2109375 3.1328125 C27.603125 3.349375 27.603125 3.349375 29.0234375 3.5703125 C32.2109375 4.1328125 32.2109375 4.1328125 35.2109375 5.1328125 C35.2109375 5.7928125 35.2109375 6.4528125 35.2109375 7.1328125 C35.8090625 7.2771875 36.4071875 7.4215625 37.0234375 7.5703125 C40.62388651 8.49614225 42.80552548 9.26922677 45.2109375 12.1328125 C45.2109375 12.7928125 45.2109375 13.4528125 45.2109375 14.1328125 C46.17 14.2875 46.17 14.2875 47.1484375 14.4453125 C47.8290625 14.6721875 48.5096875 14.8990625 49.2109375 15.1328125 C49.7059375 16.6178125 49.7059375 16.6178125 50.2109375 18.1328125 C52.21110216 19.34163346 52.21110216 19.34163346 54.2109375 20.1328125 C54.2109375 20.7928125 54.2109375 21.4528125 54.2109375 22.1328125 C55.6959375 22.6278125 55.6959375 22.6278125 57.2109375 23.1328125 C57.7059375 24.6178125 57.7059375 24.6178125 58.2109375 26.1328125 C58.8709375 26.4628125 59.5309375 26.7928125 60.2109375 27.1328125 C60.8359375 30.1953125 60.8359375 30.1953125 61.2109375 33.1328125 C61.8709375 33.1328125 62.5309375 33.1328125 63.2109375 33.1328125 C65.49665179 41.56138393 65.49665179 41.56138393 65.2109375 46.1328125 C65.8709375 46.1328125 66.5309375 46.1328125 67.2109375 46.1328125 C67.2109375 55.7028125 67.2109375 65.2728125 67.2109375 75.1328125 C66.5509375 75.1328125 65.8909375 75.1328125 65.2109375 75.1328125 C65.15035156 75.74769531 65.08976562 76.36257813 65.02734375 76.99609375 C64.90166016 78.20845703 64.90166016 78.20845703 64.7734375 79.4453125 C64.65162109 80.64607422 64.65162109 80.64607422 64.52734375 81.87109375 C64.2109375 84.1328125 64.2109375 84.1328125 63.2109375 87.1328125 C62.5509375 87.1328125 61.8909375 87.1328125 61.2109375 87.1328125 C60.8809375 89.1128125 60.5509375 91.0928125 60.2109375 93.1328125 C59.5509375 93.1328125 58.8909375 93.1328125 58.2109375 93.1328125 C62.9848805 98.86180475 62.9848805 98.86180475 68.5234375 103.8203125 C71.2109375 106.1328125 71.2109375 106.1328125 72.2734375 108.8203125 C72.5828125 109.5834375 72.8921875 110.3465625 73.2109375 111.1328125 C73.9534375 111.4215625 74.6959375 111.7103125 75.4609375 112.0078125 C78.95207215 113.43600395 80.40251643 115.44667471 82.73828125 118.33203125 C84.73334841 120.77162266 86.9551968 122.9349113 89.2109375 125.1328125 C91.78822868 127.71010368 94.34870931 130.28042515 96.8359375 132.9453125 C99.04056041 135.47155038 99.04056041 135.47155038 102.2109375 135.1328125 C106.43690555 132.03376926 109.66400484 128.58580018 112.9140625 124.48828125 C113.34203125 124.04097656 113.77 123.59367187 114.2109375 123.1328125 C114.8709375 123.1328125 115.5309375 123.1328125 116.2109375 123.1328125 C116.5409375 122.1428125 116.8709375 121.1528125 117.2109375 120.1328125 C118.65804147 118.91592961 120.1089271 117.70284354 121.58984375 116.52734375 C124.14620328 114.32825856 126.09916937 111.75825395 128.2109375 109.1328125 C128.8296875 108.5965625 129.4484375 108.0603125 130.0859375 107.5078125 C131.45298433 106.15381514 131.45298433 106.15381514 131.0859375 104.0078125 C130.7971875 103.3890625 130.5084375 102.7703125 130.2109375 102.1328125 C129.2209375 101.8028125 128.2309375 101.4728125 127.2109375 101.1328125 C127.2109375 100.1428125 127.2109375 99.1528125 127.2109375 98.1328125 C126.2209375 97.8028125 125.2309375 97.4728125 124.2109375 97.1328125 C123.5234375 95.0703125 123.5234375 95.0703125 123.2109375 93.1328125 C122.5509375 93.1328125 121.8909375 93.1328125 121.2109375 93.1328125 C119.44631067 90.04471555 119.2109375 88.89969114 119.2109375 85.1328125 C118.5509375 85.1328125 117.8909375 85.1328125 117.2109375 85.1328125 C116.8809375 82.1628125 116.5509375 79.1928125 116.2109375 76.1328125 C115.5509375 76.1328125 114.8909375 76.1328125 114.2109375 76.1328125 C113.26328469 70.55219037 113.0594311 65.16251192 113.0859375 59.5078125 C113.08207031 58.67507813 113.07820312 57.84234375 113.07421875 56.984375 C113.08071656 52.90375264 113.18747383 49.11294898 114.2109375 45.1328125 C114.8709375 45.1328125 115.5309375 45.1328125 116.2109375 45.1328125 C116.5409375 41.8328125 116.8709375 38.5328125 117.2109375 35.1328125 C117.8709375 35.1328125 118.5309375 35.1328125 119.2109375 35.1328125 C119.33210937 34.56691406 119.45328125 34.00101563 119.578125 33.41796875 C119.82949219 32.31775391 119.82949219 32.31775391 120.0859375 31.1953125 C120.24835938 30.46441406 120.41078125 29.73351562 120.578125 28.98046875 C121.2109375 27.1328125 121.2109375 27.1328125 123.2109375 26.1328125 C124.34444284 24.11611423 124.34444284 24.11611423 125.2109375 22.1328125 C125.8709375 22.1328125 126.5309375 22.1328125 127.2109375 22.1328125 C127.8709375 20.8128125 128.5309375 19.4928125 129.2109375 18.1328125 C129.8709375 18.1328125 130.5309375 18.1328125 131.2109375 18.1328125 C131.5409375 17.1428125 131.8709375 16.1528125 132.2109375 15.1328125 C134.0859375 12.9453125 134.0859375 12.9453125 136.2109375 11.1328125 C137.2009375 11.1328125 138.1909375 11.1328125 139.2109375 11.1328125 C139.5409375 10.1428125 139.8709375 9.1528125 140.2109375 8.1328125 C142.1909375 7.8028125 144.1709375 7.4728125 146.2109375 7.1328125 C146.2109375 6.4728125 146.2109375 5.8128125 146.2109375 5.1328125 C149.58191133 3.63460191 151.41535869 3.1328125 155.2109375 3.1328125 C155.2109375 2.4728125 155.2109375 1.8128125 155.2109375 1.1328125 C162.21983353 -0.1852784 169.22526304 -0.01411147 176.3359375 0.0078125 C178.22892578 0.00201172 178.22892578 0.00201172 180.16015625 -0.00390625 C181.37574219 -0.00261719 182.59132813 -0.00132812 183.84375 0 C184.94605957 0.00112793 186.04836914 0.00225586 187.18408203 0.00341797 C189.97479047 0.12271749 192.49634111 0.49783025 195.2109375 1.1328125 C195.2109375 1.7928125 195.2109375 2.4528125 195.2109375 3.1328125 C196.1596875 3.2771875 197.1084375 3.4215625 198.0859375 3.5703125 C201.2109375 4.1328125 201.2109375 4.1328125 203.2109375 5.1328125 C203.2109375 5.7928125 203.2109375 6.4528125 203.2109375 7.1328125 C204.1596875 7.2359375 205.1084375 7.3390625 206.0859375 7.4453125 C209.2109375 8.1328125 209.2109375 8.1328125 211.2109375 11.1328125 C212.2009375 11.4628125 213.1909375 11.7928125 214.2109375 12.1328125 C214.2109375 12.7928125 214.2109375 13.4528125 214.2109375 14.1328125 C216.1909375 15.1228125 216.1909375 15.1228125 218.2109375 16.1328125 C218.2109375 16.7928125 218.2109375 17.4528125 218.2109375 18.1328125 C220.1909375 19.1228125 220.1909375 19.1228125 222.2109375 20.1328125 C222.2109375 20.7928125 222.2109375 21.4528125 222.2109375 22.1328125 C223.2009375 22.4628125 224.1909375 22.7928125 225.2109375 23.1328125 C225.5409375 25.1128125 225.8709375 27.0928125 226.2109375 29.1328125 C227.2009375 29.4628125 228.1909375 29.7928125 229.2109375 30.1328125 C229.2109375 31.1228125 229.2109375 32.1128125 229.2109375 33.1328125 C229.8709375 33.1328125 230.5309375 33.1328125 231.2109375 33.1328125 C233.49665179 41.56138393 233.49665179 41.56138393 233.2109375 46.1328125 C233.8709375 46.1328125 234.5309375 46.1328125 235.2109375 46.1328125 C235.2109375 56.0328125 235.2109375 65.9328125 235.2109375 76.1328125 C234.5509375 76.1328125 233.8909375 76.1328125 233.2109375 76.1328125 C233.15035156 76.75929688 233.08976562 77.38578125 233.02734375 78.03125 C232.94355469 78.84851563 232.85976563 79.66578125 232.7734375 80.5078125 C232.69222656 81.31992187 232.61101562 82.13203125 232.52734375 82.96875 C232.2109375 85.1328125 232.2109375 85.1328125 231.2109375 87.1328125 C230.5509375 87.1328125 229.8909375 87.1328125 229.2109375 87.1328125 C229.0871875 88.1021875 228.9634375 89.0715625 228.8359375 90.0703125 C228.5265625 91.58625 228.5265625 91.58625 228.2109375 93.1328125 C227.5509375 93.4628125 226.8909375 93.7928125 226.2109375 94.1328125 C225.07743216 96.14951077 225.07743216 96.14951077 224.2109375 98.1328125 C223.5509375 98.1328125 222.8909375 98.1328125 222.2109375 98.1328125 C221.5509375 99.4528125 220.8909375 100.7728125 220.2109375 102.1328125 C219.5509375 102.1328125 218.8909375 102.1328125 218.2109375 102.1328125 C217.5509375 103.4528125 216.8909375 104.7728125 216.2109375 106.1328125 C215.5509375 106.1328125 214.8909375 106.1328125 214.2109375 106.1328125 C213.8809375 107.1228125 213.5509375 108.1128125 213.2109375 109.1328125 C212.5509375 109.1328125 211.8909375 109.1328125 211.2109375 109.1328125 C211.2109375 109.7928125 211.2109375 110.4528125 211.2109375 111.1328125 C209.2309375 111.7928125 207.2509375 112.4528125 205.2109375 113.1328125 C205.2109375 113.7928125 205.2109375 114.4528125 205.2109375 115.1328125 C202.2409375 115.7928125 199.2709375 116.4528125 196.2109375 117.1328125 C196.2109375 117.7928125 196.2109375 118.4528125 196.2109375 119.1328125 C188.59904955 120.7664565 181.36339651 121.44519853 173.5859375 121.3828125 C172.61398437 121.39054687 171.64203125 121.39828125 170.640625 121.40625 C164.53106729 121.38982646 159.1255314 120.66938741 153.2109375 119.1328125 C153.2109375 118.4728125 153.2109375 117.8128125 153.2109375 117.1328125 C150.42254446 116.63015558 150.42254446 116.63015558 147.2109375 117.1328125 C144.83734981 119.57845838 144.83734981 119.57845838 143.4921875 121.48828125 C141.44840383 124.11155237 138.75839338 126.0099326 136.2109375 128.1328125 C135.3859375 129.1228125 134.5609375 130.1128125 133.7109375 131.1328125 C131.2109375 134.1328125 131.2109375 134.1328125 128.2734375 136.5703125 C125.28028808 139.07478446 122.94966212 141.66019604 120.5078125 144.6796875 C119.2109375 146.1328125 119.2109375 146.1328125 117.2109375 147.1328125 C116.70828058 149.92120554 116.70828058 149.92120554 117.2109375 153.1328125 C119.60296635 155.4479792 119.60296635 155.4479792 121.4765625 156.7734375 C124.47285147 159.12188021 127.00824031 162.03185227 129.2109375 165.1328125 C129.2109375 165.7928125 129.2109375 166.4528125 129.2109375 167.1328125 C129.9328125 167.3390625 130.6546875 167.5453125 131.3984375 167.7578125 C134.18837343 169.12178118 134.9697377 169.88275438 136.7734375 172.2578125 C137.5778125 173.2065625 138.3821875 174.1553125 139.2109375 175.1328125 C140.5309375 175.1328125 141.8509375 175.1328125 143.2109375 175.1328125 C143.2109375 174.4728125 143.2109375 173.8128125 143.2109375 173.1328125 C146.5109375 172.4728125 149.8109375 171.8128125 153.2109375 171.1328125 C153.2109375 170.4728125 153.2109375 169.8128125 153.2109375 169.1328125 C166.64708742 165.60857645 182.77478758 165.60857645 196.2109375 169.1328125 C196.2109375 169.7928125 196.2109375 170.4528125 196.2109375 171.1328125 C197.850625 171.349375 197.850625 171.349375 199.5234375 171.5703125 C203.2109375 172.1328125 203.2109375 172.1328125 206.2109375 173.1328125 C206.5409375 173.7928125 206.8709375 174.4528125 207.2109375 175.1328125 C209.22763577 176.26631784 209.22763577 176.26631784 211.2109375 177.1328125 C211.2109375 177.7928125 211.2109375 178.4528125 211.2109375 179.1328125 C212.2009375 179.4628125 213.1909375 179.7928125 214.2109375 180.1328125 C214.2109375 180.7928125 214.2109375 181.4528125 214.2109375 182.1328125 C215.5309375 182.7928125 216.8509375 183.4528125 218.2109375 184.1328125 C218.2109375 184.7928125 218.2109375 185.4528125 218.2109375 186.1328125 C219.5309375 186.7928125 220.8509375 187.4528125 222.2109375 188.1328125 C222.2109375 188.7928125 222.2109375 189.4528125 222.2109375 190.1328125 C223.2009375 190.4628125 224.1909375 190.7928125 225.2109375 191.1328125 C225.5409375 192.1228125 225.8709375 193.1128125 226.2109375 194.1328125 C226.8709375 194.4628125 227.5309375 194.7928125 228.2109375 195.1328125 C228.8359375 198.1953125 228.8359375 198.1953125 229.2109375 201.1328125 C229.8709375 201.1328125 230.5309375 201.1328125 231.2109375 201.1328125 C233.01323918 204.96270356 233.40715991 207.91403058 233.2109375 212.1328125 C233.8709375 212.1328125 234.5309375 212.1328125 235.2109375 212.1328125 C235.2109375 222.3628125 235.2109375 232.5928125 235.2109375 243.1328125 C234.5509375 243.1328125 233.8909375 243.1328125 233.2109375 243.1328125 C233.0665625 244.3909375 232.9221875 245.6490625 232.7734375 246.9453125 C232.47345064 249.55948373 232.05280453 251.60721142 231.2109375 254.1328125 C230.5509375 254.1328125 229.8909375 254.1328125 229.2109375 254.1328125 C228.8809375 255.7828125 228.5509375 257.4328125 228.2109375 259.1328125 C227.5509375 259.1328125 226.8909375 259.1328125 226.2109375 259.1328125 C226.0665625 259.9165625 225.9221875 260.7003125 225.7734375 261.5078125 C225.2109375 264.1328125 225.2109375 264.1328125 224.2109375 266.1328125 C223.5509375 266.1328125 222.8909375 266.1328125 222.2109375 266.1328125 C221.5509375 267.4528125 220.8909375 268.7728125 220.2109375 270.1328125 C219.5509375 270.1328125 218.8909375 270.1328125 218.2109375 270.1328125 C217.5509375 271.4528125 216.8909375 272.7728125 216.2109375 274.1328125 C215.5509375 274.1328125 214.8909375 274.1328125 214.2109375 274.1328125 C214.2109375 274.7928125 214.2109375 275.4528125 214.2109375 276.1328125 C213.2209375 276.4628125 212.2309375 276.7928125 211.2109375 277.1328125 C210.5509375 278.1228125 209.8909375 279.1128125 209.2109375 280.1328125 C206.0859375 280.8203125 206.0859375 280.8203125 203.2109375 281.1328125 C203.2109375 281.7928125 203.2109375 282.4528125 203.2109375 283.1328125 C199.83996367 284.63102309 198.00651631 285.1328125 194.2109375 285.1328125 C194.2109375 285.7928125 194.2109375 286.4528125 194.2109375 287.1328125 C190.45882673 288.32548155 186.8774814 288.26221168 182.9609375 288.265625 C182.26581055 288.26658173 181.57068359 288.26753845 180.85449219 288.26852417 C179.38867095 288.26920294 177.92284667 288.2673698 176.45703125 288.26318359 C174.21868105 288.25783102 171.98053149 288.26313879 169.7421875 288.26953125 C168.31510373 288.26887041 166.88802008 288.26758914 165.4609375 288.265625 C164.16671875 288.26449707 162.8725 288.26336914 161.5390625 288.26220703 C158.87276714 288.15854385 156.73295374 287.93447612 154.2109375 287.1328125 C154.2109375 286.4728125 154.2109375 285.8128125 154.2109375 285.1328125 C151.2409375 284.4728125 148.2709375 283.8128125 145.2109375 283.1328125 C145.2109375 282.4728125 145.2109375 281.8128125 145.2109375 281.1328125 C143.2309375 280.4728125 141.2509375 279.8128125 139.2109375 279.1328125 C139.2109375 278.4728125 139.2109375 277.8128125 139.2109375 277.1328125 C138.6334375 277.0503125 138.0559375 276.9678125 137.4609375 276.8828125 C134.5570039 275.91483463 133.17353146 274.44586966 131.2109375 272.1328125 C131.2109375 271.4728125 131.2109375 270.8128125 131.2109375 270.1328125 C129.8909375 269.4728125 128.5709375 268.8128125 127.2109375 268.1328125 C127.2109375 267.4728125 127.2109375 266.8128125 127.2109375 266.1328125 C126.2209375 265.8028125 125.2309375 265.4728125 124.2109375 265.1328125 C123.8809375 263.1528125 123.5509375 261.1728125 123.2109375 259.1328125 C122.2209375 258.8028125 121.2309375 258.4728125 120.2109375 258.1328125 C119.8809375 255.8228125 119.5509375 253.5128125 119.2109375 251.1328125 C118.5509375 251.1328125 117.8909375 251.1328125 117.2109375 251.1328125 C112.10883618 238.44589092 112.01709578 225.50989617 114.2109375 212.1328125 C114.8709375 212.1328125 115.5309375 212.1328125 116.2109375 212.1328125 C116.5409375 209.1628125 116.8709375 206.1928125 117.2109375 203.1328125 C117.8709375 203.1328125 118.5309375 203.1328125 119.2109375 203.1328125 C120.2009375 199.1728125 120.2009375 199.1728125 121.2109375 195.1328125 C121.8709375 195.1328125 122.5309375 195.1328125 123.2109375 195.1328125 C123.8709375 193.4828125 124.5309375 191.8328125 125.2109375 190.1328125 C125.8709375 190.1328125 126.5309375 190.1328125 127.2109375 190.1328125 C127.2109375 189.4728125 127.2109375 188.8128125 127.2109375 188.1328125 C125.8909375 187.4728125 124.5709375 186.8128125 123.2109375 186.1328125 C123.2109375 185.4728125 123.2109375 184.8128125 123.2109375 184.1328125 C121.8909375 183.4728125 120.5709375 182.8128125 119.2109375 182.1328125 C119.2109375 181.4728125 119.2109375 180.8128125 119.2109375 180.1328125 C118.2209375 179.8028125 117.2309375 179.4728125 116.2109375 179.1328125 C116.2109375 178.4728125 116.2109375 177.8128125 116.2109375 177.1328125 C114.8909375 176.4728125 113.5709375 175.8128125 112.2109375 175.1328125 C112.2109375 174.4728125 112.2109375 173.8128125 112.2109375 173.1328125 C110.8909375 172.4728125 109.5709375 171.8128125 108.2109375 171.1328125 C108.2109375 170.4728125 108.2109375 169.8128125 108.2109375 169.1328125 C106.8909375 168.4728125 105.5709375 167.8128125 104.2109375 167.1328125 C104.2109375 166.4728125 104.2109375 165.8128125 104.2109375 165.1328125 C101.96869092 164.54317572 101.96869092 164.54317572 99.2109375 165.1328125 C97.53502706 166.72335485 96.17412668 168.44712478 94.75 170.265625 C92.55363539 172.93025009 89.86303014 174.93213989 87.2109375 177.1328125 C86.3859375 178.1228125 85.5609375 179.1128125 84.7109375 180.1328125 C82.07020969 183.30168587 79.41554787 185.55519112 76.2109375 188.1328125 C73.82322887 190.26469521 72.52226724 192.20753847 71.2109375 195.1328125 C70.5509375 195.1328125 69.8909375 195.1328125 69.2109375 195.1328125 C69.2109375 196.1228125 69.2109375 197.1128125 69.2109375 198.1328125 C69.8709375 198.1328125 70.5309375 198.1328125 71.2109375 198.1328125 C72.81448851 201.64058034 73.43130614 204.27636129 73.2109375 208.1328125 C73.8709375 208.1328125 74.5309375 208.1328125 75.2109375 208.1328125 C76.14080086 212.07388181 76.33980658 215.74424115 76.34375 219.7890625 C76.34503906 221.05878906 76.34632813 222.32851563 76.34765625 223.63671875 C76.34378906 224.95542969 76.33992187 226.27414062 76.3359375 227.6328125 C76.33980469 228.95152344 76.34367188 230.27023437 76.34765625 231.62890625 C76.34572266 233.53349609 76.34572266 233.53349609 76.34375 235.4765625 C76.34262207 236.63349609 76.34149414 237.79042969 76.34033203 238.98242188 C76.22370237 241.82202405 75.86211326 244.37291367 75.2109375 247.1328125 C74.5509375 247.1328125 73.8909375 247.1328125 73.2109375 247.1328125 C72.994375 248.7725 72.994375 248.7725 72.7734375 250.4453125 C72.2109375 254.1328125 72.2109375 254.1328125 71.2109375 257.1328125 C70.5509375 257.1328125 69.8909375 257.1328125 69.2109375 257.1328125 C68.9325 258.339375 68.9325 258.339375 68.6484375 259.5703125 C65.48469343 267.41089564 60.14552098 272.5559874 53.2109375 277.1328125 C52.8809375 277.7928125 52.5509375 278.4528125 52.2109375 279.1328125 C49.8968753 279.86356898 47.56264881 280.53419508 45.2109375 281.1328125 C45.2109375 281.7928125 45.2109375 282.4528125 45.2109375 283.1328125 C41.59120348 284.44907942 39.11526619 285.1328125 35.2109375 285.1328125 C35.2109375 285.7928125 35.2109375 286.4528125 35.2109375 287.1328125 C31.52192261 288.2951523 28.02955037 288.26215755 24.1796875 288.265625 C23.50675659 288.26658173 22.83382568 288.26753845 22.14050293 288.26852417 C20.72176011 288.26920282 19.30301414 288.26737056 17.88427734 288.26318359 C15.71835322 288.25783083 13.55263646 288.26313921 11.38671875 288.26953125 C10.00520788 288.26887041 8.62369713 288.26758913 7.2421875 288.265625 C5.98986328 288.26449707 4.73753906 288.26336914 3.44726562 288.26220703 C0.82020284 288.15717208 -1.30031303 287.91697105 -3.7890625 287.1328125 C-3.7890625 286.4728125 -3.7890625 285.8128125 -3.7890625 285.1328125 C-4.8821875 284.9884375 -5.9753125 284.8440625 -7.1015625 284.6953125 C-10.7890625 284.1328125 -10.7890625 284.1328125 -13.7890625 283.1328125 C-13.7890625 282.4728125 -13.7890625 281.8128125 -13.7890625 281.1328125 C-14.3871875 280.9884375 -14.9853125 280.8440625 -15.6015625 280.6953125 C-20.41091354 279.45862223 -22.32894444 277.67339842 -25.7890625 274.1328125 C-26.84313396 273.2682662 -27.90568626 272.41395403 -28.9765625 271.5703125 C-31.48597006 269.39549262 -32.75980784 268.22057649 -33.7890625 265.1328125 C-33.7890625 264.1428125 -33.7890625 263.1528125 -33.7890625 262.1328125 C-34.7790625 261.8028125 -35.7690625 261.4728125 -36.7890625 261.1328125 C-36.7890625 260.1428125 -36.7890625 259.1528125 -36.7890625 258.1328125 C-37.4490625 258.1328125 -38.1090625 258.1328125 -38.7890625 258.1328125 C-39.60596427 255.90517262 -40.41768122 253.6758639 -41.2265625 251.4453125 C-41.45666016 250.81947266 -41.68675781 250.19363281 -41.92382812 249.54882812 C-44.58889035 242.1716269 -44.97160193 235.71852422 -44.9765625 227.9453125 C-44.98880859 226.95466797 -45.00105469 225.96402344 -45.01367188 224.94335938 C-45.02646824 218.43854151 -44.32598377 212.45378219 -42.7890625 206.1328125 C-42.1290625 206.1328125 -41.4690625 206.1328125 -40.7890625 206.1328125 C-40.4590625 203.8228125 -40.1290625 201.5128125 -39.7890625 199.1328125 C-38.7990625 198.8028125 -37.8090625 198.4728125 -36.7890625 198.1328125 C-36.4590625 196.4828125 -36.1290625 194.8328125 -35.7890625 193.1328125 C-35.1290625 193.1328125 -34.4690625 193.1328125 -33.7890625 193.1328125 C-33.1290625 191.4828125 -32.4690625 189.8328125 -31.7890625 188.1328125 C-31.1290625 188.1328125 -30.4690625 188.1328125 -29.7890625 188.1328125 C-29.5209375 187.3696875 -29.2528125 186.6065625 -28.9765625 185.8203125 C-26.95797536 181.25193108 -24.04497513 179.57996226 -19.7890625 177.1328125 C-18.7990625 176.4728125 -17.8090625 175.8128125 -16.7890625 175.1328125 C-15.7990625 175.1328125 -14.8090625 175.1328125 -13.7890625 175.1328125 C-13.4590625 174.1428125 -13.1290625 173.1528125 -12.7890625 172.1328125 C-10.4790625 171.8028125 -8.1690625 171.4728125 -5.7890625 171.1328125 C-5.7890625 170.4728125 -5.7890625 169.8128125 -5.7890625 169.1328125 C1.4276445 167.39993441 8.23902483 166.82333895 15.6484375 166.8828125 C16.60814453 166.87507812 17.56785156 166.86734375 18.55664062 166.859375 C25.29705414 166.877531 31.62443703 167.72078774 38.2109375 169.1328125 C38.2109375 169.7928125 38.2109375 170.4528125 38.2109375 171.1328125 C38.9740625 171.2771875 39.7371875 171.4215625 40.5234375 171.5703125 C43.2109375 172.1328125 43.2109375 172.1328125 46.2109375 173.1328125 C46.2109375 173.7928125 46.2109375 174.4528125 46.2109375 175.1328125 C47.665 175.3184375 47.665 175.3184375 49.1484375 175.5078125 C50.1590625 175.7140625 51.1696875 175.9203125 52.2109375 176.1328125 C52.5409375 176.7928125 52.8709375 177.4528125 53.2109375 178.1328125 C55.53250347 178.54010478 57.8678162 178.87719927 60.2109375 179.1328125 C60.5409375 178.1428125 60.8709375 177.1528125 61.2109375 176.1328125 C62.66161644 174.91292339 64.116331 173.69710766 65.6015625 172.51953125 C67.47733495 170.97996402 67.47733495 170.97996402 69.7109375 168.1328125 C72.2109375 165.1328125 72.2109375 165.1328125 75.1484375 162.6953125 C78.14158692 160.19084054 80.47221288 157.60542896 82.9140625 154.5859375 C84.2109375 153.1328125 84.2109375 153.1328125 86.2109375 152.1328125 C86.2109375 150.4828125 86.2109375 148.8328125 86.2109375 147.1328125 C84.8909375 146.4728125 83.5709375 145.8128125 82.2109375 145.1328125 C82.2109375 144.4728125 82.2109375 143.8128125 82.2109375 143.1328125 C80.8909375 142.4728125 79.5709375 141.8128125 78.2109375 141.1328125 C78.2109375 140.4728125 78.2109375 139.8128125 78.2109375 139.1328125 C77.2209375 138.8028125 76.2309375 138.4728125 75.2109375 138.1328125 C75.2109375 137.4728125 75.2109375 136.8128125 75.2109375 136.1328125 C73.2309375 135.1428125 73.2309375 135.1428125 71.2109375 134.1328125 C71.2109375 133.4728125 71.2109375 132.8128125 71.2109375 132.1328125 C69.2309375 131.1428125 69.2309375 131.1428125 67.2109375 130.1328125 C67.2109375 129.4728125 67.2109375 128.8128125 67.2109375 128.1328125 C65.2309375 127.1428125 65.2309375 127.1428125 63.2109375 126.1328125 C63.2109375 125.4728125 63.2109375 124.8128125 63.2109375 124.1328125 C61.7259375 123.6378125 61.7259375 123.6378125 60.2109375 123.1328125 C60.2109375 122.4728125 60.2109375 121.8128125 60.2109375 121.1328125 C58.2309375 120.1428125 58.2309375 120.1428125 56.2109375 119.1328125 C56.2109375 118.4728125 56.2109375 117.8128125 56.2109375 117.1328125 C54.2309375 116.1428125 54.2309375 116.1428125 52.2109375 115.1328125 C52.2109375 114.4728125 52.2109375 113.8128125 52.2109375 113.1328125 C50.2309375 112.1428125 50.2309375 112.1428125 48.2109375 111.1328125 C48.2109375 110.4728125 48.2109375 109.8128125 48.2109375 109.1328125 C46.5609375 109.1328125 44.9109375 109.1328125 43.2109375 109.1328125 C42.7159375 110.6178125 42.7159375 110.6178125 42.2109375 112.1328125 C40.7259375 112.6278125 40.7259375 112.6278125 39.2109375 113.1328125 C38.8809375 113.7928125 38.5509375 114.4528125 38.2109375 115.1328125 C35.92578125 115.765625 35.92578125 115.765625 33.1484375 116.2578125 C32.22933594 116.42539062 31.31023437 116.59296875 30.36328125 116.765625 C29.65300781 116.88679688 28.94273437 117.00796875 28.2109375 117.1328125 C28.2109375 117.7928125 28.2109375 118.4528125 28.2109375 119.1328125 C14.77478758 122.65704855 -1.35291258 122.65704855 -14.7890625 119.1328125 C-14.7890625 118.4728125 -14.7890625 117.8128125 -14.7890625 117.1328125 C-16.2121875 116.91625 -16.2121875 116.91625 -17.6640625 116.6953125 C-20.7890625 116.1328125 -20.7890625 116.1328125 -22.7890625 115.1328125 C-22.7890625 114.4728125 -22.7890625 113.8128125 -22.7890625 113.1328125 C-24.7690625 112.8028125 -26.7490625 112.4728125 -28.7890625 112.1328125 C-29.1190625 111.1428125 -29.4490625 110.1528125 -29.7890625 109.1328125 C-31.80414608 108.39957454 -31.80414608 108.39957454 -33.7890625 108.1328125 C-33.7890625 107.4728125 -33.7890625 106.8128125 -33.7890625 106.1328125 C-34.3871875 105.8646875 -34.9853125 105.5965625 -35.6015625 105.3203125 C-37.80725283 104.12293775 -39.22489437 103.08802266 -40.7890625 101.1328125 C-40.7890625 100.1428125 -40.7890625 99.1528125 -40.7890625 98.1328125 C-41.7790625 97.8028125 -42.7690625 97.4728125 -43.7890625 97.1328125 C-44.4765625 95.0703125 -44.4765625 95.0703125 -44.7890625 93.1328125 C-45.4490625 93.1328125 -46.1090625 93.1328125 -46.7890625 93.1328125 C-47.4490625 90.4928125 -48.1090625 87.8528125 -48.7890625 85.1328125 C-49.4490625 85.1328125 -50.1090625 85.1328125 -50.7890625 85.1328125 C-56.15808223 72.64504786 -56.72954056 57.3686634 -53.7890625 44.1328125 C-53.1290625 44.1328125 -52.4690625 44.1328125 -51.7890625 44.1328125 C-51.4590625 41.1628125 -51.1290625 38.1928125 -50.7890625 35.1328125 C-50.1290625 35.1328125 -49.4690625 35.1328125 -48.7890625 35.1328125 C-48.66789063 34.56691406 -48.54671875 34.00101563 -48.421875 33.41796875 C-48.25429687 32.68449219 -48.08671875 31.95101562 -47.9140625 31.1953125 C-47.75164062 30.46441406 -47.58921875 29.73351562 -47.421875 28.98046875 C-46.7890625 27.1328125 -46.7890625 27.1328125 -44.7890625 26.1328125 C-43.65555716 24.11611423 -43.65555716 24.11611423 -42.7890625 22.1328125 C-42.1290625 22.1328125 -41.4690625 22.1328125 -40.7890625 22.1328125 C-40.3559375 21.235625 -40.3559375 21.235625 -39.9140625 20.3203125 C-37.34078664 15.31672055 -37.34078664 15.31672055 -33.7890625 14.1328125 C-33.1290625 13.1428125 -32.4690625 12.1528125 -31.7890625 11.1328125 C-31.1290625 11.1328125 -30.4690625 11.1328125 -29.7890625 11.1328125 C-29.7890625 10.4728125 -29.7890625 9.8128125 -29.7890625 9.1328125 C-27.14167334 7.672184 -25.89457916 7.1328125 -22.7890625 7.1328125 C-22.7890625 6.4728125 -22.7890625 5.8128125 -22.7890625 5.1328125 C-19.16932848 3.81654558 -16.69339119 3.1328125 -12.7890625 3.1328125 C-12.7890625 2.4728125 -12.7890625 1.8128125 -12.7890625 1.1328125 C-8.47285913 0.30884723 -4.39164708 0.00427738 0 0 Z " fill="#F6F6F6" transform="translate(258.7890625,198.8671875)"/>
<path d="M0 0 C38.28 0 76.56 0 116 0 C116.89623608 5.37741648 117.30603901 10.56760963 117.51757812 15.99023438 C117.75149351 20.59351256 118.61701863 24.61352093 120 29 C120.32094463 30.33132587 120.63524203 31.66430762 120.9375 33 C121.60448896 35.74799451 122.4681232 38.23261042 123.625 40.8125 C125 44 125 44 125 47 C125.66 47 126.32 47 127 47 C127.66 49.31 128.32 51.62 129 54 C129.66 54 130.32 54 131 54 C131.33 54.99 131.66 55.98 132 57 C132.680625 57.680625 133.36125 58.36125 134.0625 59.0625 C134.701875 59.701875 135.34125 60.34125 136 61 C136 61.66 136 62.32 136 63 C136.66 63 137.32 63 138 63 C139.5078125 64.4609375 139.5078125 64.4609375 141.125 66.375 C141.66382813 67.00148438 142.20265625 67.62796875 142.7578125 68.2734375 C144 70 144 70 144 72 C145.65 72.33 147.3 72.66 149 73 C149.33 73.99 149.66 74.98 150 76 C150.66 76.165 151.32 76.33 152 76.5 C152.66 76.665 153.32 76.83 154 77 C154.33 77.99 154.66 78.98 155 80 C155.825 80.0825 156.65 80.165 157.5 80.25 C161.76753921 81.16447269 165.19236894 82.92223178 169 85 C169 85.66 169 86.32 169 87 C172.96 87.66 176.92 88.32 181 89 C181 89.66 181 90.32 181 91 C181.70125 90.98839844 182.4025 90.97679687 183.125 90.96484375 C184.07375 90.95582031 185.0225 90.94679688 186 90.9375 C186.928125 90.92589844 187.85625 90.91429687 188.8125 90.90234375 C191.33422289 90.97960242 193.7051668 91.18201133 196.19921875 91.50610352 C197.45347656 91.66908936 198.70773437 91.8320752 200 92 C199.89240229 105.56945424 199.77974934 119.13885622 199.66066074 132.70821476 C199.60552035 139.00915373 199.55211466 145.31009742 199.50268555 151.61108398 C199.45491084 157.69301242 199.40256352 163.77488595 199.34705925 169.85674858 C199.32669501 172.17592436 199.30797232 174.49511516 199.29092598 176.8143177 C199.2667504 180.06515039 199.23671416 183.31588048 199.20532227 186.56665039 C199.1995668 187.523311 199.19381134 188.47997162 199.18788147 189.46562195 C199.13386488 194.39396864 199.01668172 199.16640941 198 204 C197.34 204.33 196.68 204.66 196 205 C195.27840576 206.64363134 194.60648579 208.31050386 194 210 C193.34 210 192.68 210 192 210 C191.731875 210.763125 191.46375 211.52625 191.1875 212.3125 C189.37906716 216.40526905 187.12935212 218.3224507 183 220 C182.01 220 181.02 220 180 220 C179.67 220.99 179.34 221.98 179 223 C176.03 223 173.06 223 170 223 C170 223.66 170 224.32 170 225 C114.23 225 58.46 225 1 225 C1 224.34 1 223.68 1 223 C-1.64 222.67 -4.28 222.34 -7 222 C-7 221.34 -7 220.68 -7 220 C-7.845625 219.835 -8.69125 219.67 -9.5625 219.5 C-15.28653799 217.00223797 -18.59581516 212.10627726 -22 207 C-22 206.01 -22 205.02 -22 204 C-22.99 203.67 -23.98 203.34 -25 203 C-25.17725711 180.0084993 -25.34292922 157.01694119 -25.49477577 134.02525806 C-25.56554998 123.35004295 -25.64012791 112.67487961 -25.72363281 101.99975586 C-25.79639834 92.69630513 -25.8620552 83.39283617 -25.91914403 74.08927554 C-25.94962662 69.1622361 -25.98369026 64.23527966 -26.02626419 59.30832863 C-26.06621652 54.67177653 -26.09666993 50.03525944 -26.11981392 45.3985939 C-26.12999039 43.696196 -26.1436482 41.99381482 -26.16103554 40.2914753 C-26.18424878 37.96788638 -26.19495562 35.64456196 -26.20254517 33.32087708 C-26.2117631 32.02022717 -26.22098103 30.71957727 -26.23047829 29.37951374 C-26.0087583 26.12842337 -25.40823316 23.91311638 -24 21 C-23.34 21 -22.68 21 -22 21 C-21.67 19.68 -21.34 18.36 -21 17 C-20.34 17 -19.68 17 -19 17 C-18.938125 16.46375 -18.87625 15.9275 -18.8125 15.375 C-17.24377718 10.78950253 -13.95930654 7.63953769 -10 5 C-9.01 5 -8.02 5 -7 5 C-7 4.34 -7 3.68 -7 3 C-3.535 2.505 -3.535 2.505 0 2 C0 1.34 0 0.68 0 0 Z " fill="#FCFCFC" transform="translate(76,417)"/>
<path d="M0 0 C55.77 0 111.54 0 169 0 C169 0.66 169 1.32 169 2 C169.93972656 1.98259766 169.93972656 1.98259766 170.8984375 1.96484375 C171.71570313 1.95582031 172.53296875 1.94679687 173.375 1.9375 C174.18710938 1.92589844 174.99921875 1.91429687 175.8359375 1.90234375 C178 2 178 2 180 3 C180 3.66 180 4.32 180 5 C180.886875 5.20625 181.77375 5.4125 182.6875 5.625 C186.93505975 7.38813801 188.23131366 9.38532617 191 13 C191.99 13.495 191.99 13.495 193 14 C194.57548683 16.62581138 195 17.87099787 195 21 C195.66 21 196.32 21 197 21 C197.99835098 26.83622719 198.16974164 32.51921432 198.20532227 38.43334961 C198.21522186 39.4584967 198.22512146 40.4836438 198.23532104 41.53985596 C198.26677646 44.91066215 198.29163012 48.28148241 198.31640625 51.65234375 C198.33698957 53.99646866 198.3579864 56.34058998 198.37937927 58.68470764 C198.43445763 64.84132974 198.4839295 70.99798455 198.53222656 77.15466309 C198.58254576 83.44233089 198.63817735 89.72995145 198.69335938 96.01757812 C198.80076674 108.34501169 198.90225014 120.67248634 199 133 C197.91114502 133.07516846 197.91114502 133.07516846 196.80029297 133.15185547 C193.49123877 133.38485769 190.18317287 133.62981462 186.875 133.875 C185.73289062 133.95363281 184.59078125 134.03226563 183.4140625 134.11328125 C182.30546875 134.19707031 181.196875 134.28085938 180.0546875 134.3671875 C179.03874512 134.44050293 178.02280273 134.51381836 176.97607422 134.58935547 C173.7936223 135.0284764 171.02026683 135.92361697 168 137 C165.33298505 137.47274847 162.69816424 137.72087956 160 138 C160 138.66 160 139.32 160 140 C157.69 140.33 155.38 140.66 153 141 C153 141.66 153 142.32 153 143 C150.35261084 144.4606285 149.10551666 145 146 145 C146 145.66 146 146.32 146 147 C145.0409375 147.433125 145.0409375 147.433125 144.0625 147.875 C141.84793921 148.82823451 141.84793921 148.82823451 141 151 C140.030625 151.28875 139.06125 151.5775 138.0625 151.875 C134.92863696 152.66698162 134.92863696 152.66698162 133.8125 154.9375 C133.544375 155.618125 133.27625 156.29875 133 157 C131.5 158.75 131.5 158.75 130 160 C129.34 160 128.68 160 128 160 C127.34 161.32 126.68 162.64 126 164 C125.34 164 124.68 164 124 164 C123.855625 164.61875 123.71125 165.2375 123.5625 165.875 C123 168 123 168 122 170 C121.34 170 120.68 170 120 170 C119.81630859 170.85851562 119.81630859 170.85851562 119.62890625 171.734375 C118.97237132 174.09953191 118.06276488 176.07206797 116.9375 178.25 C116.57527344 178.95640625 116.21304688 179.6628125 115.83984375 180.390625 C115.56269531 180.92171875 115.28554687 181.4528125 115 182 C114.34 182 113.68 182 113 182 C112.34 185.96 111.68 189.92 111 194 C110.34 194 109.68 194 109 194 C108.98018066 194.69037354 108.96036133 195.38074707 108.93994141 196.09204102 C108.84411707 199.24921471 108.73467186 202.40577822 108.625 205.5625 C108.5940625 206.64853516 108.563125 207.73457031 108.53125 208.85351562 C108.47324219 210.44389648 108.47324219 210.44389648 108.4140625 212.06640625 C108.3826416 213.03521729 108.3512207 214.00402832 108.31884766 215.00219727 C107.94780524 218.49073468 106.99370978 221.64126712 106 225 C92.16986545 225.07017576 78.33975862 225.1228304 64.50948238 225.15543652 C58.0873948 225.17108649 51.66542691 225.19231295 45.2434082 225.22631836 C39.04479866 225.25893506 32.84630418 225.27685804 26.64761543 225.28463173 C24.28374991 225.29017104 21.91989063 225.30098793 19.55607414 225.31719017 C16.24289253 225.33899466 12.93018528 225.34196559 9.61694336 225.34057617 C8.64158127 225.351362 7.66621918 225.36214783 6.66130066 225.3732605 C0.99300555 225.3475708 -2.95705206 224.62902615 -8 222 C-8 221.34 -8 220.68 -8 220 C-8.598125 219.855625 -9.19625 219.71125 -9.8125 219.5625 C-13.43283 218.631558 -15.66030739 217.95004721 -18 215 C-19.1875 211.8125 -19.1875 211.8125 -20 209 C-20.66 209 -21.32 209 -22 209 C-22.33 207.35 -22.66 205.7 -23 204 C-23.66 204 -24.32 204 -25 204 C-26.17948622 200.27600004 -26.12584767 196.74520166 -26.12698364 192.85752869 C-26.12854363 192.13752247 -26.13010362 191.41751625 -26.13171089 190.67569166 C-26.13569983 188.26285892 -26.13253939 185.85008908 -26.12939453 183.43725586 C-26.13074949 181.70756493 -26.13252996 179.97787429 -26.13470459 178.2481842 C-26.13926728 173.55001518 -26.13749422 168.85186809 -26.1343255 164.15369868 C-26.13179632 159.24102007 -26.13414097 154.32834336 -26.13571167 149.41566467 C-26.13753155 141.16634788 -26.13513161 132.91704004 -26.13037109 124.66772461 C-26.12492702 115.12353198 -26.12669291 105.5793607 -26.1321975 96.03516859 C-26.13673162 87.84657195 -26.13737776 79.65798174 -26.13475883 71.46938425 C-26.13319794 66.57605645 -26.13299721 61.6827387 -26.13629532 56.78941154 C-26.13917842 52.19053202 -26.13719021 47.59168011 -26.13140106 42.99280357 C-26.13007591 41.30248816 -26.13046346 39.61217043 -26.13266373 37.92185593 C-26.13538474 35.61970152 -26.13198239 33.31763635 -26.12698364 31.01548767 C-26.12660662 29.7255638 -26.12622959 28.43563993 -26.12584114 27.10662746 C-26 24 -26 24 -25 21 C-24.34 21 -23.68 21 -23 21 C-22.67 19.68 -22.34 18.36 -22 17 C-21.34 17 -20.68 17 -20 17 C-19.938125 16.46375 -19.87625 15.9275 -19.8125 15.375 C-18.38749504 11.20960088 -15.55292633 8.00483469 -11.875 5.625 C-10 5 -10 5 -7 5 C-7 4.34 -7 3.68 -7 3 C-3.535 2.505 -3.535 2.505 0 2 C0 1.34 0 0.68 0 0 Z " fill="#FCFCFC" transform="translate(77,44)"/>
<path d="M0 0 C11.2224562 -0.06958513 22.44486085 -0.12285458 33.66748905 -0.15543652 C38.87890825 -0.17107613 44.09017957 -0.1922834 49.30151367 -0.22631836 C54.33303209 -0.2589724 59.36440848 -0.27686583 64.3960247 -0.28463173 C66.31332064 -0.29016437 68.23060902 -0.3009683 70.14784431 -0.31719017 C72.83839697 -0.33904476 75.52836665 -0.34196357 78.21899414 -0.34057617 C79.00734146 -0.351362 79.79568878 -0.36214783 80.60792542 -0.3732605 C85.79135639 -0.34443785 89.35854371 0.67436423 94 3 C94 3.66 94 4.32 94 5 C94.804375 5.0928125 94.804375 5.0928125 95.625 5.1875 C99.15376838 6.39471023 101.32338724 8.43976171 104 11 C105.375 13.8125 105.375 13.8125 106 16 C106.66 16 107.32 16 108 16 C108.33 17.65 108.66 19.3 109 21 C109.66 21 110.32 21 111 21 C112.17459543 24.5237863 112.12589614 27.2947923 112.12698364 31.01548767 C112.12854363 31.7339339 112.13010362 32.45238012 112.13171089 33.19259745 C112.13570772 35.60620221 112.13253631 38.01974435 112.12939453 40.43334961 C112.13074917 42.16127052 112.13252945 43.88919114 112.13470459 45.61711121 C112.13927184 50.31540658 112.13749217 55.01368005 112.1343255 59.71197581 C112.13179786 64.62419237 112.13414061 69.53640703 112.13571167 74.44862366 C112.13753235 82.69972064 112.13512989 90.95080867 112.13037109 99.2019043 C112.12493047 108.74548813 112.12669009 118.2890506 112.1321975 127.83263391 C112.13673366 136.02037678 112.13737665 144.2081132 112.13475883 152.39585692 C112.1331986 157.28867255 112.13299533 162.18147814 112.13629532 167.07429314 C112.13918125 171.67480406 112.13718499 176.27528742 112.13140106 180.87579536 C112.13007728 182.56568989 112.13046114 184.25558674 112.13266373 185.94548035 C112.1353902 188.24952793 112.13197566 190.55348678 112.12698364 192.85752869 C112.1264181 194.79298003 112.1264181 194.79298003 112.12584114 196.76753139 C112.02361089 199.39350944 111.78768467 201.51303779 111 204 C110.34 204 109.68 204 109 204 C108.896875 204.94875 108.79375 205.8975 108.6875 206.875 C108 210 108 210 105 212 C104.67 212.99 104.34 213.98 104 215 C103.01 215.33 102.02 215.66 101 216 C100.525625 216.495 100.05125 216.99 99.5625 217.5 C97.74806281 219.24185971 96.44440923 219.57855013 94 220 C94 220.66 94 221.32 94 222 C92.35 222.33 90.7 222.66 89 223 C89 223.66 89 224.32 89 225 C30.92 225 -27.16 225 -87 225 C-87 224.34 -87 223.68 -87 223 C-88.98 222.67 -90.96 222.34 -93 222 C-93 221.34 -93 220.68 -93 220 C-93.598125 219.855625 -94.19625 219.71125 -94.8125 219.5625 C-99.97317893 218.23546827 -101.78453349 216.25832051 -105 212 C-105 211.34 -105 210.68 -105 210 C-105.66 210 -106.32 210 -107 210 C-107.66 207.69 -108.32 205.38 -109 203 C-109.66 203 -110.32 203 -111 203 C-111.85742912 200.02882587 -112.12374792 197.39316517 -112.12025452 194.30499268 C-112.12162918 193.36552292 -112.12300385 192.42605316 -112.12442017 191.45811462 C-112.12082489 190.43456375 -112.11722961 189.41101288 -112.11352539 188.35644531 C-112.11367142 187.27321487 -112.11381744 186.18998444 -112.1139679 185.07392883 C-112.113271 181.49197388 -112.10548895 177.91007087 -112.09765625 174.328125 C-112.09579128 171.84519479 -112.09436775 169.36226421 -112.09336853 166.8793335 C-112.08993995 161.01103191 -112.08205769 155.14274951 -112.07201904 149.27445579 C-112.05973974 141.93687978 -112.05437297 134.59930268 -112.04882812 127.26171875 C-112.03810176 114.17446969 -112.02122486 101.08723603 -112 88 C-109.8537974 88.14029419 -107.70803782 88.28738164 -105.5625 88.4375 C-103.77005859 88.55931641 -103.77005859 88.55931641 -101.94140625 88.68359375 C-99 89 -99 89 -98 90 C-95.78312006 90.15873955 -93.56144702 90.25133837 -91.33984375 90.31640625 C-90.34314415 90.3475779 -90.34314415 90.3475779 -89.3263092 90.37937927 C-87.19681457 90.44493658 -85.06719332 90.50378785 -82.9375 90.5625 C-81.49673153 90.60567939 -80.05597601 90.64929349 -78.61523438 90.69335938 C-75.0769596 90.80062393 -71.53854131 90.90187371 -68 91 C-68 90.34 -68 89.68 -68 89 C-60.575 88.01 -60.575 88.01 -53 87 C-53 86.34 -53 85.68 -53 85 C-51.21046815 84.16209211 -49.41830305 83.32980604 -47.625 82.5 C-46.62726563 82.0359375 -45.62953125 81.571875 -44.6015625 81.09375 C-42 80 -42 80 -40 80 C-40 79.34 -40 78.68 -40 78 C-37 76 -37 76 -34 76 C-33.01 74.02 -33.01 74.02 -32 72 C-31.34 72 -30.68 72 -30 72 C-30 71.34 -30 70.68 -30 70 C-29.01 69.67 -28.02 69.34 -27 69 C-25.79117904 66.99983534 -25.79117904 66.99983534 -25 65 C-24.34 65 -23.68 65 -23 65 C-22.34 63.68 -21.68 62.36 -21 61 C-20.34 61 -19.68 61 -19 61 C-18.67 59.68 -18.34 58.36 -18 57 C-17.34 57 -16.68 57 -16 57 C-15.01 54.03 -15.01 54.03 -14 51 C-13.34 51 -12.68 51 -12 51 C-11.855625 50.236875 -11.71125 49.47375 -11.5625 48.6875 C-11 46 -11 46 -10 43 C-9.34 43 -8.68 43 -8 43 C-7.34 39.37 -6.68 35.74 -6 32 C-5.34 32 -4.68 32 -4 32 C-3.67 28.37 -3.34 24.74 -3 21 C-2.34 21 -1.68 21 -1 21 C-1.00523682 20.43490723 -1.01047363 19.86981445 -1.01586914 19.28759766 C-1.03662422 16.7334097 -1.0496554 14.17923947 -1.0625 11.625 C-1.07087891 10.73554688 -1.07925781 9.84609375 -1.08789062 8.9296875 C-1.09111328 8.07890625 -1.09433594 7.228125 -1.09765625 6.3515625 C-1.10289307 5.56604004 -1.10812988 4.78051758 -1.11352539 3.97119141 C-1 2 -1 2 0 0 Z " fill="#FDFDFD" transform="translate(517,417)"/>
<path d="M0 0 C55.77 0 111.54 0 169 0 C169 0.66 169 1.32 169 2 C171.31 2.33 173.62 2.66 176 3 C176 3.66 176 4.32 176 5 C176.70125 5.061875 177.4025 5.12375 178.125 5.1875 C184.7067836 7.04756928 188.50871559 12.45501888 192 18 C192 18.99 192 19.98 192 21 C192.66 21 193.32 21 194 21 C195.17459543 24.5237863 195.12589614 27.2947923 195.12698364 31.01548767 C195.12854363 31.7339339 195.13010362 32.45238012 195.13171089 33.19259745 C195.13570772 35.60620221 195.13253631 38.01974435 195.12939453 40.43334961 C195.13074917 42.16127052 195.13252945 43.88919114 195.13470459 45.61711121 C195.13927184 50.31540658 195.13749217 55.01368005 195.1343255 59.71197581 C195.13179786 64.62419237 195.13414061 69.53640703 195.13571167 74.44862366 C195.13753235 82.69972064 195.13512989 90.95080867 195.13037109 99.2019043 C195.12493047 108.74548813 195.12669009 118.2890506 195.1321975 127.83263391 C195.13673366 136.02037678 195.13737665 144.2081132 195.13475883 152.39585692 C195.1331986 157.28867255 195.13299533 162.18147814 195.13629532 167.07429314 C195.13918125 171.67480406 195.13718499 176.27528742 195.13140106 180.87579536 C195.13007728 182.56568989 195.13046114 184.25558674 195.13266373 185.94548035 C195.1353902 188.24952793 195.13197566 190.55348678 195.12698364 192.85752869 C195.1264181 194.79298003 195.1264181 194.79298003 195.12584114 196.76753139 C195.02361089 199.39350944 194.78768467 201.51303779 194 204 C193.34 204 192.68 204 192 204 C191.67 205.65 191.34 207.3 191 209 C190.34 209 189.68 209 189 209 C188.731875 209.928125 188.46375 210.85625 188.1875 211.8125 C186.74588714 215.6820924 185.48382896 217.11897656 182 219.1875 C180 220 180 220 177 220 C176.67 220.99 176.34 221.98 176 223 C174.2984375 223.2165625 174.2984375 223.2165625 172.5625 223.4375 C169.19222799 223.61171478 169.19222799 223.61171478 168 225 C165.35348657 225.12509834 162.73177781 225.18605995 160.08374023 225.20532227 C159.25454071 225.21522186 158.42534119 225.22512146 157.5710144 225.23532104 C154.81690371 225.2670312 152.06277574 225.29173088 149.30859375 225.31640625 C147.40429727 225.33696757 145.50000545 225.35796382 143.59571838 225.37937927 C138.57337194 225.43468485 133.55098373 225.48405656 128.52856445 225.53222656 C123.40767685 225.58237979 118.2868502 225.63809803 113.16601562 225.69335938 C103.1107291 225.80104467 93.05538975 225.90246645 83 226 C82.05862745 223.17588235 81.88274618 221.47081968 81.90234375 218.55078125 C81.90717773 217.27944336 81.90717773 217.27944336 81.91210938 215.98242188 C81.92467773 214.66081055 81.92467773 214.66081055 81.9375 213.3125 C81.94201172 212.41982422 81.94652344 211.52714844 81.95117188 210.60742188 C81.96295017 208.40488013 81.97939836 206.20247401 82 204 C81.34 204 80.68 204 80 204 C79.505 198.06 79.505 198.06 79 192 C78.34 192 77.68 192 77 192 C76.34 188.7 75.68 185.4 75 182 C74.34 182 73.68 182 73 182 C71.74335022 179.09399739 71 177.20395416 71 174 C70.01 173.67 69.02 173.34 68 173 C67.505 170.525 67.505 170.525 67 168 C66.34 168 65.68 168 65 168 C64.9175 167.38125 64.835 166.7625 64.75 166.125 C64.18741541 163.81562433 64.18741541 163.81562433 61.9375 162.75 C60.9784375 162.37875 60.9784375 162.37875 60 162 C60 161.01 60 160.02 60 159 C59.01 158.67 58.02 158.34 57 158 C56.67 157.34 56.34 156.68 56 156 C55.01 155.67 54.02 155.34 53 155 C53 154.34 53 153.68 53 153 C51.02 152.01 51.02 152.01 49 151 C49 150.34 49 149.68 49 149 C47.02 148.34 45.04 147.68 43 147 C43 146.34 43 145.68 43 145 C41.96875 144.731875 40.9375 144.46375 39.875 144.1875 C36.3514958 143.19001103 33.23119173 141.7338102 30 140 C30 139.34 30 138.68 30 138 C29.40832031 137.93941406 28.81664062 137.87882813 28.20703125 137.81640625 C24.09021792 137.37987629 20.04455467 136.91328654 16 136 C16 135.34 16 134.68 16 134 C5.11 134 -5.78 134 -17 134 C-17 134.66 -17 135.32 -17 136 C-20.96 136.33 -24.92 136.66 -29 137 C-29.02314817 122.59648351 -29.04092776 108.19297144 -29.05181217 93.78944016 C-29.05703556 87.1016446 -29.06399892 80.41386216 -29.07543945 73.72607422 C-29.08628757 67.27461878 -29.09228094 60.82317558 -29.09487724 54.37171173 C-29.09672801 51.90769508 -29.10034196 49.44367912 -29.10573006 46.97966766 C-29.11296596 43.53428183 -29.11398985 40.08894687 -29.11352539 36.64355469 C-29.11712067 35.62000381 -29.12071594 34.59645294 -29.12442017 33.54188538 C-29.1230455 32.60241562 -29.12167084 31.66294586 -29.12025452 30.69500732 C-29.12117631 29.88014233 -29.1220981 29.06527733 -29.12304783 28.22571945 C-29.00149899 26.0271141 -28.60920013 24.11100792 -28 22 C-27.34 22 -26.68 22 -26 22 C-25.01 18.535 -25.01 18.535 -24 15 C-23.34 15 -22.68 15 -22 15 C-21.5978125 13.8553125 -21.5978125 13.8553125 -21.1875 12.6875 C-19.37906716 8.59473095 -17.12935212 6.6775493 -13 5 C-12.01 5 -11.02 5 -10 5 C-9.67 4.01 -9.34 3.02 -9 2 C-6.03 2 -3.06 2 0 2 C0 1.34 0 0.68 0 0 Z " fill="#FCFCFC" transform="translate(434,44)"/>
<path d="M0 0 C0.33 0 0.66 0 1 0 C1.33 34.65 1.66 69.3 2 105 C-10.375 105.99 -10.375 105.99 -23 107 C-25.97 107.99 -25.97 107.99 -29 109 C-31.66701495 109.47274847 -34.30183576 109.72087956 -37 110 C-37 110.66 -37 111.32 -37 112 C-40.465 112.495 -40.465 112.495 -44 113 C-44 113.66 -44 114.32 -44 115 C-46.64738916 116.4606285 -47.89448334 117 -51 117 C-51 117.66 -51 118.32 -51 119 C-51.639375 119.28875 -52.27875 119.5775 -52.9375 119.875 C-55.15206079 120.82823451 -55.15206079 120.82823451 -56 123 C-56.969375 123.28875 -57.93875 123.5775 -58.9375 123.875 C-62.07136304 124.66698162 -62.07136304 124.66698162 -63.1875 126.9375 C-63.455625 127.618125 -63.72375 128.29875 -64 129 C-65.5 130.75 -65.5 130.75 -67 132 C-67.66 132 -68.32 132 -69 132 C-69.99 133.98 -69.99 133.98 -71 136 C-71.66 136 -72.32 136 -73 136 C-67.15515131 122.41383575 -49.68434667 113.75194733 -36.8984375 108.1484375 C-24.84849953 103.37393378 -12.95540168 104 0 104 C0 69.68 0 35.36 0 0 Z " fill="#464646" transform="translate(274,72)"/>
<path d="M0 0 C38.28 0 76.56 0 116 0 C116.89623608 5.37741648 117.30603901 10.56760963 117.51757812 15.99023438 C117.75149351 20.59351256 118.61701863 24.61352093 120 29 C120.32094463 30.33132587 120.63524203 31.66430762 120.9375 33 C121.60448896 35.74799451 122.4681232 38.23261042 123.625 40.8125 C125 44 125 44 125 47 C125.66 47 126.32 47 127 47 C127.66 49.31 128.32 51.62 129 54 C129.66 54 130.32 54 131 54 C131.33 54.99 131.66 55.98 132 57 C132.680625 57.680625 133.36125 58.36125 134.0625 59.0625 C134.701875 59.701875 135.34125 60.34125 136 61 C136 61.66 136 62.32 136 63 C136.66 63 137.32 63 138 63 C139.5078125 64.53125 139.5078125 64.53125 141.125 66.5 C141.66382813 67.1496875 142.20265625 67.799375 142.7578125 68.46875 C143.16773438 68.9740625 143.57765625 69.479375 144 70 C143.67 70.66 143.34 71.32 143 72 C126.62519005 59.37775067 118.31158293 38.86949755 115 19 C115 13.06 115 7.12 115 1 C58.075 1.495 58.075 1.495 0 2 C0 1.34 0 0.68 0 0 Z " fill="#3C3C3C" transform="translate(76,417)"/>
<path d="M0 0 C2.1462026 0.14029419 4.29196218 0.28738164 6.4375 0.4375 C7.63246094 0.51871094 8.82742188 0.59992188 10.05859375 0.68359375 C13 1 13 1 14 2 C16.21687994 2.15873955 18.43855298 2.25133837 20.66015625 2.31640625 C21.65685585 2.3475779 21.65685585 2.3475779 22.6736908 2.37937927 C24.80318543 2.44493658 26.93280668 2.50378785 29.0625 2.5625 C30.50326847 2.60567939 31.94402399 2.64929349 33.38476562 2.69335938 C36.9230404 2.80062393 40.46145869 2.90187371 44 3 C44 2.34 44 1.68 44 1 C49.94 0.505 49.94 0.505 56 0 C44.7508644 7.49942374 23.80020061 6.76897876 10.90234375 4.36328125 C7.43614305 3.49988982 4.19717283 2.59858641 1 1 C1.10729359 15.12553124 1.22012816 29.25100892 1.33933926 43.37644482 C1.39453038 49.93527235 1.44794439 56.49410438 1.49731445 63.05297852 C1.54501407 69.38128352 1.59735906 75.70953453 1.65294075 82.03777504 C1.6733389 84.45350108 1.69205616 86.86924191 1.70907402 89.28499413 C1.73317411 92.66555507 1.76322126 96.0460143 1.79467773 99.42651367 C1.8004332 100.42776779 1.80618866 101.42902191 1.81211853 102.46061707 C1.82190735 103.38463318 1.83169617 104.30864929 1.84178162 105.26066589 C1.84823417 106.05986041 1.85468672 106.85905493 1.8613348 107.68246746 C2.01159605 110.19380661 2.45439216 112.54666776 3 115 C2.34 115 1.68 115 1 115 C0.14257088 112.02882587 -0.12374792 109.39316517 -0.12025452 106.30499268 C-0.12162918 105.36552292 -0.12300385 104.42605316 -0.12442017 103.45811462 C-0.12082489 102.43456375 -0.11722961 101.41101288 -0.11352539 100.35644531 C-0.11367142 99.27321487 -0.11381744 98.18998444 -0.1139679 97.07392883 C-0.113271 93.49197388 -0.10548895 89.91007087 -0.09765625 86.328125 C-0.09579128 83.84519479 -0.09436775 81.36226421 -0.09336853 78.8793335 C-0.08993995 73.01103191 -0.08205769 67.14274951 -0.07201904 61.27445579 C-0.05973974 53.93687978 -0.05437297 46.59930268 -0.04882812 39.26171875 C-0.03810176 26.17446969 -0.02122486 13.08723603 0 0 Z " fill="#727272" transform="translate(405,505)"/>
<path d="M0 0 C0.66 0 1.32 0 2 0 C1.83923477 0.77147369 1.67846954 1.54294739 1.51283264 2.33779907 C0.84524607 7.10511682 0.82267959 11.78683311 0.79467773 16.59521484 C0.78477814 17.64947662 0.77487854 18.7037384 0.76467896 19.78994751 C0.7331719 23.26358824 0.70834923 26.73724264 0.68359375 30.2109375 C0.66301491 32.62375233 0.64201819 35.03656363 0.62062073 37.44937134 C0.56549621 43.79177995 0.51604454 50.13422059 0.46777344 56.47668457 C0.41748812 62.95193319 0.36183878 69.42713547 0.30664062 75.90234375 C0.19917673 88.60152262 0.09752348 101.3007411 0 114 C0.61048691 113.79118698 1.22097382 113.58237396 1.84996033 113.36723328 C3.05719505 112.95861809 3.05719505 112.95861809 4.28881836 112.54174805 C5.08493027 112.27106003 5.88104218 112.00037201 6.70127869 111.72148132 C21.49280565 107.07898274 40.57777322 108.82763071 55 114 C55.99 114.66 56.98 115.32 58 116 C48.58997722 115.03644647 48.58997722 115.03644647 44 114 C44 113.34 44 112.68 44 112 C33.11 112 22.22 112 11 112 C11 112.66 11 113.32 11 114 C5.06 114.495 5.06 114.495 -1 115 C-1.02314817 100.59648351 -1.04092776 86.19297144 -1.05181217 71.78944016 C-1.05703556 65.1016446 -1.06399892 58.41386216 -1.07543945 51.72607422 C-1.08628757 45.27461878 -1.09228094 38.82317558 -1.09487724 32.37171173 C-1.09672801 29.90769508 -1.10034196 27.44367912 -1.10573006 24.97966766 C-1.11296596 21.53428183 -1.11398985 18.08894687 -1.11352539 14.64355469 C-1.11712067 13.62000381 -1.12071594 12.59645294 -1.12442017 11.54188538 C-1.1230455 10.60241562 -1.12167084 9.66294586 -1.12025452 8.69500732 C-1.12117631 7.88014233 -1.1220981 7.06527733 -1.12304783 6.22571945 C-1.00149899 4.0271141 -0.60920013 2.11100792 0 0 Z " fill="#727272" transform="translate(406,66)"/>
<path d="M0 0 C0 0.66 0 1.32 0 2 C-1.65 2.33 -3.3 2.66 -5 3 C-5 3.66 -5 4.32 -5 5 C-63.08 5 -121.16 5 -181 5 C-181 4.34 -181 3.68 -181 3 C-179.70735576 3.00414807 -179.70735576 3.00414807 -178.38859749 3.00837994 C-157.39693001 3.07470176 -136.40528064 3.12431075 -115.41353035 3.15543652 C-105.26197669 3.1708897 -95.11049307 3.1919496 -84.95898438 3.22631836 C-76.10847388 3.25626814 -67.25801413 3.27558625 -58.40745437 3.28226548 C-53.72337617 3.28616829 -49.03944311 3.29530812 -44.35541153 3.31719017 C-39.9411942 3.33764351 -35.52718098 3.343816 -31.11292076 3.33932304 C-29.49810233 3.3401443 -27.88327664 3.34605706 -26.26849937 3.35761642 C-18.45858908 3.41075295 -11.24476978 3.36156346 -3.7974987 0.64427662 C-2 0 -2 0 0 0 Z " fill="#030303" transform="translate(611,637)"/>
<path d="M0 0 C18.72769613 5.219194 33.44098087 19.89170095 42.96875 36.4140625 C47.79207884 45.63152566 52.39382822 55.41389734 52 66 C51.34 66 50.68 66 50 66 C49.505 60.06 49.505 60.06 49 54 C48.34 54 47.68 54 47 54 C46.01 49.05 46.01 49.05 45 44 C44.34 44 43.68 44 43 44 C41.74335022 41.09399739 41 39.20395416 41 36 C40.01 35.67 39.02 35.34 38 35 C37.67 33.35 37.34 31.7 37 30 C36.34 30 35.68 30 35 30 C34.9175 29.38125 34.835 28.7625 34.75 28.125 C34.18741541 25.81562433 34.18741541 25.81562433 31.9375 24.75 C31.298125 24.5025 30.65875 24.255 30 24 C30 23.01 30 22.02 30 21 C29.01 20.67 28.02 20.34 27 20 C26.67 19.34 26.34 18.68 26 18 C25.01 17.67 24.02 17.34 23 17 C23 16.34 23 15.68 23 15 C21.68 14.34 20.36 13.68 19 13 C19 12.34 19 11.68 19 11 C17.02 10.34 15.04 9.68 13 9 C13 8.34 13 7.68 13 7 C11.453125 6.5978125 11.453125 6.5978125 9.875 6.1875 C6.3514958 5.19001103 3.23119173 3.7338102 0 2 C0 1.34 0 0.68 0 0 Z " fill="#151515" transform="translate(464,182)"/>
<path d="M0 0 C0.66 0 1.32 0 2 0 C1.79121167 8.40847566 -0.65219917 15.34269946 -4 23 C-4.66708984 24.53914063 -4.66708984 24.53914063 -5.34765625 26.109375 C-13.52695604 43.69828709 -29.15923934 58.29340792 -47 66 C-47.99 66 -48.98 66 -50 66 C-50 65.34 -50 64.68 -50 64 C-48.21046815 63.16209211 -46.41830305 62.32980604 -44.625 61.5 C-43.62726563 61.0359375 -42.62953125 60.571875 -41.6015625 60.09375 C-39 59 -39 59 -37 59 C-37 58.34 -37 57.68 -37 57 C-34 55 -34 55 -31 55 C-30.34 53.68 -29.68 52.36 -29 51 C-28.34 51 -27.68 51 -27 51 C-27 50.34 -27 49.68 -27 49 C-25.515 48.505 -25.515 48.505 -24 48 C-22.79117904 45.99983534 -22.79117904 45.99983534 -22 44 C-21.34 44 -20.68 44 -20 44 C-19.34 42.68 -18.68 41.36 -18 40 C-17.34 40 -16.68 40 -16 40 C-15.67 38.68 -15.34 37.36 -15 36 C-14.34 36 -13.68 36 -13 36 C-12.34 34.02 -11.68 32.04 -11 30 C-10.34 30 -9.68 30 -9 30 C-8.855625 29.236875 -8.71125 28.47375 -8.5625 27.6875 C-8 25 -8 25 -7 22 C-6.34 22 -5.68 22 -5 22 C-4.34 18.37 -3.68 14.74 -3 11 C-2.34 11 -1.68 11 -1 11 C-0.67 7.37 -0.34 3.74 0 0 Z " fill="#101010" transform="translate(514,438)"/>
<path d="M0 0 C1.32 0.99 2.64 1.98 4 3 C2.68623083 5.90543872 1.27943508 7.96661059 -0.98095703 10.20800781 C-1.58142853 10.80832825 -2.18190002 11.40864868 -2.80056763 12.02716064 C-3.76940384 12.980513 -3.76940384 12.980513 -4.7578125 13.953125 C-5.42086395 14.61334656 -6.08391541 15.27356812 -6.76705933 15.95379639 C-8.88171832 18.05727824 -11.00323212 20.15369142 -13.125 22.25 C-14.56165557 23.67662261 -15.99785898 25.10370072 -17.43359375 26.53125 C-20.95050804 30.02613661 -24.47358547 33.51470062 -28 37 C-32.03070124 35.14276623 -34.78284024 32.47282533 -37.859375 29.3359375 C-38.40861633 28.78386627 -38.95785767 28.23179504 -39.52374268 27.66299438 C-41.27059293 25.90498185 -43.01034601 24.1401311 -44.75 22.375 C-45.93573591 21.1792292 -47.1219288 19.98391135 -48.30859375 18.7890625 C-51.21105085 15.86459747 -54.1071641 12.93398126 -57 10 C-52.80117389 10 -50.87725806 12.20993157 -48 15 C-46.17849895 16.99440292 -44.41378172 19.02778427 -42.66015625 21.08203125 C-40.55593908 23.51302096 -38.30292349 25.75767976 -36 28 C-35.13375 28.928125 -34.2675 29.85625 -33.375 30.8125 C-31.17037709 33.33873788 -31.17037709 33.33873788 -28 33 C-23.77403195 29.90095676 -20.54693266 26.45298768 -17.296875 22.35546875 C-16.86890625 21.90816406 -16.4409375 21.46085937 -16 21 C-15.34 21 -14.68 21 -14 21 C-13.505 19.515 -13.505 19.515 -13 18 C-11.55289603 16.78311711 -10.1020104 15.57003104 -8.62109375 14.39453125 C-6.06473422 12.19544606 -4.11176813 9.62544145 -2 7 C-1.38125 6.46375 -0.7625 5.9275 -0.125 5.375 C0.24625 4.92125 0.6175 4.4675 1 4 C0.77242269 1.83700789 0.77242269 1.83700789 0 0 Z " fill="#090909" transform="translate(389,301)"/>
<path d="M0 0 C1.25248535 0.45669067 1.25248535 0.45669067 2.53027344 0.92260742 C-0.46972656 1.92260742 -0.46972656 1.92260742 -2.46972656 1.92260742 C-3.67587463 3.36328428 -4.87746056 4.80820276 -6.04785156 6.27807617 C-8.23799705 8.811184 -10.90116535 10.78213975 -13.46972656 12.92260742 C-14.29472656 13.91260742 -15.11972656 14.90260742 -15.96972656 15.92260742 C-18.46972656 18.92260742 -18.46972656 18.92260742 -21.40722656 21.36010742 C-24.40037598 23.86457938 -26.73100194 26.44999096 -29.17285156 29.46948242 C-30.46972656 30.92260742 -30.46972656 30.92260742 -32.46972656 31.92260742 C-32.97238348 34.71100047 -32.97238348 34.71100047 -32.46972656 37.92260742 C-30.07935423 40.23874722 -30.07935423 40.23874722 -28.20410156 41.55541992 C-25.18995021 43.93144013 -22.88106955 46.95545842 -20.46972656 49.92260742 C-20.79972656 50.58260742 -21.12972656 51.24260742 -21.46972656 51.92260742 C-26.74972656 46.64260742 -32.02972656 41.36260742 -37.46972656 35.92260742 C-35.83357304 32.65030038 -34.82996002 31.01890187 -32.40039062 28.51513672 C-31.77924377 27.87154709 -31.15809692 27.22795746 -30.51812744 26.56486511 C-29.8473114 25.88241226 -29.17649536 25.19995941 -28.48535156 24.49682617 C-27.79213806 23.78984085 -27.09892456 23.08285553 -26.38470459 22.35444641 C-24.91825542 20.86475378 -23.44879843 19.37801691 -21.9765625 17.89404297 C-19.7259634 15.61641915 -17.50048487 13.31597265 -15.27441406 11.0144043 C-13.84622275 9.56956444 -12.41658267 8.12615493 -10.98535156 6.68432617 C-10.32263245 5.99175217 -9.65991333 5.29917816 -8.97711182 4.58561707 C-4.25245989 -0.09485152 -4.25245989 -0.09485152 0 0 Z " fill="#1D1D1D" transform="translate(408.4697265625,314.077392578125)"/>
<path d="M0 0 C0.33 0 0.66 0 1 0 C1.04898438 1.07378906 1.09796875 2.14757812 1.1484375 3.25390625 C1.22353398 4.69012642 1.29907876 6.12632319 1.375 7.5625 C1.4059375 8.26697266 1.436875 8.97144531 1.46875 9.69726562 C1.72812872 14.38769743 2.57431332 18.49351912 4 23 C4.32094463 24.33132587 4.63524203 25.66430762 4.9375 27 C5.60448896 29.74799451 6.4681232 32.23261042 7.625 34.8125 C9 38 9 38 9 41 C9.66 41 10.32 41 11 41 C11.66 43.31 12.32 45.62 13 48 C13.66 48 14.32 48 15 48 C15.33 48.99 15.66 49.98 16 51 C16.680625 51.680625 17.36125 52.36125 18.0625 53.0625 C18.701875 53.701875 19.34125 54.34125 20 55 C20 55.66 20 56.32 20 57 C20.66 57 21.32 57 22 57 C23.5078125 58.53125 23.5078125 58.53125 25.125 60.5 C25.66382813 61.1496875 26.20265625 61.799375 26.7578125 62.46875 C27.16773438 62.9740625 27.57765625 63.479375 28 64 C27.67 64.66 27.34 65.32 27 66 C13.08017004 55.27013107 2.76960074 36.34551235 0 19 C-0.39779547 12.66422599 -0.24328314 6.33887725 0 0 Z " fill="#0A0A0A" transform="translate(192,423)"/>
<path d="M0 0 C1.625 1.375 1.625 1.375 3 3 C3 3.66 3 4.32 3 5 C3.598125 5.226875 4.19625 5.45375 4.8125 5.6875 C7.56351888 7.33811133 8.52484637 9.1972081 10 12 C8.68 11.34 7.36 10.68 6 10 C6 9.34 6 8.68 6 8 C4.68 7.34 3.36 6.68 2 6 C2 5.34 2 4.68 2 4 C-0.24224658 3.41036322 -0.24224658 3.41036322 -3 4 C-4.67591044 5.59054235 -6.03681082 7.31431228 -7.4609375 9.1328125 C-9.65730211 11.79743759 -12.34790736 13.79932739 -15 16 C-16.2375 17.485 -16.2375 17.485 -17.5 19 C-20.14072781 22.16887337 -22.79538963 24.42237862 -26 27 C-28.38770863 29.13188271 -29.68867026 31.07472597 -31 34 C-31.66 34 -32.32 34 -33 34 C-33.33 34.99 -33.66 35.98 -34 37 C-34.68025208 35.2177124 -34.68025208 35.2177124 -35 33 C-33.88090515 31.26617432 -33.88090515 31.26617432 -32.1159668 29.51660156 C-31.46166183 28.85621887 -30.80735687 28.19583618 -30.13322449 27.51544189 C-29.05214165 26.46365753 -29.05214165 26.46365753 -27.94921875 25.390625 C-26.85550713 24.30041046 -26.85550713 24.30041046 -25.73970032 23.18817139 C-24.19436566 21.65259022 -22.64300537 20.12305305 -21.08618164 18.59912109 C-18.6955053 16.2578399 -16.32400452 13.89842183 -13.95507812 11.53515625 C-12.45421479 10.04837824 -10.95229659 8.56266419 -9.44921875 7.078125 C-8.37724495 6.01419525 -8.37724495 6.01419525 -7.28361511 4.92877197 C-6.61985367 4.28099792 -5.95609222 3.63322388 -5.2722168 2.96582031 C-4.68740036 2.39164368 -4.10258392 1.81746704 -3.50004578 1.22589111 C-2 0 -2 0 0 0 Z " fill="#1E1E1E" transform="translate(361,360)"/>
<path d="M0 0 C1.32 1.32 2.64 2.64 4 4 C-6.56 14.56 -17.12 25.12 -28 36 C-30.89511173 34.55244413 -33.53127396 33.09685983 -36.25 31.375 C-36.95640625 30.92898438 -37.6628125 30.48296875 -38.390625 30.0234375 C-38.92171875 29.68570312 -39.4528125 29.34796875 -40 29 C-37 28 -37 28 -34 29 C-33.67 29.66 -33.34 30.32 -33 31 C-30.67843403 31.40729228 -28.3431213 31.74438677 -26 32 C-25.67 31.01 -25.34 30.02 -25 29 C-23.54932106 27.78011089 -22.0946065 26.56429516 -20.609375 25.38671875 C-18.73360255 23.84715152 -18.73360255 23.84715152 -16.5 21 C-14 18 -14 18 -11.0625 15.5625 C-8.06935058 13.05802804 -5.73872462 10.47261646 -3.296875 7.453125 C-2 6 -2 6 0 5 C0 3.35 0 1.7 0 0 Z " fill="#0D0D0D" transform="translate(345,346)"/>
<path d="M0 0 C2.1462026 0.14029419 4.29196218 0.28738164 6.4375 0.4375 C7.63246094 0.51871094 8.82742188 0.59992188 10.05859375 0.68359375 C13 1 13 1 14 2 C16.21687994 2.15873955 18.43855298 2.25133837 20.66015625 2.31640625 C21.65685585 2.3475779 21.65685585 2.3475779 22.6736908 2.37937927 C24.80318543 2.44493658 26.93280668 2.50378785 29.0625 2.5625 C30.50326847 2.60567939 31.94402399 2.64929349 33.38476562 2.69335938 C36.9230404 2.80062393 40.46145869 2.90187371 44 3 C44 2.34 44 1.68 44 1 C49.94 0.505 49.94 0.505 56 0 C44.97787148 7.34808568 25.14776206 6.59453625 12.47363281 4.60302734 C8.21924227 3.68648951 4.10460121 2.45249711 0 1 C0 0.67 0 0.34 0 0 Z " fill="#000000" transform="translate(405,505)"/>
<path d="M0 0 C-9.41002278 -0.96355353 -9.41002278 -0.96355353 -14 -2 C-14 -2.66 -14 -3.32 -14 -4 C-24.89 -4 -35.78 -4 -47 -4 C-47 -3.34 -47 -2.68 -47 -2 C-52.94 -1.505 -52.94 -1.505 -59 -1 C-43.21167597 -8.89416202 -15.16948489 -10.11298993 0 0 Z " fill="#0F0F0F" transform="translate(464,182)"/>
<path d="M0 0 C2.475 0.495 2.475 0.495 5 1 C5.33 1.99 5.66 2.98 6 4 C6.66 4.165 7.32 4.33 8 4.5 C8.66 4.665 9.32 4.83 10 5 C10.33 5.99 10.66 6.98 11 8 C11.825 8.0825 12.65 8.165 13.5 8.25 C17.76753921 9.16447269 21.19236894 10.92223178 25 13 C25 13.66 25 14.32 25 15 C30.94 15.99 30.94 15.99 37 17 C37 17.66 37 18.32 37 19 C23.91425261 18.4765701 11.96232089 11.02180747 2 3 C1.34 2.01 0.68 1.02 0 0 Z " fill="#131313" transform="translate(220,489)"/>
<path d="M0 0 C0.33 0 0.66 0 1 0 C1 5.94 1 11.88 1 18 C-1.60261719 18.18175781 -1.60261719 18.18175781 -4.2578125 18.3671875 C-6.54690479 18.53605496 -8.83596571 18.70534812 -11.125 18.875 C-12.83816406 18.99294922 -12.83816406 18.99294922 -14.5859375 19.11328125 C-16.24882812 19.23896484 -16.24882812 19.23896484 -17.9453125 19.3671875 C-18.96125488 19.44050293 -19.97719727 19.51381836 -21.02392578 19.58935547 C-24.20625723 20.02845978 -26.97665507 20.93306136 -30 22 C-31.78396635 22.26633864 -33.57716154 22.47922931 -35.375 22.625 C-36.24898437 22.69976562 -37.12296875 22.77453125 -38.0234375 22.8515625 C-38.67570313 22.90054688 -39.32796875 22.94953125 -40 23 C-28.47939963 15.31959975 -13.15537403 16.90255278 0 17 C0 11.39 0 5.78 0 0 Z " fill="#111111" transform="translate(275,159)"/>
<path d="M0 0 C0 0.66 0 1.32 0 2 C-1.65 2.33 -3.3 2.66 -5 3 C-5 3.66 -5 4.32 -5 5 C-22.49 5 -39.98 5 -58 5 C-58 4.67 -58 4.34 -58 4 C-57.44591461 3.99413376 -56.89182922 3.98826752 -56.32095337 3.98222351 C-50.51231095 3.91789281 -44.70420242 3.83337504 -38.89599609 3.73754883 C-36.73330765 3.70445798 -34.57053612 3.67637764 -32.40771484 3.65356445 C-29.28447326 3.61972574 -26.16198223 3.56739649 -23.0390625 3.51171875 C-22.08448151 3.50532883 -21.12990051 3.4989389 -20.14639282 3.49235535 C-14.38141482 3.36834646 -9.46023547 2.49663068 -3.99472046 0.63825989 C-2 0 -2 0 0 0 Z " fill="#121212" transform="translate(611,637)"/>
<path d="M0 0 C4.61669653 1.22206673 6.63952258 3.63191024 9.52734375 7.19921875 C11.52241091 9.63881016 13.7442593 11.8020988 16 14 C18.57729118 16.57729118 21.13777181 19.14761265 23.625 21.8125 C25.82962291 24.33873788 25.82962291 24.33873788 29 24 C29.66 24 30.32 24 31 24 C30.34 25.32 29.68 26.64 29 28 C24.9112718 26.37782825 22.17121318 23.44306613 19.140625 20.37109375 C18.316763 19.54654442 18.316763 19.54654442 17.47625732 18.70533752 C16.32082415 17.54689145 15.16781416 16.38602406 14.01708984 15.22290039 C12.24761619 13.43509149 10.47019144 11.65549296 8.69140625 9.87695312 C7.56983792 8.75047231 6.44872781 7.62353505 5.328125 6.49609375 C4.79382874 5.96068466 4.25953247 5.42527557 3.70904541 4.87364197 C0 1.11606749 0 1.11606749 0 0 Z " fill="#030303" transform="translate(332,310)"/>
<path d="M0 0 C0.66 0.33 1.32 0.66 2 1 C-16.98390342 18 -16.98390342 18 -26 18 C-26 17.34 -26 16.68 -26 16 C-24.21046815 15.16209211 -22.41830305 14.32980604 -20.625 13.5 C-19.62726563 13.0359375 -18.62953125 12.571875 -17.6015625 12.09375 C-15 11 -15 11 -13 11 C-13 10.34 -13 9.68 -13 9 C-10 7 -10 7 -7 7 C-6.34 5.68 -5.68 4.36 -5 3 C-4.34 3 -3.68 3 -3 3 C-3 2.34 -3 1.68 -3 1 C-2.01 0.67 -1.02 0.34 0 0 Z " fill="#161616" transform="translate(490,486)"/>
<path d="M0 0 C5.75 -0.125 5.75 -0.125 8 1 C8 1.66 8 2.32 8 3 C8.886875 3.20625 9.77375 3.4125 10.6875 3.625 C14.93505975 5.38813801 16.23131366 7.38532617 19 11 C19.66 11.33 20.32 11.66 21 12 C22.57548683 14.62581138 23 15.87099787 23 19 C23.66 19 24.32 19 25 19 C25 20.98 25 22.96 25 25 C23 22 23 22 21.7734375 19.765625 C16.45931102 10.2061349 10.24101876 4.81667597 0 1 C0 0.67 0 0.34 0 0 Z " fill="#161616" transform="translate(249,46)"/>
<path d="M0 0 C0.99 0.33 1.98 0.66 3 1 C-1.32893185 6.18419194 -5.76564995 10.72706118 -11 15 C-11.33 14.01 -11.66 13.02 -12 12 C-11.01 11.67 -10.02 11.34 -9 11 C-7.79117904 8.99983534 -7.79117904 8.99983534 -7 7 C-6.34 7 -5.68 7 -5 7 C-4.67 6.01 -4.34 5.02 -4 4 C-2.70644173 2.62804426 -1.37701298 1.28817344 0 0 Z " fill="#747474" transform="translate(395,210)"/>
<path d="M0 0 C3.55960196 1.01702913 5.36901183 2.23668017 7.5625 5.125 C8.7690625 6.548125 8.7690625 6.548125 10 8 C11.32 8 12.64 8 14 8 C14 7.34 14 6.68 14 6 C17.465 5.505 17.465 5.505 21 5 C15.30275229 9.43119266 15.30275229 9.43119266 12 11 C8.51699969 9.76223956 6.30556148 7.54511922 3.75 4.9375 C3.04359375 4.22464844 2.3371875 3.51179688 1.609375 2.77734375 C0 1 0 1 0 0 Z " fill="#0B0B0B" transform="translate(388,366)"/>
<path d="M0 0 C0.33 0 0.66 0 1 0 C1.04125 0.721875 1.0825 1.44375 1.125 2.1875 C2.1434916 5.461223 3.62047651 6.56633571 6.30078125 8.59765625 C9.2563832 11.03687717 11.59047581 14.03508903 14 17 C13.67 17.66 13.34 18.32 13 19 C8.05 14.05 3.1 9.1 -2 4 C-1.34 2.68 -0.68 1.36 0 0 Z " fill="#000000" transform="translate(374,347)"/>
<path d="M0 0 C1.9375 0.75 1.9375 0.75 4 2 C4.75 4.125 4.75 4.125 5 6 C5.66 6 6.32 6 7 6 C8.5078125 7.53125 8.5078125 7.53125 10.125 9.5 C10.66382813 10.1496875 11.20265625 10.799375 11.7578125 11.46875 C12.37269531 12.22671875 12.37269531 12.22671875 13 13 C12.67 13.66 12.34 14.32 12 15 C7.08146414 11.13037381 3.36245733 7.29841762 0 2 C0 1.34 0 0.68 0 0 Z " fill="#111111" transform="translate(207,474)"/>
<path d="M0 0 C0.33 0.99 0.66 1.98 1 3 C0.01 4.485 0.01 4.485 -1 6 C-1.66 6 -2.32 6 -3 6 C-3.12246094 6.57234375 -3.24492187 7.1446875 -3.37109375 7.734375 C-4.02762868 10.09953191 -4.93723512 12.07206797 -6.0625 14.25 C-6.42472656 14.95640625 -6.78695312 15.6628125 -7.16015625 16.390625 C-7.43730469 16.92171875 -7.71445313 17.4528125 -8 18 C-8.66 18 -9.32 18 -10 18 C-8.65403304 11.12061334 -4.97724618 4.97724618 0 0 Z " fill="#121212" transform="translate(200,208)"/>
<path d="M0 0 C-0.33 0.66 -0.66 1.32 -1 2 C-4.96 2 -8.92 2 -13 2 C-13 2.66 -13 3.32 -13 4 C-18.94 4.495 -18.94 4.495 -25 5 C-16.75804974 0.87902487 -9.10497938 -0.15973648 0 0 Z " fill="#1A1A1A" transform="translate(430,176)"/>
<path d="M0 0 C13.6332574 0.77904328 13.6332574 0.77904328 20 3 C20 3.66 20 4.32 20 5 C13.13963599 4.34034961 6.65556077 2.7637236 0 1 C0 0.67 0 0.34 0 0 Z " fill="#1D1D1D" transform="translate(405,505)"/>
<path d="M0 0 C6.89835786 1.85913191 12.24385683 4.79515783 18 9 C17.01 9.33 16.02 9.66 15 10 C14.34 9.67 13.68 9.34 13 9 C13 8.34 13 7.68 13 7 C11.453125 6.5978125 11.453125 6.5978125 9.875 6.1875 C6.3514958 5.19001103 3.23119173 3.7338102 0 2 C0 1.34 0 0.68 0 0 Z " fill="#101010" transform="translate(464,182)"/>
<path d="M0 0 C0.99 0.33 1.98 0.66 3 1 C3.33 1.99 3.66 2.98 4 4 C4.66 4.33 5.32 4.66 6 5 C6.625 8.0625 6.625 8.0625 7 11 C7.66 11 8.32 11 9 11 C9.33 13.64 9.66 16.28 10 19 C7.94242472 15.91363707 6.19833186 12.76433964 4.4375 9.5 C3.81746094 8.3553125 3.19742187 7.210625 2.55859375 6.03125 C1 3 1 3 0 0 Z " fill="#191919" transform="translate(313,221)"/>
<path d="M0 0 C0.99 0.33 1.98 0.66 3 1 C1.33333333 2.66666667 -0.33333333 4.33333333 -2 6 C-2.886875 6.928125 -3.77375 7.85625 -4.6875 8.8125 C-7 11 -7 11 -9 11 C-7.67667408 6.00076875 -4.39231845 2.60213075 0 0 Z " fill="#6F6F6F" transform="translate(66,422)"/>
<path d="M0 0 C-2.85478326 1.90318884 -4.41941308 2.4619099 -7.6875 3.125 C-8.49574219 3.29257812 -9.30398438 3.46015625 -10.13671875 3.6328125 C-10.75160156 3.75398438 -11.36648438 3.87515625 -12 4 C-12 3.01 -12 2.02 -12 1 C-7.93631321 0.22596442 -4.13574827 -0.0984702 0 0 Z " fill="#151515" transform="translate(461,505)"/>
<path d="M0 0 C3.59634744 3.49359465 6.83451967 7.11098131 10 11 C6.64552375 9.82140024 4.16075263 8.8810035 2 6 C0.8125 2.8125 0.8125 2.8125 0 0 Z " fill="#080808" transform="translate(225,462)"/>
<path d="M0 0 C-0.33 0.99 -0.66 1.98 -1 3 C-1.99 3.33 -2.98 3.66 -4 4 C-4.33 4.66 -4.66 5.32 -5 6 C-7.32156597 6.40729228 -9.6568787 6.74438677 -12 7 C-2.9 0 -2.9 0 0 0 Z " fill="#111111" transform="translate(302,308)"/>
<path d="M0 0 C0.33 0 0.66 0 1 0 C1.66 3.96 2.32 7.92 3 12 C2.01 11.67 1.02 11.34 0 11 C0 7.37 0 3.74 0 0 Z " fill="#292929" transform="translate(51,609)"/>
<path d="M0 0 C1.14926266 0.95421808 2.29430541 1.91352045 3.4375 2.875 C4.07558594 3.40867187 4.71367187 3.94234375 5.37109375 4.4921875 C7 6 7 6 8 8 C7.01 8 6.02 8 5 8 C0 2.65116279 0 2.65116279 0 0 Z " fill="#1B1B1B" transform="translate(412,627)"/>
<path d="M0 0 C0.33 0.66 0.66 1.32 1 2 C-0.65 3.98 -2.3 5.96 -4 8 C-4.99 7.67 -5.98 7.34 -7 7 C-4.69 4.69 -2.38 2.38 0 0 Z " fill="#171717" transform="translate(267,627)"/>
<path d="M0 0 C0.99 0.33 1.98 0.66 3 1 C0.69 3.31 -1.62 5.62 -4 8 C-4.33 7.34 -4.66 6.68 -5 6 C-3.35 4.02 -1.7 2.04 0 0 Z " fill="#282828" transform="translate(234,379)"/>
<path d="M0 0 C2.15377564 2.62198774 3.40072174 4.64404172 4 8 C3.01 8 2.02 8 1 8 C0.26919734 6.02253397 -0.39421747 4.01927511 -1 2 C-0.67 1.34 -0.34 0.68 0 0 Z " fill="#1B1B1B" transform="translate(506,218)"/>
<path d="M0 0 C0.99 0.33 1.98 0.66 3 1 C0.69 3.31 -1.62 5.62 -4 8 C-4.33 7.34 -4.66 6.68 -5 6 C-3.35 4.02 -1.7 2.04 0 0 Z " fill="#151515" transform="translate(417,51)"/>
<path d="M0 0 C2.375 0.1875 2.375 0.1875 5 1 C6.3125 3.5625 6.3125 3.5625 7 6 C1.125 2.25 1.125 2.25 0 0 Z " fill="#0A0A0A" transform="translate(220,489)"/>
<path d="M0 0 C4.03384128 2.07143201 5.92856799 3.96615872 8 8 C6.68 7.34 5.36 6.68 4 6 C4 5.34 4 4.68 4 4 C2.68 3.34 1.36 2.68 0 2 C0 1.34 0 0.68 0 0 Z " fill="#161616" transform="translate(363,364)"/>
<path d="M0 0 C0.99 0.33 1.98 0.66 3 1 C3.33 1.99 3.66 2.98 4 4 C4.66 4.33 5.32 4.66 6 5 C6 5.99 6 6.98 6 8 C5.34 8 4.68 8 4 8 C0 2.58823529 0 2.58823529 0 0 Z " fill="#101010" transform="translate(313,221)"/>
<path d="M0 0 C0.33 0.99 0.66 1.98 1 3 C-0.65 4.65 -2.3 6.3 -4 8 C-4 4.09161134 -2.49432124 2.88405893 0 0 Z " fill="#181818" transform="translate(200,208)"/>
</svg>
