<?xml version="1.0" encoding="UTF-8"?>
<svg version="1.1" xmlns="http://www.w3.org/2000/svg" width="680" height="669">
<path d="M0 0 C2.97 0.495 2.97 0.495 6 1 C6.495 2.485 6.495 2.485 7 4 C9.00016466 5.20882096 9.00016466 5.20882096 11 6 C11 6.66 11 7.32 11 8 C11.99 8.33 12.98 8.66 14 9 C15.68732277 10.98260426 17.35366057 12.9832342 19 15 C19.99 15.66 20.98 16.32 22 17 C22 17.66 22 18.32 22 19 C23.485 19.495 23.485 19.495 25 20 C26.19150188 21.4231828 27.3785862 22.85069043 28.52734375 24.30859375 C30.65238581 26.74929193 33.11466109 28.69649025 35.64453125 30.703125 C36.09183594 31.13109375 36.53914063 31.5590625 37 32 C37 32.66 37 33.32 37 34 C38.485 34.495 38.485 34.495 40 35 C41.68732277 36.98260426 43.35366057 38.9832342 45 41 C46.485 41.99 46.485 41.99 48 43 C48 43.66 48 44.32 48 45 C49.32 45.66 50.64 46.32 52 47 C52 47.66 52 48.32 52 49 C53.485 49.495 53.485 49.495 55 50 C56.68732277 51.98260426 58.35366057 53.9832342 60 56 C60.99 56.66 61.98 57.32 63 58 C63 58.66 63 59.32 63 60 C63.99 60.33 64.98 60.66 66 61 C67.26439145 62.45891321 68.52498852 63.92252344 69.7265625 65.43359375 C71.3505174 67.43115791 73.14709491 69.21572102 75 71 C73.58707905 75.8274799 71.57025846 79.7162359 69 84 C68.34 84 67.68 84 67 84 C66.34 86.31 65.68 88.62 65 91 C64.34 91 63.68 91 63 91 C62.67 92.32 62.34 93.64 62 95 C61.34 95 60.68 95 60 95 C59.855625 95.94875 59.71125 96.8975 59.5625 97.875 C59 101 59 101 58 103 C57.34 103 56.68 103 56 103 C55.34 106.3 54.68 109.6 54 113 C53.34 113 52.68 113 52 113 C51.89042969 113.54527344 51.78085938 114.09054688 51.66796875 114.65234375 C50.48990063 120.25535065 48.912965 125.6054387 47 131 C46.34 131 45.68 131 45 131 C44.93941406 131.60328125 44.87882812 132.2065625 44.81640625 132.828125 C44.69072266 134.02695312 44.69072266 134.02695312 44.5625 135.25 C44.44068359 136.43335938 44.44068359 136.43335938 44.31640625 137.640625 C44.02365007 139.82364639 43.57935581 141.8773182 43 144 C42.34 144 41.68 144 41 144 C40.93941406 144.79921875 40.87882812 145.5984375 40.81640625 146.421875 C40.24202655 153.95066739 39.63714523 161.47626372 39 169 C38.34 169 37.68 169 37 169 C37.11729117 175.96017384 37.24212705 182.92018245 37.37231445 189.88012695 C37.4157381 192.24988708 37.45740749 194.61968 37.49731445 196.98950195 C37.55483768 200.38763333 37.61858303 203.78559843 37.68359375 207.18359375 C37.70030624 208.25024765 37.71701874 209.31690155 37.73423767 210.4158783 C37.7641555 211.88729027 37.7641555 211.88729027 37.79467773 213.38842773 C37.81799416 214.69081642 37.81799416 214.69081642 37.84178162 216.01951599 C37.78462425 218.00080779 37.78462425 218.00080779 39 219 C39.40397852 221.19976624 39.7478353 223.41069283 40.0625 225.625 C40.32740234 227.43871094 40.32740234 227.43871094 40.59765625 229.2890625 C40.98846616 232.89361989 41.06983746 236.37776355 41 240 C41.66 240 42.32 240 43 240 C43.33820166 241.5823006 43.67035939 243.16589375 44 244.75 C44.185625 245.63171875 44.37125 246.5134375 44.5625 247.421875 C45 250 45 250 45 254 C45.66 254 46.32 254 47 254 C47.73463894 256.20391682 48.46873509 258.40798223 49.19921875 260.61328125 C49.83922342 262.52080736 50.50851799 264.41849755 51.1875 266.3125 C52 269 52 269 52 273 C52.66 273 53.32 273 54 273 C55.25664978 275.90600261 56 277.79604584 56 281 C56.66 281 57.32 281 58 281 C58.433125 282.7015625 58.433125 282.7015625 58.875 284.4375 C59.24625 285.613125 59.6175 286.78875 60 288 C60.66 288.33 61.32 288.66 62 289 C62.625 292.0625 62.625 292.0625 63 295 C63.66 295 64.32 295 65 295 C65.99 298.465 65.99 298.465 67 302 C67.66 302 68.32 302 69 302 C72.05534254 305.5645663 73.84174593 309.06630099 74.625 313.6875 C73.83286044 317.88583969 72.3179402 319.39304699 69 322 C68.34 322 67.68 322 67 322 C66.9175 322.5775 66.835 323.155 66.75 323.75 C65.78202213 326.6539336 64.31305716 328.03740604 62 330 C61.34 330 60.68 330 60 330 C59.34 331.32 58.68 332.64 58 334 C57.34 334 56.68 334 56 334 C55.7421875 334.58265625 55.484375 335.1653125 55.21875 335.765625 C53.90165983 338.1802903 52.44911616 339.81740177 50.5 341.75 C49.8915625 342.36359375 49.283125 342.9771875 48.65625 343.609375 C47 345 47 345 45 345 C44.34 346.32 43.68 347.64 43 349 C42.34 349 41.68 349 41 349 C40.731875 349.598125 40.46375 350.19625 40.1875 350.8125 C39.00082594 352.99847854 37.90400887 354.41332594 36 356 C35.34 356 34.68 356 34 356 C33.34 357.32 32.68 358.64 32 360 C31.34 360 30.68 360 30 360 C29.34 361.32 28.68 362.64 28 364 C27.34 364 26.68 364 26 364 C25.731875 364.598125 25.46375 365.19625 25.1875 365.8125 C24.00082594 367.99847854 22.90400887 369.41332594 21 371 C20.34 371 19.68 371 19 371 C18.34 372.32 17.68 373.64 17 375 C16.34 375 15.68 375 15 375 C14.67 375.99 14.34 376.98 14 378 C13.01 378 12.02 378 11 378 C10.34 379.32 9.68 380.64 9 382 C8.34 382 7.68 382 7 382 C6.67 382.99 6.34 383.98 6 385 C1.96115115 385.46963359 0.45878506 385.35683282 -2.8125 382.8125 C-4.9882377 380.01512296 -5.70197895 378.47691229 -6 375 C-6.99 374.67 -7.98 374.34 -9 374 C-9 373.01 -9 372.02 -9 371 C-9.99 370.67 -10.98 370.34 -12 370 C-12.495 368.515 -12.495 368.515 -13 367 C-13.66 366.67 -14.32 366.34 -15 366 C-16.57548683 363.37418862 -17 362.12900213 -17 359 C-17.99 358.67 -18.98 358.34 -20 358 C-21.09765625 355.96875 -21.09765625 355.96875 -22.0625 353.5 C-23.22702003 350.03943188 -23.22702003 350.03943188 -26 348 C-27.3749149 345.09740189 -28 343.23861295 -28 340 C-28.66 340 -29.32 340 -30 340 C-31.4606285 337.35261084 -32 336.10551666 -32 333 C-32.66 333 -33.32 333 -34 333 C-34.83986084 331.06532058 -35.67168027 329.12714871 -36.5 327.1875 C-36.9640625 326.10855469 -37.428125 325.02960938 -37.90625 323.91796875 C-39 321 -39 321 -39 318 C-39.66 318 -40.32 318 -41 318 C-41.66 314.7 -42.32 311.4 -43 308 C-43.66 308 -44.32 308 -45 308 C-46.31626692 304.38026598 -47 301.90432869 -47 298 C-47.66 298 -48.32 298 -49 298 C-49.33 295.03 -49.66 292.06 -50 289 C-50.66 289 -51.32 289 -52 289 C-54.28571429 280.57142857 -54.28571429 280.57142857 -54 276 C-54.66 276 -55.32 276 -56 276 C-58.29612756 264.47835991 -58.29612756 264.47835991 -58 259 C-58.66 259 -59.32 259 -60 259 C-61.43794854 250.92437827 -62.29599372 243.2056037 -62 235 C-62.66 235 -63.32 235 -64 235 C-64.98067226 225.60506451 -65.32757934 216.23091646 -65.60546875 206.79296875 C-65.64285156 205.67277344 -65.68023437 204.55257812 -65.71875 203.3984375 C-65.74904297 202.38442871 -65.77933594 201.37041992 -65.81054688 200.32568359 C-65.74414487 198.04006826 -65.74414487 198.04006826 -67 197 C-67.07226502 195.14712498 -67.0838122 193.29166122 -67.0625 191.4375 C-67.05347656 190.42558594 -67.04445313 189.41367187 -67.03515625 188.37109375 C-67.01775391 187.19740234 -67.01775391 187.19740234 -67 186 C-66.34 186 -65.68 186 -65 186 C-65.00523682 185.40687012 -65.01047363 184.81374023 -65.01586914 184.20263672 C-65.10341746 172.7504305 -65.09047353 161.41102662 -64 150 C-63.34 150 -62.68 150 -62 150 C-61.93941406 148.91460937 -61.87882812 147.82921875 -61.81640625 146.7109375 C-61.73193936 145.26561514 -61.64729449 143.82030318 -61.5625 142.375 C-61.52318359 141.66214844 -61.48386719 140.94929687 -61.44335938 140.21484375 C-61.19690319 136.08196318 -60.76529947 132.07730976 -60 128 C-59.34 128 -58.68 128 -58 128 C-58.04125 127.071875 -58.0825 126.14375 -58.125 125.1875 C-58.1462373 120.0268365 -57.02043018 115.03837402 -56 110 C-55.34 110 -54.68 110 -54 110 C-53.93941406 109.39671875 -53.87882812 108.7934375 -53.81640625 108.171875 C-53.73261719 107.37265625 -53.64882813 106.5734375 -53.5625 105.75 C-53.48128906 104.96109375 -53.40007813 104.1721875 -53.31640625 103.359375 C-53.02365007 101.17635361 -52.57935581 99.1226818 -52 97 C-51.34 97 -50.68 97 -50 97 C-49.896875 95.824375 -49.79375 94.64875 -49.6875 93.4375 C-49.16471828 89.15675114 -47.80135931 85.90294518 -46 82 C-45.62691369 80.67723944 -45.26953585 79.34767923 -45 78 C-44.34 78 -43.68 78 -43 78 C-42.34 74.7 -41.68 71.4 -41 68 C-40.34 68 -39.68 68 -39 68 C-38.855625 67.236875 -38.71125 66.47375 -38.5625 65.6875 C-38 63 -38 63 -37 60 C-36.34 60 -35.68 60 -35 60 C-34.814375 58.2984375 -34.814375 58.2984375 -34.625 56.5625 C-34.41875 55.386875 -34.2125 54.21125 -34 53 C-33.34 52.67 -32.68 52.34 -32 52 C-31.27306096 50.02111039 -30.60183749 48.02045442 -30 46 C-29.34 46 -28.68 46 -28 46 C-27.855625 45.236875 -27.71125 44.47375 -27.5625 43.6875 C-27 41 -27 41 -26 38 C-25.34 37.67 -24.68 37.34 -24 37 C-23.11249875 35.36153616 -22.28694963 33.68906261 -21.5 32 C-19.22222222 27.11111111 -19.22222222 27.11111111 -17 26 C-16.505 24.515 -16.505 24.515 -16 23 C-15.505 21.515 -15.505 21.515 -15 20 C-14.34 19.67 -13.68 19.34 -13 19 C-11.86649466 16.98330173 -11.86649466 16.98330173 -11 15 C-10.34 15 -9.68 15 -9 15 C-8.67 13.68 -8.34 12.36 -8 11 C-7.34 11 -6.68 11 -6 11 C-5.566875 9.5459375 -5.566875 9.5459375 -5.125 8.0625 C-4 5 -4 5 -2 4 C-0.86649466 1.98330173 -0.86649466 1.98330173 0 0 Z " fill="#FBFBFB" transform="translate(97,140)"/>
<path d="M0 0 C1.10875488 -0.00095673 2.21750977 -0.00191345 3.35986328 -0.00289917 C5.68587298 -0.00357457 8.01188463 -0.00176534 10.33789062 0.00244141 C13.86592914 0.00779873 17.39384037 0.00247445 20.921875 -0.00390625 C23.19791694 -0.00324536 25.47395881 -0.00196396 27.75 0 C29.30678467 -0.00303635 29.30678467 -0.00303635 30.89501953 -0.00613403 C37.93169889 0.01601481 44.87204219 0.45096499 51.875 1.1328125 C51.875 1.7928125 51.875 2.4528125 51.875 3.1328125 C52.42285156 3.10960937 52.97070312 3.08640625 53.53515625 3.0625 C61.46035134 2.88208905 69.05315332 3.96475006 76.875 5.1328125 C76.875 5.7928125 76.875 6.4528125 76.875 7.1328125 C77.97908203 7.22369141 77.97908203 7.22369141 79.10546875 7.31640625 C80.56919922 7.44208984 80.56919922 7.44208984 82.0625 7.5703125 C83.50689453 7.69212891 83.50689453 7.69212891 84.98046875 7.81640625 C87.66149602 8.10947401 90.2412986 8.55985004 92.875 9.1328125 C92.875 9.7928125 92.875 10.4528125 92.875 11.1328125 C96.175 11.4628125 99.475 11.7928125 102.875 12.1328125 C102.875 12.7928125 102.875 13.4528125 102.875 14.1328125 C104.1125 14.2771875 105.35 14.4215625 106.625 14.5703125 C109.44004499 14.91969752 112.1451497 15.33660616 114.875 16.1328125 C114.875 16.7928125 114.875 17.4528125 114.875 18.1328125 C116.133125 18.2771875 117.39125 18.4215625 118.6875 18.5703125 C121.30167123 18.87029936 123.34939892 19.29094547 125.875 20.1328125 C125.875 20.7928125 125.875 21.4528125 125.875 22.1328125 C127.36966797 22.27203125 127.36966797 22.27203125 128.89453125 22.4140625 C133.19845583 23.02937314 136.70638245 24.69502588 140.5625 26.6328125 C146.02040422 29.42070858 146.02040422 29.42070858 151.875 31.1328125 C151.875 31.7928125 151.875 32.4528125 151.875 33.1328125 C152.638125 33.2771875 153.40125 33.4215625 154.1875 33.5703125 C156.875 34.1328125 156.875 34.1328125 159.875 35.1328125 C159.875 35.7928125 159.875 36.4528125 159.875 37.1328125 C162.185 37.7928125 164.495 38.4528125 166.875 39.1328125 C166.875 39.7928125 166.875 40.4528125 166.875 41.1328125 C167.57625 41.2153125 168.2775 41.2978125 169 41.3828125 C172.5653452 42.31290255 174.96515572 43.89967619 177.875 46.1328125 C177.875 46.7928125 177.875 47.4528125 177.875 48.1328125 C178.65875 48.2771875 179.4425 48.4215625 180.25 48.5703125 C182.875 49.1328125 182.875 49.1328125 184.875 50.1328125 C184.875 50.7928125 184.875 51.4528125 184.875 52.1328125 C186.195 52.4628125 187.515 52.7928125 188.875 53.1328125 C188.875 53.7928125 188.875 54.4528125 188.875 55.1328125 C189.514375 55.2359375 190.15375 55.3390625 190.8125 55.4453125 C191.493125 55.6721875 192.17375 55.8990625 192.875 56.1328125 C193.205 57.1228125 193.535 58.1128125 193.875 59.1328125 C194.65875 59.2771875 195.4425 59.4215625 196.25 59.5703125 C198.875 60.1328125 198.875 60.1328125 200.875 61.1328125 C200.875 61.7928125 200.875 62.4528125 200.875 63.1328125 C201.638125 63.4009375 202.40125 63.6690625 203.1875 63.9453125 C205.78745703 65.09413072 207.26385423 65.80560194 208.875 68.1328125 C208.875 72.30246649 205.62689892 75.29238063 202.875 78.1328125 C200.875 79.79947917 198.875 81.46614583 196.875 83.1328125 C196.070625 84.1021875 195.26625 85.0715625 194.4375 86.0703125 C191.57581309 89.49037735 188.51921248 92.54422832 184.875 95.1328125 C184.215 95.1328125 183.555 95.1328125 182.875 95.1328125 C182.689375 95.8340625 182.50375 96.5353125 182.3125 97.2578125 C180.59699389 100.68882472 178.54573812 102.28933648 175.6015625 104.6640625 C173.70457678 106.18354544 173.70457678 106.18354544 171.875 108.6328125 C170.1421715 110.79884812 168.5537616 112.31813892 166.4375 114.0703125 C163.15476108 116.79428735 160.60099291 119.84764155 157.875 123.1328125 C155.875 124.79947917 153.875 126.46614583 151.875 128.1328125 C150.67356698 129.58717878 149.47242484 131.04186029 148.28515625 132.5078125 C141.03475733 140.86284283 141.03475733 140.86284283 135.375 141.5703125 C134.55 141.4259375 133.725 141.2815625 132.875 141.1328125 C132.875 140.4728125 132.875 139.8128125 132.875 139.1328125 C131.555 138.8028125 130.235 138.4728125 128.875 138.1328125 C128.875 137.4728125 128.875 136.8128125 128.875 136.1328125 C128.276875 135.9884375 127.67875 135.8440625 127.0625 135.6953125 C125.31349596 135.2455686 123.58822977 134.70388909 121.875 134.1328125 C121.875 133.4728125 121.875 132.8128125 121.875 132.1328125 C121.276875 131.9884375 120.67875 131.8440625 120.0625 131.6953125 C118.31349596 131.2455686 116.58822977 130.70388909 114.875 130.1328125 C114.875 129.4728125 114.875 128.8128125 114.875 128.1328125 C114.111875 127.9884375 113.34875 127.8440625 112.5625 127.6953125 C109.875 127.1328125 109.875 127.1328125 106.875 126.1328125 C106.875 125.4728125 106.875 124.8128125 106.875 124.1328125 C105.225 123.8028125 103.575 123.4728125 101.875 123.1328125 C101.875 122.4728125 101.875 121.8128125 101.875 121.1328125 C98.575 120.4728125 95.275 119.8128125 91.875 119.1328125 C91.875 118.4728125 91.875 117.8128125 91.875 117.1328125 C88.245 116.4728125 84.615 115.8128125 80.875 115.1328125 C80.875 114.4728125 80.875 113.8128125 80.875 113.1328125 C79.6375 112.9884375 78.4 112.8440625 77.125 112.6953125 C74.30995501 112.34592748 71.6048503 111.92901884 68.875 111.1328125 C68.875 110.4728125 68.875 109.8128125 68.875 109.1328125 C65.245 108.8028125 61.615 108.4728125 57.875 108.1328125 C57.875 107.4728125 57.875 106.8128125 57.875 106.1328125 C57.00359375 106.07222656 56.1321875 106.01164062 55.234375 105.94921875 C47.44254538 105.40109221 39.6573033 104.80271773 31.875 104.1328125 C31.875 103.4728125 31.875 102.8128125 31.875 102.1328125 C19.995 102.1328125 8.115 102.1328125 -4.125 102.1328125 C-4.125 102.7928125 -4.125 103.4528125 -4.125 104.1328125 C-7.33282685 104.4711415 -10.54133098 104.80257396 -13.75 105.1328125 C-14.65363281 105.22820312 -15.55726563 105.32359375 -16.48828125 105.421875 C-21.05563039 105.88861141 -25.52617188 106.25504049 -30.125 106.1328125 C-30.125 106.7928125 -30.125 107.4528125 -30.125 108.1328125 C-33.755 108.4628125 -37.385 108.7928125 -41.125 109.1328125 C-41.125 109.7928125 -41.125 110.4528125 -41.125 111.1328125 C-47.065 112.1228125 -47.065 112.1228125 -53.125 113.1328125 C-53.125 113.7928125 -53.125 114.4528125 -53.125 115.1328125 C-58.57 116.1228125 -58.57 116.1228125 -64.125 117.1328125 C-64.125 117.7928125 -64.125 118.4528125 -64.125 119.1328125 C-68.58 120.1228125 -68.58 120.1228125 -73.125 121.1328125 C-73.125 121.7928125 -73.125 122.4528125 -73.125 123.1328125 C-75.105 123.4628125 -77.085 123.7928125 -79.125 124.1328125 C-79.125 124.7928125 -79.125 125.4528125 -79.125 126.1328125 C-82.03100261 127.38946228 -83.92104584 128.1328125 -87.125 128.1328125 C-87.125 128.7928125 -87.125 129.4528125 -87.125 130.1328125 C-91.2831826 132.14890103 -94.5259448 132.76716494 -99.125 132.1328125 C-103.68576126 129.27397053 -106.79832339 125.29115826 -110.125 121.1328125 C-111.2540557 120.13434637 -112.40156047 119.15652049 -113.5625 118.1953125 C-116.84523892 115.47133765 -119.39900709 112.41798345 -122.125 109.1328125 C-123.61 107.8953125 -123.61 107.8953125 -125.125 106.6328125 C-128.23205716 104.0435982 -130.54113738 101.23344764 -133.125 98.1328125 C-134.61 96.8953125 -134.61 96.8953125 -136.125 95.6328125 C-139.23205716 93.0435982 -141.54113738 90.23344764 -144.125 87.1328125 C-145.115 86.3078125 -146.105 85.4828125 -147.125 84.6328125 C-150.125 82.1328125 -150.125 82.1328125 -152.5625 79.1953125 C-154.562132 76.8055084 -156.32480413 75.03084737 -158.6875 73.0703125 C-161.57271101 70.67016972 -163.97018501 68.23574609 -166.125 65.1328125 C-166.125 64.4728125 -166.125 63.8128125 -166.125 63.1328125 C-166.785 63.1328125 -167.445 63.1328125 -168.125 63.1328125 C-168.4375 60.8203125 -168.4375 60.8203125 -168.125 58.1328125 C-165.7417054 56.31398241 -164.16681663 55.1328125 -161.125 55.1328125 C-161.125 54.4728125 -161.125 53.8128125 -161.125 53.1328125 C-159.145 52.6378125 -159.145 52.6378125 -157.125 52.1328125 C-157.125 51.4728125 -157.125 50.8128125 -157.125 50.1328125 C-155.145 49.4728125 -153.165 48.8128125 -151.125 48.1328125 C-151.125 47.4728125 -151.125 46.8128125 -151.125 46.1328125 C-148.815 45.4728125 -146.505 44.8128125 -144.125 44.1328125 C-144.125 43.4728125 -144.125 42.8128125 -144.125 42.1328125 C-141.65 41.6378125 -141.65 41.6378125 -139.125 41.1328125 C-139.125 40.4728125 -139.125 39.8128125 -139.125 39.1328125 C-136.47761084 37.672184 -135.23051666 37.1328125 -132.125 37.1328125 C-132.125 36.4728125 -132.125 35.8128125 -132.125 35.1328125 C-129.21899739 33.87616272 -127.32895416 33.1328125 -124.125 33.1328125 C-124.125 32.4728125 -124.125 31.8128125 -124.125 31.1328125 C-121.485 30.4728125 -118.845 29.8128125 -116.125 29.1328125 C-116.125 28.4728125 -116.125 27.8128125 -116.125 27.1328125 C-113.815 26.8028125 -111.505 26.4728125 -109.125 26.1328125 C-109.125 25.4728125 -109.125 24.8128125 -109.125 24.1328125 C-105.825 23.4728125 -102.525 22.8128125 -99.125 22.1328125 C-99.125 21.4728125 -99.125 20.8128125 -99.125 20.1328125 C-93.68 19.1428125 -93.68 19.1428125 -88.125 18.1328125 C-88.125 17.4728125 -88.125 16.8128125 -88.125 16.1328125 C-79.69642857 13.84709821 -79.69642857 13.84709821 -75.125 14.1328125 C-75.125 13.4728125 -75.125 12.8128125 -75.125 12.1328125 C-71.825 11.8028125 -68.525 11.4728125 -65.125 11.1328125 C-65.125 10.4728125 -65.125 9.8128125 -65.125 9.1328125 C-59.05684478 7.90381904 -53.32604812 6.85721036 -47.125 7.1328125 C-47.125 6.4728125 -47.125 5.8128125 -47.125 5.1328125 C-31.38012528 2.83668494 -31.38012528 2.83668494 -24.125 3.1328125 C-24.125 2.4728125 -24.125 1.8128125 -24.125 1.1328125 C-16.06420033 0.34796754 -8.09696761 -0.01579229 0 0 Z " fill="#FAFAFA" transform="translate(325.125,24.8671875)"/>
<path d="M0 0 C1.65 0 3.3 0 5 0 C5 0.66 5 1.32 5 2 C5.99 2.33 6.98 2.66 8 3 C8 3.66 8 4.32 8 5 C9.98 5.99 9.98 5.99 12 7 C12 7.66 12 8.32 12 9 C13.98 9.99 13.98 9.99 16 11 C16 11.66 16 12.32 16 13 C17.98 13.99 17.98 13.99 20 15 C20 15.66 20 16.32 20 17 C20.99 17.33 21.98 17.66 23 18 C23 18.66 23 19.32 23 20 C24.98 20.99 24.98 20.99 27 22 C27 22.66 27 23.32 27 24 C28.98 24.99 28.98 24.99 31 26 C31 26.66 31 27.32 31 28 C32.98 28.99 32.98 28.99 35 30 C35 30.66 35 31.32 35 32 C35.99 32.33 36.98 32.66 38 33 C38 33.66 38 34.32 38 35 C39.32 35.66 40.64 36.32 42 37 C42 37.66 42 38.32 42 39 C43.32 39.66 44.64 40.32 46 41 C46 41.66 46 42.32 46 43 C46.99 43.33 47.98 43.66 49 44 C51.1875 45.9375 51.1875 45.9375 53 48 C53 48.66 53 49.32 53 50 C54.32 50.66 55.64 51.32 57 52 C57 52.66 57 53.32 57 54 C58.32 54.66 59.64 55.32 61 56 C61 56.66 61 57.32 61 58 C61.99 58.33 62.98 58.66 64 59 C64 59.66 64 60.32 64 61 C65.32 61.66 66.64 62.32 68 63 C68 63.66 68 64.32 68 65 C69.32 65.66 70.64 66.32 72 67 C72 67.66 72 68.32 72 69 C72.99 69.33 73.98 69.66 75 70 C75 71.32 75 72.64 75 74 C74.01 74 73.02 74 72 74 C71.34 75.32 70.68 76.64 70 78 C69.34 78 68.68 78 68 78 C68 78.66 68 79.32 68 80 C67.360625 80.28875 66.72125 80.5775 66.0625 80.875 C63.84793921 81.82823451 63.84793921 81.82823451 63 84 C60.37418862 85.57548683 59.12900213 86 56 86 C55.67 86.99 55.34 87.98 55 89 C54.01 89 53.02 89 52 89 C52 89.66 52 90.32 52 91 C49.35261084 92.4606285 48.10551666 93 45 93 C44.67 93.99 44.34 94.98 44 96 C42.02 96.33 40.04 96.66 38 97 C37.67 97.99 37.34 98.98 37 100 C36.01 100 35.02 100 34 100 C34 100.66 34 101.32 34 102 C30.535 102.99 30.535 102.99 27 104 C27 104.66 27 105.32 27 106 C24.09399739 107.25664978 22.20395416 108 19 108 C19 108.66 19 109.32 19 110 C15.62902617 111.49821059 13.79557881 112 10 112 C10 112.66 10 113.32 10 114 C8.02 114.33 6.04 114.66 4 115 C4 115.66 4 116.32 4 117 C-0.95 117.99 -0.95 117.99 -6 119 C-6 119.66 -6 120.32 -6 121 C-6.61746094 121.18175781 -7.23492187 121.36351562 -7.87109375 121.55078125 C-12.22173054 122.84206614 -16.53340269 124.17468782 -20.8125 125.6875 C-23.98388293 126.76711972 -26.61349691 127.32772611 -30 127 C-30 127.66 -30 128.32 -30 129 C-33.3 129.33 -36.6 129.66 -40 130 C-40 130.66 -40 131.32 -40 132 C-51.52164009 134.29612756 -51.52164009 134.29612756 -57 134 C-57 134.66 -57 135.32 -57 136 C-74.85649203 138.29612756 -74.85649203 138.29612756 -83 138 C-83 138.66 -83 139.32 -83 140 C-94.33623154 141.07917286 -105.61773311 141.15406499 -116.99536133 141.13037109 C-120.06010876 141.12500419 -123.12471008 141.13034969 -126.18945312 141.13671875 C-136.17397895 141.13975236 -146.06021349 141.0457918 -156 140 C-156 139.34 -156 138.68 -156 138 C-157.134375 138.04125 -158.26875 138.0825 -159.4375 138.125 C-167.00092134 138.14931968 -174.51196806 136.96286978 -182 136 C-182 135.34 -182 134.68 -182 134 C-182.72445312 133.93941406 -183.44890625 133.87882813 -184.1953125 133.81640625 C-189.17116533 133.38516567 -194.08680391 132.92952359 -199 132 C-199 131.34 -199 130.68 -199 130 C-201.97 129.67 -204.94 129.34 -208 129 C-208 128.34 -208 127.68 -208 127 C-208.60328125 126.93941406 -209.2065625 126.87882813 -209.828125 126.81640625 C-210.62734375 126.73261719 -211.4265625 126.64882813 -212.25 126.5625 C-213.43335938 126.44068359 -213.43335938 126.44068359 -214.640625 126.31640625 C-216.82364639 126.02365007 -218.8773182 125.57935581 -221 125 C-221 124.34 -221 123.68 -221 123 C-226.445 122.01 -226.445 122.01 -232 121 C-232 120.34 -232 119.68 -232 119 C-235.3 118.34 -238.6 117.68 -242 117 C-242 116.34 -242 115.68 -242 115 C-244.31 114.67 -246.62 114.34 -249 114 C-249 113.34 -249 112.68 -249 112 C-251.64 111.34 -254.28 110.68 -257 110 C-257 109.34 -257 108.68 -257 108 C-257.763125 107.855625 -258.52625 107.71125 -259.3125 107.5625 C-262 107 -262 107 -265 106 C-265 105.34 -265 104.68 -265 104 C-265.598125 103.855625 -266.19625 103.71125 -266.8125 103.5625 C-268.56150404 103.1127561 -270.28677023 102.57107659 -272 102 C-272 101.34 -272 100.68 -272 100 C-273.65 99.67 -275.3 99.34 -277 99 C-277 98.34 -277 97.68 -277 97 C-279.31 96.34 -281.62 95.68 -284 95 C-284 94.34 -284 93.68 -284 93 C-285.98 92.34 -287.96 91.68 -290 91 C-290 90.34 -290 89.68 -290 89 C-291.32 88.67 -292.64 88.34 -294 88 C-294 87.34 -294 86.68 -294 86 C-296.31 85.34 -298.62 84.68 -301 84 C-301.75 82.25 -301.75 82.25 -302 80 C-300.1875 77.75 -300.1875 77.75 -298 76 C-297.34 76 -296.68 76 -296 76 C-295.7525 75.443125 -295.505 74.88625 -295.25 74.3125 C-292.31916133 68.89044846 -287.98885533 64.57575591 -283 61 C-282.34 61 -281.68 61 -281 61 C-280.814375 60.29875 -280.62875 59.5975 -280.4375 58.875 C-278.47932486 54.95864972 -275.59323769 52.4661136 -272 50 C-271.34 50 -270.68 50 -270 50 C-269.34 48.68 -268.68 47.36 -268 46 C-267.34 46 -266.68 46 -266 46 C-265.7215625 44.948125 -265.7215625 44.948125 -265.4375 43.875 C-263.47932486 39.95864972 -260.59323769 37.4661136 -257 35 C-256.34 35 -255.68 35 -255 35 C-254.7525 34.443125 -254.505 33.88625 -254.25 33.3125 C-251.31916133 27.89044846 -246.98885533 23.57575591 -242 20 C-241.34 20 -240.68 20 -240 20 C-239.7215625 18.948125 -239.7215625 18.948125 -239.4375 17.875 C-237.44334172 13.88668345 -234.77244698 11.3597524 -231 9 C-226.76129445 8.32180711 -223.84775369 9.18929238 -220 11 C-220 11.66 -220 12.32 -220 13 C-219.236875 13.144375 -218.47375 13.28875 -217.6875 13.4375 C-215 14 -215 14 -212 15 C-212 15.66 -212 16.32 -212 17 C-210.02 17.33 -208.04 17.66 -206 18 C-206 18.66 -206 19.32 -206 20 C-201.545 20.99 -201.545 20.99 -197 22 C-197 22.66 -197 23.32 -197 24 C-195.9275 24.144375 -194.855 24.28875 -193.75 24.4375 C-191.08337051 24.83749442 -188.58600271 25.27591924 -186 26 C-186 26.66 -186 27.32 -186 28 C-184.7625 28.144375 -183.525 28.28875 -182.25 28.4375 C-179.43495501 28.78688502 -176.7298503 29.20379366 -174 30 C-174 30.66 -174 31.32 -174 32 C-170.7 32.33 -167.4 32.66 -164 33 C-164 33.66 -164 34.32 -164 35 C-155.42 35.66 -146.84 36.32 -138 37 C-138 37.66 -138 38.32 -138 39 C-126.12 39 -114.24 39 -102 39 C-102 38.34 -102 37.68 -102 37 C-98.62545836 36.66191643 -95.25030319 36.33038682 -91.875 36 C-90.92367187 35.90460937 -89.97234375 35.80921875 -88.9921875 35.7109375 C-84.30899618 35.25562723 -79.7123674 34.87306754 -75 35 C-75 34.34 -75 33.68 -75 33 C-71.37 32.67 -67.74 32.34 -64 32 C-64 31.34 -64 30.68 -64 30 C-62.7625 29.67 -61.525 29.34 -60.25 29 C-59.55390625 28.814375 -58.8578125 28.62875 -58.140625 28.4375 C-56 28 -56 28 -52 28 C-52 27.34 -52 26.68 -52 26 C-48.12315913 24.80712589 -45.08378077 24 -41 24 C-41 23.34 -41 22.68 -41 22 C-37.7 21.34 -34.4 20.68 -31 20 C-31 19.34 -31 18.68 -31 18 C-29.35 17.67 -27.7 17.34 -26 17 C-26 16.34 -26 15.68 -26 15 C-23.09399739 13.74335022 -21.20395416 13 -18 13 C-18 12.34 -18 11.68 -18 11 C-15.35261084 9.5393715 -14.10551666 9 -11 9 C-11 8.34 -11 7.68 -11 7 C-8.35261084 5.5393715 -7.10551666 5 -4 5 C-3.67 4.01 -3.34 3.02 -3 2 C-2.01 2 -1.02 2 0 2 C0 1.34 0 0.68 0 0 Z " fill="#FAFAFA" transform="translate(458,500)"/>
<path d="M0 0 C1.65 0 3.3 0 5 0 C5 0.99 5 1.98 5 3 C5.99 3.33 6.98 3.66 8 4 C8 4.99 8 5.98 8 7 C8.99 7.33 9.98 7.66 11 8 C12.31640625 10.25 12.31640625 10.25 13.5625 13 C15.02364577 16.70967628 15.02364577 16.70967628 18 19 C19.57548683 21.62581138 20 22.87099787 20 26 C20.66 26 21.32 26 22 26 C22.495 28.475 22.495 28.475 23 31 C23.66 31 24.32 31 25 31 C25.99 35.455 25.99 35.455 27 40 C27.66 40 28.32 40 29 40 C30.25664978 42.90600261 31 44.79604584 31 48 C31.66 48 32.32 48 33 48 C35.81532819 53.04140164 37.5188509 57.22621075 38 63 C38.66 63 39.32 63 40 63 C41.19287411 66.87684087 42 69.91621923 42 74 C42.66 74 43.32 74 44 74 C45.13764351 78.26616316 46 81.56486311 46 86 C46.66 86 47.32 86 48 86 C52.20888168 100.36331951 52.20888168 100.36331951 53.5078125 106.9375 C53.99902924 109.15150087 53.99902924 109.15150087 54.98828125 111.82421875 C56.05220077 115.16385801 56.59058107 118.34250783 57.0625 121.8125 C57.28810777 125.72681211 57.28810777 125.72681211 59 129 C61.46056318 144.78182582 61.31846992 161.06453076 61.26074219 176.99072266 C61.25000644 180.49789705 61.26072509 184.0045595 61.2734375 187.51171875 C61.28125957 202.4330923 60.50927428 217.15546953 59 232 C58.34 232 57.68 232 57 232 C56.93941406 232.92941406 56.87882813 233.85882813 56.81640625 234.81640625 C55.98418278 247.09490334 55.98418278 247.09490334 55 253 C54.34 253 53.68 253 53 253 C52.93941406 253.58007812 52.87882813 254.16015625 52.81640625 254.7578125 C52.33983439 259.20092863 51.78991334 263.59905423 51 268 C50.34 268 49.68 268 49 268 C48.67 270.64 48.34 273.28 48 276 C47.34 276 46.68 276 46 276 C45.855625 277.2375 45.71125 278.475 45.5625 279.75 C45.21311498 282.56504499 44.79620634 285.2701497 44 288 C43.34 288 42.68 288 42 288 C41.855625 289.0725 41.71125 290.145 41.5625 291.25 C41.16250558 293.91662949 40.72408076 296.41399729 40 299 C39.34 299 38.68 299 38 299 C37.9175 299.804375 37.835 300.60875 37.75 301.4375 C36.79803325 305.95934205 34.98419821 309.84702701 33 314 C32.34 314 31.68 314 31 314 C30.855625 314.94875 30.71125 315.8975 30.5625 316.875 C30 320 30 320 29 322 C28.34 322 27.68 322 27 322 C26.9175 322.845625 26.835 323.69125 26.75 324.5625 C25.84266147 328.72113491 24.23458727 331.39582699 22 335 C21.34 335 20.68 335 20 335 C19.34 337.31 18.68 339.62 18 342 C17.34 342 16.68 342 16 342 C15.34 343.98 14.68 345.96 14 348 C13.34 348 12.68 348 12 348 C11.67 349.98 11.34 351.96 11 354 C10.01 354.33 9.02 354.66 8 355 C7.26676204 357.01508358 7.26676204 357.01508358 7 359 C6.34 359 5.68 359 5 359 C4.67 359.99 4.34 360.98 4 362 C-0.51322464 361.8230108 -2.42008717 361.62234547 -5.5625 358.25 C-5.95695313 357.70730469 -6.35140625 357.16460937 -6.7578125 356.60546875 C-8.1289494 354.71288047 -8.1289494 354.71288047 -10.9375 352.5625 C-13.88311645 350.09780052 -16.13247909 347.560772 -18.56640625 344.62109375 C-20.07184232 342.82559747 -20.07184232 342.82559747 -22.5 341 C-24.66603562 339.2671715 -26.18532642 337.6787616 -27.9375 335.5625 C-30.66147485 332.27976108 -33.71482905 329.72599291 -37 327 C-38.66666667 325 -40.33333333 323 -42 321 C-43.485 319.7625 -43.485 319.7625 -45 318.5 C-48.10705716 315.9107857 -50.41613738 313.10063514 -53 310 C-54.485 308.7625 -54.485 308.7625 -56 307.5 C-59.10705716 304.9107857 -61.41613738 302.10063514 -64 299 C-65.06639545 298.10443489 -66.14993039 297.22886355 -67.25 296.375 C-70 294 -70 294 -70.9375 291.875 C-71 290 -71 290 -70 287 C-69.34 287 -68.68 287 -68 287 C-67.9175 286.01 -67.835 285.02 -67.75 284 C-67.13691993 279.52543052 -65.18031955 275.90429315 -63 272 C-62.34 272 -61.68 272 -61 272 C-60.855625 271.05125 -60.71125 270.1025 -60.5625 269.125 C-60 266 -60 266 -59 264 C-58.34 264 -57.68 264 -57 264 C-56.7834375 262.39125 -56.7834375 262.39125 -56.5625 260.75 C-56.16250558 258.08337051 -55.72408076 255.58600271 -55 253 C-54.34 253 -53.68 253 -53 253 C-52.01 247.555 -52.01 247.555 -51 242 C-50.34 242 -49.68 242 -49 242 C-48.67 238.7 -48.34 235.4 -48 232 C-47.34 232 -46.68 232 -46 232 C-45.34 226.72 -44.68 221.44 -44 216 C-43.34 216 -42.68 216 -42 216 C-42 192.9 -42 169.8 -42 146 C-42.66 146 -43.32 146 -44 146 C-44.66 140.72 -45.32 135.44 -46 130 C-46.66 130 -47.32 130 -48 130 C-48.495 125.05 -48.495 125.05 -49 120 C-49.66 120 -50.32 120 -51 120 C-51.66 116.37 -52.32 112.74 -53 109 C-53.66 109 -54.32 109 -55 109 C-56.19287411 105.12315913 -57 102.08378077 -57 98 C-57.66 98 -58.32 98 -59 98 C-60.25664978 95.09399739 -61 93.20395416 -61 90 C-61.66 90 -62.32 90 -63 90 C-63.84026396 88.23244474 -64.67198722 86.46082737 -65.5 84.6875 C-66.19609375 83.20830078 -66.19609375 83.20830078 -66.90625 81.69921875 C-68 79 -68 79 -68 76 C-68.66 76 -69.32 76 -70 76 C-70 74.02 -70 72.04 -70 70 C-69.34 70 -68.68 70 -68 70 C-67.34 68.68 -66.68 67.36 -66 66 C-65.34 66 -64.68 66 -64 66 C-63.67 65.01 -63.34 64.02 -63 63 C-62.34 63 -61.68 63 -61 63 C-60.34 61.68 -59.68 60.36 -59 59 C-58.34 59 -57.68 59 -57 59 C-56.34 57.68 -55.68 56.36 -55 55 C-54.34 55 -53.68 55 -53 55 C-52.34 53.68 -51.68 52.36 -51 51 C-50.34 51 -49.68 51 -49 51 C-48.67 50.01 -48.34 49.02 -48 48 C-47.34 48 -46.68 48 -46 48 C-45.34 46.68 -44.68 45.36 -44 44 C-43.34 44 -42.68 44 -42 44 C-41.34 42.68 -40.68 41.36 -40 40 C-39.34 40 -38.68 40 -38 40 C-37.731875 39.401875 -37.46375 38.80375 -37.1875 38.1875 C-36.00082594 36.00152146 -34.90400887 34.58667406 -33 33 C-32.34 33 -31.68 33 -31 33 C-30.34 31.68 -29.68 30.36 -29 29 C-28.34 29 -27.68 29 -27 29 C-26.34 27.68 -25.68 26.36 -25 25 C-24.34 25 -23.68 25 -23 25 C-22.505 23.515 -22.505 23.515 -22 22 C-21.34 22 -20.68 22 -20 22 C-19.34 20.68 -18.68 19.36 -18 18 C-17.34 18 -16.68 18 -16 18 C-15.34 16.68 -14.68 15.36 -14 14 C-13.34 14 -12.68 14 -12 14 C-11.34 12.68 -10.68 11.36 -10 10 C-9.34 10 -8.68 10 -8 10 C-7.67 9.01 -7.34 8.02 -7 7 C-6.34 7 -5.68 7 -5 7 C-4.34 5.68 -3.68 4.36 -3 3 C-2.34 3 -1.68 3 -1 3 C-0.67 2.01 -0.34 1.02 0 0 Z " fill="#FAFAFA" transform="translate(585,152)"/>
<path d="M0 0 C2.875 1 2.875 1 5 2 C5 2.66 5 3.32 5 4 C5.763125 4.144375 6.52625 4.28875 7.3125 4.4375 C10 5 10 5 13 6 C13 6.66 13 7.32 13 8 C15.97 8.495 15.97 8.495 19 9 C19 9.66 19 10.32 19 11 C23.455 11.99 23.455 11.99 28 13 C28 13.66 28 14.32 28 15 C29.0725 15.144375 30.145 15.28875 31.25 15.4375 C33.91662949 15.83749442 36.41399729 16.27591924 39 17 C39 17.66 39 18.32 39 19 C40.2375 19.144375 41.475 19.28875 42.75 19.4375 C45.56504499 19.78688502 48.2701497 20.20379366 51 21 C51 21.66 51 22.32 51 23 C54.3 23.33 57.6 23.66 61 24 C61 24.66 61 25.32 61 26 C40.6711529 23.6880919 22.96634993 14.44096244 4.9440918 5.41699219 C2.3466807 4.16685751 -0.32357335 3.07057066 -3 2 C-26.1 25.1 -49.2 48.2 -73 72 C-71.68 73.65 -70.36 75.3 -69 77 C-71.31 76.34 -73.62 75.68 -76 75 C-76.75 73.25 -76.75 73.25 -77 71 C-75.1875 68.75 -75.1875 68.75 -73 67 C-72.34 67 -71.68 67 -71 67 C-70.7525 66.443125 -70.505 65.88625 -70.25 65.3125 C-67.31916133 59.89044846 -62.98885533 55.57575591 -58 52 C-57.34 52 -56.68 52 -56 52 C-55.814375 51.29875 -55.62875 50.5975 -55.4375 49.875 C-53.47932486 45.95864972 -50.59323769 43.4661136 -47 41 C-46.34 41 -45.68 41 -45 41 C-44.34 39.68 -43.68 38.36 -43 37 C-42.34 37 -41.68 37 -41 37 C-40.7215625 35.948125 -40.7215625 35.948125 -40.4375 34.875 C-38.47932486 30.95864972 -35.59323769 28.4661136 -32 26 C-31.34 26 -30.68 26 -30 26 C-29.7525 25.443125 -29.505 24.88625 -29.25 24.3125 C-26.31916133 18.89044846 -21.98885533 14.57575591 -17 11 C-16.34 11 -15.68 11 -15 11 C-14.7215625 9.948125 -14.7215625 9.948125 -14.4375 8.875 C-11.48899858 2.97799716 -6.85052336 -1.19139537 0 0 Z " fill="#747474" transform="translate(233,509)"/>
<path d="M0 0 C0.33 0 0.66 0 1 0 C0.36804785 8.33639002 -0.29453448 16.66950287 -1 25 C-1.66 25 -2.32 25 -3 25 C-2.88270883 31.96017384 -2.75787295 38.92018245 -2.62768555 45.88012695 C-2.5842619 48.24988708 -2.54259251 50.61968 -2.50268555 52.98950195 C-2.44516232 56.38763333 -2.38141697 59.78559843 -2.31640625 63.18359375 C-2.29969376 64.25024765 -2.28298126 65.31690155 -2.26576233 66.4158783 C-2.24581711 67.39681961 -2.22587189 68.37776093 -2.20532227 69.38842773 C-2.18977798 70.25668686 -2.1742337 71.12494598 -2.15821838 72.01951599 C-2.21537575 74.00080779 -2.21537575 74.00080779 -1 75 C-0.59602148 77.19976624 -0.2521647 79.41069283 0.0625 81.625 C0.32740234 83.43871094 0.32740234 83.43871094 0.59765625 85.2890625 C0.98846616 88.89361989 1.06983746 92.37776355 1 96 C1.66 96 2.32 96 3 96 C3.33820166 97.5823006 3.67035939 99.16589375 4 100.75 C4.185625 101.63171875 4.37125 102.5134375 4.5625 103.421875 C5 106 5 106 5 110 C5.66 110 6.32 110 7 110 C7.73463894 112.20391682 8.46873509 114.40798223 9.19921875 116.61328125 C9.83922342 118.52080736 10.50851799 120.41849755 11.1875 122.3125 C12 125 12 125 12 129 C12.66 129 13.32 129 14 129 C15.25664978 131.90600261 16 133.79604584 16 137 C16.66 137 17.32 137 18 137 C18.433125 138.7015625 18.433125 138.7015625 18.875 140.4375 C19.24625 141.613125 19.6175 142.78875 20 144 C20.66 144.33 21.32 144.66 22 145 C22.625 148.0625 22.625 148.0625 23 151 C23.66 151 24.32 151 25 151 C25.99 154.465 25.99 154.465 27 158 C27.66 158 28.32 158 29 158 C30.32421875 159.609375 30.32421875 159.609375 31.6875 161.75 C32.14511719 162.44609375 32.60273438 163.1421875 33.07421875 163.859375 C34.16906025 166.39090725 33.9435441 167.46100862 33 170 C21.42289573 152.24509172 11.70015541 134.14534335 5 114 C4.53567455 112.66518418 4.07085042 111.33054169 3.60546875 109.99609375 C-1.79894018 94.06888859 -5.07521008 76.92236856 -5.23828125 60.09375 C-5.24784851 59.25897629 -5.25741577 58.42420258 -5.26727295 57.56413269 C-5.29177311 54.87605005 -5.30438711 52.18818017 -5.3125 49.5 C-5.31611542 48.58658844 -5.31973083 47.67317688 -5.32345581 46.73208618 C-5.34898574 30.69488671 -3.94095593 15.59076339 0 0 Z " fill="#181818" transform="translate(137,284)"/>
<path d="M0 0 C1.65 0 3.3 0 5 0 C4 3 4 3 2.12611675 4.01517677 C1.42449822 4.34016844 0.7228797 4.6651601 0 5 C-1.56723401 6.26939574 -1.56723401 6.26939574 -3.01786804 7.75717163 C-3.58566986 8.31788864 -4.15347168 8.87860565 -4.73847961 9.45631409 C-5.34902695 10.06933884 -5.95957428 10.68236359 -6.58862305 11.31396484 C-7.56732361 12.28499901 -7.56732361 12.28499901 -8.5657959 13.27565002 C-10.71963433 15.41559528 -12.86596917 17.5628836 -15.01171875 19.7109375 C-16.50554204 21.20087438 -17.99958913 22.69058691 -19.49385071 24.18008423 C-22.6234271 27.30219947 -25.74909968 30.42816205 -28.87231445 33.55664062 C-32.87895345 37.56908104 -36.89685538 41.57002805 -40.91797161 45.56795311 C-44.00549108 48.64075786 -47.08607403 51.7204433 -50.16468239 54.80217361 C-51.64354704 56.28052415 -53.12478347 57.75650597 -54.60840416 59.23008347 C-56.67935377 61.28872716 -58.74057463 63.35664622 -60.79956055 65.42724609 C-61.72449059 66.34071053 -61.72449059 66.34071053 -62.66810608 67.27262878 C-63.22744843 67.83898544 -63.78679077 68.4053421 -64.36308289 68.98886108 C-64.85104686 69.47665731 -65.33901083 69.96445354 -65.84176159 70.46703148 C-67.20195068 72.26728869 -67.59278827 73.79891445 -68 76 C-68.66 76 -69.32 76 -70 76 C-70 74.02 -70 72.04 -70 70 C-69.34 70 -68.68 70 -68 70 C-67.34 68.68 -66.68 67.36 -66 66 C-65.34 66 -64.68 66 -64 66 C-63.67 65.01 -63.34 64.02 -63 63 C-62.34 63 -61.68 63 -61 63 C-60.34 61.68 -59.68 60.36 -59 59 C-58.34 59 -57.68 59 -57 59 C-56.34 57.68 -55.68 56.36 -55 55 C-54.34 55 -53.68 55 -53 55 C-52.34 53.68 -51.68 52.36 -51 51 C-50.34 51 -49.68 51 -49 51 C-48.67 50.01 -48.34 49.02 -48 48 C-47.34 48 -46.68 48 -46 48 C-45.34 46.68 -44.68 45.36 -44 44 C-43.34 44 -42.68 44 -42 44 C-41.34 42.68 -40.68 41.36 -40 40 C-39.34 40 -38.68 40 -38 40 C-37.731875 39.401875 -37.46375 38.80375 -37.1875 38.1875 C-36.00082594 36.00152146 -34.90400887 34.58667406 -33 33 C-32.34 33 -31.68 33 -31 33 C-30.34 31.68 -29.68 30.36 -29 29 C-28.34 29 -27.68 29 -27 29 C-26.34 27.68 -25.68 26.36 -25 25 C-24.34 25 -23.68 25 -23 25 C-22.505 23.515 -22.505 23.515 -22 22 C-21.34 22 -20.68 22 -20 22 C-19.34 20.68 -18.68 19.36 -18 18 C-17.34 18 -16.68 18 -16 18 C-15.34 16.68 -14.68 15.36 -14 14 C-13.34 14 -12.68 14 -12 14 C-11.34 12.68 -10.68 11.36 -10 10 C-9.34 10 -8.68 10 -8 10 C-7.67 9.01 -7.34 8.02 -7 7 C-6.34 7 -5.68 7 -5 7 C-4.34 5.68 -3.68 4.36 -3 3 C-2.34 3 -1.68 3 -1 3 C-0.67 2.01 -0.34 1.02 0 0 Z " fill="#6F6F6F" transform="translate(585,152)"/>
<path d="M0 0 C2.97 0.99 2.97 0.99 6 2 C6 2.66 6 3.32 6 4 C7.1446875 4.4021875 7.1446875 4.4021875 8.3125 4.8125 C10.91245703 5.96131822 12.38885423 6.67278944 14 9 C14 13.16965399 10.75189892 16.15956813 8 19 C6 20.66666667 4 22.33333333 2 24 C0.7934375 25.4540625 0.7934375 25.4540625 -0.4375 26.9375 C-3.29918691 30.35756485 -6.35578752 33.41141582 -10 36 C-10.66 36 -11.32 36 -12 36 C-12.2784375 37.051875 -12.2784375 37.051875 -12.5625 38.125 C-14.27800611 41.55601222 -16.32926188 43.15652398 -19.2734375 45.53125 C-21.17042322 47.05073294 -21.17042322 47.05073294 -23 49.5 C-24.7328285 51.66603562 -26.3212384 53.18532642 -28.4375 54.9375 C-31.72023892 57.66147485 -34.27400709 60.71482905 -37 64 C-39 65.66666667 -41 67.33333333 -43 69 C-44.20143302 70.45436628 -45.40257516 71.90904779 -46.58984375 73.375 C-53.84024267 81.73003033 -53.84024267 81.73003033 -59.5 82.4375 C-60.325 82.293125 -61.15 82.14875 -62 82 C-62 81.34 -62 80.68 -62 80 C-60.97317863 79.94912987 -60.97317863 79.94912987 -59.9256134 79.89723206 C-55.62588138 78.57858298 -53.28779923 75.81399821 -50.19018555 72.64428711 C-49.52621262 71.98089828 -48.86223969 71.31750946 -48.17814636 70.63401794 C-45.98805482 68.44114196 -43.81246776 66.23444333 -41.63671875 64.02734375 C-40.12016206 62.50332602 -38.60271923 60.98018961 -37.08442688 59.457901 C-33.0922012 55.45040852 -29.11213346 51.43104895 -25.13446045 47.40911865 C-21.07281225 43.30654092 -16.99980611 39.21527411 -12.92773438 35.12304688 C-4.94065169 27.09307475 3.03363544 19.05052285 11 11 C6.99278576 6.96013643 6.99278576 6.96013643 2.6875 3.25 C1.800625 2.5075 0.91375 1.765 0 1 C0 0.67 0 0.34 0 0 Z " fill="#121212" transform="translate(520,84)"/>
<path d="M0 0 C2.97 0.495 2.97 0.495 6 1 C6.33 1.99 6.66 2.98 7 4 C9.00016466 5.20882096 9.00016466 5.20882096 11 6 C11 6.66 11 7.32 11 8 C11.99 8.33 12.98 8.66 14 9 C15.68732277 10.98260426 17.35366057 12.9832342 19 15 C19.99 15.66 20.98 16.32 22 17 C22 17.66 22 18.32 22 19 C22.99 19.33 23.98 19.66 25 20 C26.19150188 21.4231828 27.3785862 22.85069043 28.52734375 24.30859375 C30.65238581 26.74929193 33.11466109 28.69649025 35.64453125 30.703125 C36.09183594 31.13109375 36.53914063 31.5590625 37 32 C37 32.66 37 33.32 37 34 C37.99 34.33 38.98 34.66 40 35 C41.68732277 36.98260426 43.35366057 38.9832342 45 41 C45.99 41.66 46.98 42.32 48 43 C48 43.66 48 44.32 48 45 C49.32 45.66 50.64 46.32 52 47 C52 47.66 52 48.32 52 49 C52.99 49.33 53.98 49.66 55 50 C56.68732277 51.98260426 58.35366057 53.9832342 60 56 C60.99 56.66 61.98 57.32 63 58 C63 58.66 63 59.32 63 60 C64.485 60.495 64.485 60.495 66 61 C67.26439145 62.45891321 68.52498852 63.92252344 69.7265625 65.43359375 C71.3505174 67.43115791 73.14709491 69.21572102 75 71 C73.58707905 75.8274799 71.57025846 79.7162359 69 84 C68.34 84 67.68 84 67 84 C66.34 86.31 65.68 88.62 65 91 C64.34 91 63.68 91 63 91 C62.505 92.98 62.505 92.98 62 95 C61.34 95 60.68 95 60 95 C61.6425497 88.86654852 64.95484066 84.44452894 68.63085938 79.390625 C69.07623047 78.75382812 69.52160156 78.11703125 69.98046875 77.4609375 C70.39192139 76.89165527 70.80337402 76.32237305 71.22729492 75.73583984 C72.26561155 73.40331814 71.82189824 72.38713384 71 70 C69.82976855 68.39201083 69.82976855 68.39201083 68.29820251 66.93743896 C67.72466537 66.35977783 67.15112823 65.7821167 66.56021118 65.18695068 C65.92795624 64.56548157 65.29570129 63.94401245 64.64428711 63.30371094 C63.98089828 62.63988403 63.31750946 61.97605713 62.63401794 61.29211426 C60.43882903 59.09901588 58.2332039 56.91673542 56.02734375 54.734375 C54.5035436 53.21616983 52.98040431 51.6973011 51.457901 50.17779541 C47.4482261 46.17957685 43.42962374 42.19044889 39.40911865 38.203125 C35.30834902 34.13303899 31.21605495 30.05445107 27.12304688 25.9765625 C19.09032041 17.97601415 11.04814044 9.9850404 3 2 C1.02 2.99 1.02 2.99 -1 4 C-0.67 2.68 -0.34 1.36 0 0 Z " fill="#080808" transform="translate(97,140)"/>
<path d="M0 0 C-11.82105522 5.22929226 -23.49960578 9.70589706 -36 13 C-36.68191406 13.18546387 -37.36382812 13.37092773 -38.06640625 13.56201172 C-53.55475999 17.7684076 -68.31771343 19.35350262 -84.32910156 19.31567383 C-87.10001574 19.31252836 -89.86984292 19.33600959 -92.640625 19.36132812 C-101.93048983 19.394192 -110.98150859 18.9658218 -120.1796875 17.60546875 C-121.02395294 17.480616 -121.86821838 17.35576324 -122.73806763 17.22712708 C-126.41362704 16.62586307 -128.86382826 16.09078116 -132 14 C-123.75 14.66 -115.5 15.32 -107 16 C-107 16.66 -107 17.32 -107 18 C-95.12 18 -83.24 18 -71 18 C-71 17.34 -71 16.68 -71 16 C-67.62545836 15.66191643 -64.25030319 15.33038682 -60.875 15 C-59.92367187 14.90460937 -58.97234375 14.80921875 -57.9921875 14.7109375 C-53.30899618 14.25562723 -48.7123674 13.87306754 -44 14 C-44 13.34 -44 12.68 -44 12 C-40.37 11.67 -36.74 11.34 -33 11 C-33 10.34 -33 9.68 -33 9 C-31.7625 8.67 -30.525 8.34 -29.25 8 C-28.20585937 7.7215625 -28.20585937 7.7215625 -27.140625 7.4375 C-25 7 -25 7 -21 7 C-21 6.34 -21 5.68 -21 5 C-17.12315913 3.80712589 -14.08378077 3 -10 3 C-10 2.34 -10 1.68 -10 1 C-3.375 -1.125 -3.375 -1.125 0 0 Z " fill="#202020" transform="translate(427,521)"/>
<path d="M0 0 C1.65 0 3.3 0 5 0 C5 0.66 5 1.32 5 2 C5.99 2.33 6.98 2.66 8 3 C8 3.66 8 4.32 8 5 C9.32 5.66 10.64 6.32 12 7 C12 7.66 12 8.32 12 9 C13.32 9.66 14.64 10.32 16 11 C16 11.66 16 12.32 16 13 C17.32 13.66 18.64 14.32 20 15 C20 15.66 20 16.32 20 17 C20.99 17.33 21.98 17.66 23 18 C23 18.66 23 19.32 23 20 C24.32 20.66 25.64 21.32 27 22 C27 22.66 27 23.32 27 24 C28.32 24.66 29.64 25.32 31 26 C31 26.66 31 27.32 31 28 C32.32 28.66 33.64 29.32 35 30 C35 30.66 35 31.32 35 32 C35.99 32.33 36.98 32.66 38 33 C38 33.66 38 34.32 38 35 C39.32 35.66 40.64 36.32 42 37 C42 37.66 42 38.32 42 39 C43.32 39.66 44.64 40.32 46 41 C46 41.66 46 42.32 46 43 C46.99 43.33 47.98 43.66 49 44 C51.1875 45.9375 51.1875 45.9375 53 48 C53 48.66 53 49.32 53 50 C54.32 50.66 55.64 51.32 57 52 C57 52.66 57 53.32 57 54 C58.32 54.66 59.64 55.32 61 56 C61 56.66 61 57.32 61 58 C61.99 58.33 62.98 58.66 64 59 C64 59.66 64 60.32 64 61 C65.32 61.66 66.64 62.32 68 63 C68 63.66 68 64.32 68 65 C69.98 65.99 69.98 65.99 72 67 C72 67.66 72 68.32 72 69 C73.485 69.495 73.485 69.495 75 70 C75 71.32 75 72.64 75 74 C72 73 72 73 70.9852438 71.12653732 C70.66011334 70.42478001 70.33498289 69.72302269 70 69 C68.72763307 67.42976339 68.72763307 67.42976339 67.23609924 65.97540283 C66.67393707 65.40615585 66.1117749 64.83690887 65.53257751 64.25041199 C64.91798172 63.63829361 64.30338593 63.02617523 63.67016602 62.39550781 C62.69672241 61.41439781 62.69672241 61.41439781 61.70361328 60.41346741 C59.55886063 58.25482344 57.40676678 56.10368083 55.25390625 53.953125 C53.76157355 52.45690627 52.26946536 50.96046359 50.77757263 49.46380615 C47.65126086 46.33003398 44.52110257 43.20016473 41.38842773 40.07275391 C37.36691841 36.057051 33.35691324 32.03007351 29.3499155 27.999897 C26.27285439 24.90813663 23.18892917 21.82329623 20.10294914 18.74044037 C18.62098131 17.25795781 17.14138761 15.77309811 15.66418648 14.28586578 C13.6029303 12.21233123 11.53243559 10.14848995 9.45922852 8.08691406 C8.84665695 7.46669876 8.23408539 6.84648346 7.60295105 6.20747375 C4.41199539 2.78944741 4.41199539 2.78944741 0 2 C0 1.34 0 0.68 0 0 Z " fill="#111111" transform="translate(458,500)"/>
<path d="M0 0 C6.14775529 5.03881266 11.71861814 10.60095355 17.31097221 16.23580742 C19.02935178 17.96710173 20.75096777 19.69512056 22.47340393 21.42237854 C26.74917962 25.71143263 31.01947431 30.00593018 35.28991699 34.30029297 C38.90691881 37.93713559 42.5260371 41.57184763 46.14790535 45.20384407 C47.83152587 46.89387521 49.51206895 48.58692422 51.19248962 50.28013611 C56.13469872 55.24545088 61.09605728 60.12855479 66.4566803 64.64881897 C68 66 68 66 70.25 68.5 C70.8275 68.995 71.405 69.49 72 70 C74.21858253 69.86358623 74.21858253 69.86358623 76 69 C75.505 70.485 75.505 70.485 75 72 C70.48677536 71.8230108 68.57991283 71.62234547 65.4375 68.25 C64.84582031 67.43595703 64.84582031 67.43595703 64.2421875 66.60546875 C62.8710506 64.71288047 62.8710506 64.71288047 60.0625 62.5625 C57.11688355 60.09780052 54.86752091 57.560772 52.43359375 54.62109375 C50.92815768 52.82559747 50.92815768 52.82559747 48.5 51 C46.33396438 49.2671715 44.81467358 47.6787616 43.0625 45.5625 C40.33852515 42.27976108 37.28517095 39.72599291 34 37 C32.33333333 35 30.66666667 33 29 31 C27.515 29.7625 27.515 29.7625 26 28.5 C22.89294284 25.9107857 20.58386262 23.10063514 18 20 C16.515 18.7625 16.515 18.7625 15 17.5 C11.89294284 14.9107857 9.58386262 12.10063514 7 9 C5.93360455 8.10443489 4.85006961 7.22886355 3.75 6.375 C0.93726687 3.94582139 0.6058729 3.41885424 0 0 Z " fill="#080808" transform="translate(514,442)"/>
<path d="M0 0 C0 0.66 0 1.32 0 2 C-3.20782685 2.338329 -6.41633098 2.66976146 -9.625 3 C-10.52863281 3.09539062 -11.43226563 3.19078125 -12.36328125 3.2890625 C-16.93063039 3.75579891 -21.40117188 4.12222799 -26 4 C-26 4.66 -26 5.32 -26 6 C-29.63 6.33 -33.26 6.66 -37 7 C-37 7.66 -37 8.32 -37 9 C-40.96 9.66 -44.92 10.32 -49 11 C-49 11.66 -49 12.32 -49 13 C-52.63 13.66 -56.26 14.32 -60 15 C-60 15.66 -60 16.32 -60 17 C-62.97 17.66 -65.94 18.32 -69 19 C-69 19.66 -69 20.32 -69 21 C-70.98 21.33 -72.96 21.66 -75 22 C-75 22.66 -75 23.32 -75 24 C-77.90600261 25.25664978 -79.79604584 26 -83 26 C-83 26.66 -83 27.32 -83 28 C-85.31 28.66 -87.62 29.32 -90 30 C-86.7640826 26.31464963 -83.10756961 24.28035275 -78.75 22.1875 C-78.04399658 21.84348145 -77.33799316 21.49946289 -76.6105957 21.14501953 C-74.41309562 20.0834512 -72.20821561 19.03907301 -70 18 C-69.00782471 17.52892822 -69.00782471 17.52892822 -67.99560547 17.04833984 C-47.07551999 7.20266311 -23.31622554 -0.42393137 0 0 Z " fill="#161616" transform="translate(321,127)"/>
<path d="M0 0 C4.70745077 3.9317076 9.1641171 8.02257286 13.48608398 12.37255859 C14.09182755 12.97815613 14.69757111 13.58375366 15.32167053 14.20770264 C17.29886146 16.18558341 19.27249876 18.16696914 21.24609375 20.1484375 C22.62592516 21.53013639 24.0059793 22.91161288 25.38624573 24.2928772 C29.0002185 27.91064913 32.61117673 31.53141519 36.22149658 35.15283203 C39.91341203 38.85501777 43.60819663 42.55433771 47.30273438 46.25390625 C54.53795303 53.49981631 61.76998741 60.74889555 69 68 C68.01 68.495 68.01 68.495 67 69 C62.82937716 65.59086728 59.37148634 62.21435793 56 58 C54.8709443 57.00153387 53.72343953 56.02370799 52.5625 55.0625 C49.27976108 52.33852515 46.72599291 49.28517095 44 46 C43.01 45.175 42.02 44.35 41 43.5 C37.89294284 40.9107857 35.58386262 38.10063514 33 35 C32.01 34.175 31.02 33.35 30 32.5 C26.89294284 29.9107857 24.58386262 27.10063514 22 24 C20.515 22.7625 20.515 22.7625 19 21.5 C16 19 16 19 13.5625 16.0625 C11.562868 13.6726959 9.80019587 11.89803487 7.4375 9.9375 C4.55228899 7.53735722 2.15481499 5.10293359 0 2 C0 1.34 0 0.68 0 0 Z " fill="#030303" transform="translate(159,88)"/>
<path d="M0 0 C0.495 1.485 0.495 1.485 1 3 C-0.62339805 4.70884005 -2.29319053 6.37446717 -4 8 C-4.66 8 -5.32 8 -6 8 C-6.66 9.32 -7.32 10.64 -8 12 C-8.66 12 -9.32 12 -10 12 C-10.2578125 12.58265625 -10.515625 13.1653125 -10.78125 13.765625 C-12.09834017 16.1802903 -13.55088384 17.81740177 -15.5 19.75 C-16.41265625 20.67039062 -16.41265625 20.67039062 -17.34375 21.609375 C-19 23 -19 23 -21 23 C-21.66 24.32 -22.32 25.64 -23 27 C-23.66 27 -24.32 27 -25 27 C-25.268125 27.598125 -25.53625 28.19625 -25.8125 28.8125 C-26.99917406 30.99847854 -28.09599113 32.41332594 -30 34 C-30.66 34 -31.32 34 -32 34 C-32.66 35.32 -33.32 36.64 -34 38 C-34.66 38 -35.32 38 -36 38 C-36.66 39.32 -37.32 40.64 -38 42 C-38.66 42 -39.32 42 -40 42 C-40.268125 42.598125 -40.53625 43.19625 -40.8125 43.8125 C-41.99917406 45.99847854 -43.09599113 47.41332594 -45 49 C-45.66 49 -46.32 49 -47 49 C-47.66 50.32 -48.32 51.64 -49 53 C-49.66 53 -50.32 53 -51 53 C-51.33 53.99 -51.66 54.98 -52 56 C-52.99 55.67 -53.98 55.34 -55 55 C-36.85 36.85 -18.7 18.7 0 0 Z " fill="#090909" transform="translate(163,462)"/>
<path d="M0 0 C14.75013121 13.17505778 23.10091684 45.76337526 26 65 C26.03677266 66.66626095 26.04802809 68.33402549 26 70 C25.34 70 24.68 70 24 70 C23.34 64.72 22.68 59.44 22 54 C21.34 54 20.68 54 20 54 C19.505 49.05 19.505 49.05 19 44 C18.34 44 17.68 44 17 44 C16.01 38.555 16.01 38.555 15 33 C14.34 33 13.68 33 13 33 C11.80712589 29.12315913 11 26.08378077 11 22 C10.34 22 9.68 22 9 22 C7.74335022 19.09399739 7 17.20395416 7 14 C6.34 14 5.68 14 5 14 C4.15973604 12.23244474 3.32801278 10.46082737 2.5 8.6875 C2.0359375 7.70136719 1.571875 6.71523437 1.09375 5.69921875 C0 3 0 3 0 0 Z " fill="#191919" transform="translate(517,228)"/>
<path d="M0 0 C2 2 2 2 2 6 C2.66 6 3.32 6 4 6 C4.73463894 8.20391682 5.46873509 10.40798223 6.19921875 12.61328125 C6.83922342 14.52080736 7.50851799 16.41849755 8.1875 18.3125 C9 21 9 21 9 25 C9.66 25 10.32 25 11 25 C12.25664978 27.90600261 13 29.79604584 13 33 C13.66 33 14.32 33 15 33 C15.28875 34.134375 15.5775 35.26875 15.875 36.4375 C16.24625 37.613125 16.6175 38.78875 17 40 C17.66 40.33 18.32 40.66 19 41 C19.625 44.0625 19.625 44.0625 20 47 C20.66 47 21.32 47 22 47 C22.66 49.31 23.32 51.62 24 54 C24.66 54 25.32 54 26 54 C27.32421875 55.609375 27.32421875 55.609375 28.6875 57.75 C29.14511719 58.44609375 29.60273438 59.1421875 30.07421875 59.859375 C31.16906025 62.39090725 30.9435441 63.46100862 30 66 C18.83503574 48.87715894 9.1417767 31.36084673 2.64404297 11.92236328 C2.05963964 10.17801461 1.43996574 8.44558148 0.81640625 6.71484375 C0 4 0 4 0 0 Z " fill="#0A0A0A" transform="translate(140,388)"/>
<path d="M0 0 C0.66 0 1.32 0 2 0 C0.59696826 19.99320236 -7.77355034 39.81640673 -16.3125 57.6875 C-16.84037109 58.79335449 -17.36824219 59.89920898 -17.91210938 61.03857422 C-21.73780061 68.8689003 -21.73780061 68.8689003 -24 70 C-23.46515599 64.65155992 -21.53309233 60.64203897 -19 56 C-18.34 56 -17.68 56 -17 56 C-16.855625 55.05125 -16.71125 54.1025 -16.5625 53.125 C-16 50 -16 50 -15 48 C-14.34 48 -13.68 48 -13 48 C-12.855625 46.9275 -12.71125 45.855 -12.5625 44.75 C-12.16250558 42.08337051 -11.72408076 39.58600271 -11 37 C-10.34 37 -9.68 37 -9 37 C-8.34 33.37 -7.68 29.74 -7 26 C-6.34 26 -5.68 26 -5 26 C-4.67 22.7 -4.34 19.4 -4 16 C-3.34 16 -2.68 16 -2 16 C-1.34 10.72 -0.68 5.44 0 0 Z " fill="#101010" transform="translate(541,368)"/>
<path d="M0 0 C2.31 0.66 4.62 1.32 7 2 C7 2.66 7 3.32 7 4 C7.763125 4.144375 8.52625 4.28875 9.3125 4.4375 C12 5 12 5 15 6 C15 6.66 15 7.32 15 8 C17.97 8.495 17.97 8.495 21 9 C21 9.66 21 10.32 21 11 C23.97 11.66 26.94 12.32 30 13 C30 13.66 30 14.32 30 15 C31.0725 15.144375 32.145 15.28875 33.25 15.4375 C35.91662949 15.83749442 38.41399729 16.27591924 41 17 C41 17.66 41 18.32 41 19 C42.2375 19.144375 43.475 19.28875 44.75 19.4375 C47.56504499 19.78688502 50.2701497 20.20379366 53 21 C53 21.66 53 22.32 53 23 C56.3 23.33 59.6 23.66 63 24 C63 24.66 63 25.32 63 26 C46.68409658 24.14446589 32.27793355 17.90174099 17.625 10.875 C16.65640549 10.41401917 16.65640549 10.41401917 15.66824341 9.94372559 C13.80737433 9.05369194 11.95348687 8.15066438 10.1015625 7.2421875 C8.48241943 6.45110596 8.48241943 6.45110596 6.83056641 5.64404297 C4.05995221 4.0348213 2.13468839 2.37037344 0 0 Z " fill="#141414" transform="translate(231,509)"/>
<path d="M0 0 C3.36016893 1.12005631 4.69064913 2.37211797 7 5 C7 5.66 7 6.32 7 7 C7.99 7.33 8.98 7.66 10 8 C11.26439145 9.45891321 12.52498852 10.92252344 13.7265625 12.43359375 C15.3505174 14.43115791 17.14709491 16.21572102 19 18 C17.58707905 22.8274799 15.57025846 26.7162359 13 31 C12.34 31 11.68 31 11 31 C10.34 33.31 9.68 35.62 9 38 C8.34 38 7.68 38 7 38 C6.67 39.32 6.34 40.64 6 42 C5.34 42 4.68 42 4 42 C5.6425497 35.86654852 8.95484066 31.44452894 12.63085938 26.390625 C13.07623047 25.75382812 13.52160156 25.11703125 13.98046875 24.4609375 C14.39192139 23.89165527 14.80337402 23.32237305 15.22729492 22.73583984 C16.16118504 21.01143025 16.16118504 21.01143025 15.83740234 19.00878906 C14.81268845 16.55067072 13.54595762 15.23545691 11.62109375 13.3984375 C10.94755859 12.74359375 10.27402344 12.08875 9.58007812 11.4140625 C8.87302734 10.74117187 8.16597656 10.06828125 7.4375 9.375 C6.0359852 8.03320524 4.63861161 6.687067 3.24609375 5.3359375 C2.62404053 4.74345215 2.0019873 4.1509668 1.36108398 3.54052734 C0 2 0 2 0 0 Z " fill="#101010" transform="translate(153,193)"/>
<path d="M0 0 C3.36016893 1.12005631 4.69064913 2.37211797 7 5 C7 5.66 7 6.32 7 7 C8.32 7.66 9.64 8.32 11 9 C11 9.66 11 10.32 11 11 C12.32 11.66 13.64 12.32 15 13 C15 13.66 15 14.32 15 15 C15.99 15.33 16.98 15.66 18 16 C18 16.66 18 17.32 18 18 C19.32 18.66 20.64 19.32 22 20 C22 20.66 22 21.32 22 22 C23.32 22.66 24.64 23.32 26 24 C26 24.66 26 25.32 26 26 C26.99 26.33 27.98 26.66 29 27 C29 28.32 29 29.64 29 31 C28.01 30.67 27.02 30.34 26 30 C25.72043457 29.4342627 25.44086914 28.86852539 25.15283203 28.28564453 C23.54319297 25.09431863 21.09285394 22.88600163 18.5546875 20.4296875 C18.02481232 19.90738556 17.49493713 19.38508362 16.94900513 18.84695435 C15.26241038 17.18472687 13.56953406 15.52913075 11.875 13.875 C9.63755901 11.69057595 7.40669074 9.49974593 5.1796875 7.3046875 C4.66099091 6.80258759 4.14229431 6.30048767 3.60787964 5.78317261 C2.36707536 4.55966067 1.17806631 3.28403134 0 2 C0 1.34 0 0.68 0 0 Z " fill="#191919" transform="translate(504,543)"/>
<path d="M0 0 C-9.25198991 4.09281222 -18.46851678 8.08052503 -28.1875 10.9375 C-28.85644287 11.13625732 -29.52538574 11.33501465 -30.21459961 11.53979492 C-34.80436765 12.83222679 -39.27419428 13.50061007 -44 14 C-44 13.34 -44 12.68 -44 12 C-38.555 11.505 -38.555 11.505 -33 11 C-33 10.34 -33 9.68 -33 9 C-31.7625 8.67 -30.525 8.34 -29.25 8 C-28.20585937 7.7215625 -28.20585937 7.7215625 -27.140625 7.4375 C-25 7 -25 7 -21 7 C-21 6.34 -21 5.68 -21 5 C-17.12315913 3.80712589 -14.08378077 3 -10 3 C-10 2.34 -10 1.68 -10 1 C-3.375 -1.125 -3.375 -1.125 0 0 Z " fill="#0B0B0B" transform="translate(427,521)"/>
<path d="M0 0 C7.85757238 0.49109827 14.61459249 2.66577999 22 5.3125 C23.68609375 5.8993457 23.68609375 5.8993457 25.40625 6.49804688 C31.73992236 8.72889059 37.92134858 11.14425114 44 14 C40.06329512 15.31223496 37.87511856 14.24296256 34 13 C34 12.34 34 11.68 34 11 C30.37 10.34 26.74 9.68 23 9 C23 8.34 23 7.68 23 7 C21.7625 6.855625 20.525 6.71125 19.25 6.5625 C16.43495501 6.21311498 13.7298503 5.79620634 11 5 C11 4.34 11 3.68 11 3 C7.37 2.67 3.74 2.34 0 2 C0 1.34 0 0.68 0 0 Z " fill="#0F0F0F" transform="translate(383,131)"/>
<path d="M0 0 C1.31223496 3.93670488 0.24296256 6.12488144 -1 10 C-1.66 10 -2.32 10 -3 10 C-3.10957031 10.54527344 -3.21914062 11.09054688 -3.33203125 11.65234375 C-4.51009937 17.25535065 -6.087035 22.6054387 -8 28 C-8.66 28 -9.32 28 -10 28 C-10.06058594 28.60328125 -10.12117187 29.2065625 -10.18359375 29.828125 C-10.26738281 30.62734375 -10.35117188 31.4265625 -10.4375 32.25 C-10.55931641 33.43335938 -10.55931641 33.43335938 -10.68359375 34.640625 C-10.97634993 36.82364639 -11.42064419 38.8773182 -12 41 C-12.66 41 -13.32 41 -14 41 C-11.85431768 26.4545325 -6.22314712 13.20295482 0 0 Z " fill="#171717" transform="translate(152,243)"/>
<path d="M0 0 C2.2303265 2.06328016 3.68051002 3.97701464 5.04296875 6.6875 C5.56987305 7.73550781 5.56987305 7.73550781 6.10742188 8.8046875 C6.46384766 9.52914062 6.82027344 10.25359375 7.1875 11 C7.55552734 11.72445312 7.92355469 12.44890625 8.30273438 13.1953125 C8.82383789 14.24332031 8.82383789 14.24332031 9.35546875 15.3125 C9.67153076 15.94800781 9.98759277 16.58351562 10.31323242 17.23828125 C11 19 11 19 11 22 C10.34 22 9.68 22 9 22 C7.74335022 19.09399739 7 17.20395416 7 14 C6.34 14 5.68 14 5 14 C4.15973604 12.23244474 3.32801278 10.46082737 2.5 8.6875 C2.0359375 7.70136719 1.571875 6.71523437 1.09375 5.69921875 C0 3 0 3 0 0 Z " fill="#0A0A0A" transform="translate(517,228)"/>
<path d="M0 0 C2.4128043 3.61920645 3.17321246 7.20123537 4.125 11.375 C4.39763672 12.50808594 4.39763672 12.50808594 4.67578125 13.6640625 C5.57063954 17.51262597 6.2378791 21.01948977 6 25 C5.34 25 4.68 25 4 25 C3.34 19.72 2.68 14.44 2 9 C1.34 9 0.68 9 0 9 C-1.125 2.25 -1.125 2.25 0 0 Z " fill="#272727" transform="translate(537,273)"/>
<path d="M0 0 C0 0.99 0 1.98 0 3 C-0.99 3.33 -1.98 3.66 -3 4 C-3 4.66 -3 5.32 -3 6 C-3.639375 6.28875 -4.27875 6.5775 -4.9375 6.875 C-7.15206079 7.82823451 -7.15206079 7.82823451 -8 10 C-9.875 11.1875 -9.875 11.1875 -12 12 C-12.99 11.67 -13.98 11.34 -15 11 C-13.06324055 9.54067427 -11.12562712 8.08250736 -9.1875 6.625 C-8.64029297 6.2125 -8.09308594 5.8 -7.52929688 5.375 C-5.05553395 3.51592968 -2.57565041 1.71710028 0 0 Z " fill="#101010" transform="translate(529,574)"/>
<path d="M0 0 C0.99 0.33 1.98 0.66 3 1 C3 1.99 3 2.98 3 4 C3.99 4.33 4.98 4.66 6 5 C7.203125 6.5234375 7.203125 6.5234375 8.25 8.375 C8.78367187 9.28378906 8.78367187 9.28378906 9.328125 10.2109375 C10 12 10 12 9 15 C7.49428254 12.87885041 5.99531321 10.75346385 4.5 8.625 C4.07074219 8.02171875 3.64148438 7.4184375 3.19921875 6.796875 C0 2.2265625 0 2.2265625 0 0 Z " fill="#141414" transform="translate(590,155)"/>
<path d="M0 0 C0.66 0 1.32 0 2 0 C2 0.66 2 1.32 2 2 C2.66 2 3.32 2 4 2 C5.32421875 3.609375 5.32421875 3.609375 6.6875 5.75 C7.14511719 6.44609375 7.60273438 7.1421875 8.07421875 7.859375 C9.16906025 10.39090725 8.9435441 11.46100862 8 14 C6.66101601 12.04532248 5.32870953 10.0866421 4 8.125 C3.2575 7.03445313 2.515 5.94390625 1.75 4.8203125 C0 2 0 2 0 0 Z " fill="#121212" transform="translate(162,440)"/>
<path d="M0 0 C0.66 0.33 1.32 0.66 2 1 C0.68 2.65 -0.64 4.3 -2 6 C-0.7934375 6.433125 -0.7934375 6.433125 0.4375 6.875 C3 8 3 8 4 10 C1.69 9.34 -0.62 8.68 -3 8 C-3.75 6.25 -3.75 6.25 -4 4 C-2.0625 1.75 -2.0625 1.75 0 0 Z " fill="#0C0C0C" transform="translate(160,576)"/>
<path d="M0 0 C0.33 1.32 0.66 2.64 1 4 C1.66 4 2.32 4 3 4 C3.9765625 10.0546875 3.9765625 10.0546875 4 12 C3.34 12.66 2.68 13.32 2 14 C0.66416101 9.15758367 -0.25328119 5.06562383 0 0 Z " fill="#1E1E1E" transform="translate(137,376)"/>
<path d="M0 0 C1.31223496 3.93670488 0.24296256 6.12488144 -1 10 C-1.66 10 -2.32 10 -3 10 C-3 10.99 -3 11.98 -3 13 C-3.66 13 -4.32 13 -5 13 C-4.54554036 11.58208592 -4.08625056 10.16571954 -3.625 8.75 C-3.24214844 7.56664062 -3.24214844 7.56664062 -2.8515625 6.359375 C-2.04826333 4.13372042 -1.10288338 2.09068328 0 0 Z " fill="#0E0E0E" transform="translate(152,243)"/>
<path d="M0 0 C2.13911742 2.05129442 3.95737463 4.15695031 5.6875 6.5625 C6.12449219 7.16191406 6.56148438 7.76132812 7.01171875 8.37890625 C8 10 8 10 8 12 C7.01 11.67 6.02 11.34 5 11 C4.67 10.01 4.34 9.02 4 8 C3.34 7.67 2.68 7.34 2 7 C0.42451317 4.37418862 0 3.12900213 0 0 Z " fill="#191919" transform="translate(80,499)"/>
<path d="M0 0 C1 3 1 3 0.0625 5.1875 C-0.4634375 6.0846875 -0.4634375 6.0846875 -1 7 C-1.66 7 -2.32 7 -3 7 C-3.33 8.32 -3.66 9.64 -4 11 C-4.66 11 -5.32 11 -6 11 C-4.54955729 6.89041233 -2.48889248 3.56741255 0 0 Z " fill="#161616" transform="translate(596,500)"/>
<path d="M0 0 C3.36591427 2.72478774 4.44226276 6.06856792 6 10 C3.13367003 8.94901234 2.16993357 8.33137046 0.75 5.5625 C0 3 0 3 0 0 Z " fill="#151515" transform="translate(517,228)"/>
<path d="M0 0 C1.65 0 3.3 0 5 0 C4.67 0.99 4.34 1.98 4 3 C3.01 3 2.02 3 1 3 C-1.0360882 4.27754554 -3.04109119 5.60699818 -5 7 C-4.34 5.68 -3.68 4.36 -3 3 C-2.34 3 -1.68 3 -1 3 C-0.67 2.01 -0.34 1.02 0 0 Z " fill="#171717" transform="translate(585,152)"/>
<path d="M0 0 C0.66 0.33 1.32 0.66 2 1 C1.360625 1.598125 0.72125 2.19625 0.0625 2.8125 C-2.20310389 4.90810337 -2.20310389 4.90810337 -3 8 C-3.66 8 -4.32 8 -5 8 C-5.3125 5.6875 -5.3125 5.6875 -5 3 C-2.625 1.125 -2.625 1.125 0 0 Z " fill="#404040" transform="translate(162,80)"/>
<path d="M0 0 C0.66 0 1.32 0 2 0 C0.6062718 4.43458973 -1.60582235 6.87378374 -5 10 C-4.625 7.5625 -4.625 7.5625 -4 5 C-3.34 4.67 -2.68 4.34 -2 4 C-0.86649466 1.98330173 -0.86649466 1.98330173 0 0 Z " fill="#141414" transform="translate(86,155)"/>
<path d="M0 0 C2.74277578 3.19990508 4.6302836 6.00499382 6 10 C3 9 3 9 1.3125 6.125 C0 3 0 3 0 0 Z " fill="#171717" transform="translate(74,489)"/>
<path d="M0 0 C0.99 0.33 1.98 0.66 3 1 C3.33 3.64 3.66 6.28 4 9 C3.67 8.01 3.34 7.02 3 6 C2.34 6 1.68 6 1 6 C0.67 4.02 0.34 2.04 0 0 Z " fill="#121212" transform="translate(533,266)"/>
</svg>
