<?xml version="1.0" encoding="UTF-8"?>
<svg version="1.1" xmlns="http://www.w3.org/2000/svg" width="703" height="659">
<path d="M0 0 C0 0.66 0 1.32 0 2 C0.61488281 2.06058594 1.22976563 2.12117188 1.86328125 2.18359375 C3.07564453 2.30927734 3.07564453 2.30927734 4.3125 2.4375 C5.11300781 2.51871094 5.91351563 2.59992187 6.73828125 2.68359375 C9 3 9 3 12 4 C12 4.66 12 5.32 12 6 C13.175625 6.2165625 13.175625 6.2165625 14.375 6.4375 C17 7 17 7 19 8 C19 8.66 19 9.32 19 10 C19.639375 10.103125 20.27875 10.20625 20.9375 10.3125 C21.618125 10.539375 22.29875 10.76625 23 11 C23.33 11.99 23.66 12.98 24 14 C26.01508358 14.73323796 26.01508358 14.73323796 28 15 C28 15.66 28 16.32 28 17 C29.98 17.99 29.98 17.99 32 19 C32 19.66 32 20.32 32 21 C32.66 21 33.32 21 34 21 C34.103125 21.639375 34.20625 22.27875 34.3125 22.9375 C34.539375 23.618125 34.76625 24.29875 35 25 C35.99 25.33 36.98 25.66 38 26 C38.33 27.98 38.66 29.96 39 32 C39.66 32 40.32 32 41 32 C42.25664978 34.90600261 43 36.79604584 43 40 C43.66 40 44.32 40 45 40 C46.03523001 44.24834956 46.14539968 48.36778831 46.1328125 52.71484375 C46.13424759 53.81488487 46.13424759 53.81488487 46.13571167 54.93714905 C46.13638983 56.48275844 46.13456103 58.02837074 46.13037109 59.57397461 C46.12502537 61.92633538 46.13032448 64.27850456 46.13671875 66.63085938 C46.13605775 68.13802125 46.13477615 69.64518301 46.1328125 71.15234375 C46.13483673 71.84939926 46.13686096 72.54645477 46.13894653 73.26463318 C46.11989417 77.27868713 45.77174977 81.06116392 45 85 C44.34 85 43.68 85 43 85 C42.855625 85.763125 42.71125 86.52625 42.5625 87.3125 C42 90 42 90 41 93 C40.34 93 39.68 93 39 93 C38.855625 93.598125 38.71125 94.19625 38.5625 94.8125 C37.63667025 98.41294901 36.86358573 100.59458798 34 103 C33.34 103 32.68 103 32 103 C31.731875 103.763125 31.46375 104.52625 31.1875 105.3125 C30.0364442 107.91752101 29.19546244 109.24363005 27 111 C25.515 111.495 25.515 111.495 24 112 C23.34 112.99 22.68 113.98 22 115 C19.375 115.6875 19.375 115.6875 17 116 C17 116.66 17 117.32 17 118 C14.09399739 119.25664978 12.20395416 120 9 120 C9 120.66 9 121.32 9 122 C3.77487721 123.46670113 -0.5814234 124.22577402 -6 124 C-6 124.66 -6 125.32 -6 126 C-7.32 126 -8.64 126 -10 126 C-9.99861731 126.83848716 -9.99861731 126.83848716 -9.99720669 127.69391346 C-9.9751317 141.28929505 -9.95864259 154.8846735 -9.94818783 168.48006916 C-9.94296248 175.05467203 -9.93587111 181.62926199 -9.92456055 188.20385742 C-9.91371936 194.54508275 -9.90772053 200.88629565 -9.90512276 207.22752953 C-9.90327074 209.65050642 -9.89965438 212.07348262 -9.89426994 214.49645424 C-9.88704322 217.88217278 -9.88600976 221.26783948 -9.88647461 224.65356445 C-9.88287933 225.66200912 -9.87928406 226.6704538 -9.87557983 227.7094574 C-9.8769545 228.63072418 -9.87832916 229.55199097 -9.87974548 230.50117493 C-9.87836279 231.70273208 -9.87836279 231.70273208 -9.87695217 232.92856312 C-10 235 -10 235 -11 238 C-7.37 238.33 -3.74 238.66 0 239 C0 239.66 0 240.32 0 241 C1.258125 241.144375 2.51625 241.28875 3.8125 241.4375 C6.42667123 241.73748686 8.47439892 242.15813297 11 243 C11 243.66 11 244.32 11 245 C12.051875 245.268125 13.10375 245.53625 14.1875 245.8125 C19.1119178 247.34633505 22.46266159 249.2942169 26 253 C26.66 253.33 27.32 253.66 28 254 C28 254.66 28 255.32 28 256 C29.32 256.66 30.64 257.32 32 258 C32 258.99 32 259.98 32 261 C32.66 261 33.32 261 34 261 C36.42099644 263.01749703 37.81699429 265.08798596 39 268 C39 268.99 39 269.98 39 271 C39.66 271 40.32 271 41 271 C41.66 273.97 42.32 276.94 43 280 C43.66 280 44.32 280 45 280 C45.99 285.94 46.98 291.88 48 298 C49.32 298.33 50.64 298.66 52 299 C52 299.66 52 300.32 52 301 C52.59039062 301.09023438 53.18078125 301.18046875 53.7890625 301.2734375 C56.56264741 302.18489827 57.53093803 303.38268991 59.375 305.625 C59.97183594 306.34171875 60.56867188 307.0584375 61.18359375 307.796875 C61.78300781 308.52390625 62.38242187 309.2509375 63 310 C64.6419255 311.85390275 66.28645339 313.70541764 67.93359375 315.5546875 C69 317 69 317 69 319 C70.32 319.66 71.64 320.32 73 321 C73 321.66 73 322.32 73 323 C73.598125 323.268125 74.19625 323.53625 74.8125 323.8125 C77.01819033 325.00987475 78.43583187 326.04478984 80 328 C80 328.99 80 329.98 80 331 C80.99 331.33 81.98 331.66 83 332 C84.68732277 333.98260426 86.35366057 335.9832342 88 338 C88.99 338.66 89.98 339.32 91 340 C91 340.66 91 341.32 91 342 C91.99 342.33 92.98 342.66 94 343 C99 348.46511628 99 348.46511628 99 351 C99.66 351 100.32 351 101 351 C102.20850097 352.44348727 103.41240781 353.89122208 104.5859375 355.36328125 C106.31494238 357.36453276 108.31802554 358.93201772 110.3828125 360.57421875 C113.01224061 362.89243435 115.21930772 365.56238274 117.484375 368.23046875 C119.03207632 370.08344907 119.03207632 370.08344907 121 372 C121 372.99 121 373.98 121 375 C122.32 375.66 123.64 376.32 125 377 C125 377.66 125 378.32 125 379 C126.32 379.66 127.64 380.32 129 381 C129 381.66 129 382.32 129 383 C129.99 383.33 130.98 383.66 132 384 C132 384.66 132 385.32 132 386 C133.32 386.66 134.64 387.32 136 388 C136 388.66 136 389.32 136 390 C137.32 390.66 138.64 391.32 140 392 C140 392.66 140 393.32 140 394 C141.32 394.66 142.64 395.32 144 396 C144 396.66 144 397.32 144 398 C144.66 398 145.32 398 146 398 C146.33 398.99 146.66 399.98 147 401 C148.49595331 402.52032049 148.49595331 402.52032049 150.3125 403.9375 C153.01532417 406.17873075 155.65505065 408.37365673 158 411 C158 411.66 158 412.32 158 413 C158.99 413.33 159.98 413.66 161 414 C162.21463873 415.44443525 163.42524603 416.89299497 164.59375 418.375 C166.04761272 420.05501915 167.5734488 421.37188395 169.3125 422.75 C170.199375 423.4925 171.08625 424.235 172 425 C172 425.66 172 426.32 172 427 C172.99 427 173.98 427 175 427 C174.938125 425.515 174.938125 425.515 174.875 424 C174.8576652 419.76164134 175.85808838 416.06806015 177 412 C177.66 412 178.32 412 179 412 C179.144375 411.21625 179.28875 410.4325 179.4375 409.625 C180 407 180 407 181 405 C181.66 405 182.32 405 183 405 C183.268125 404.2575 183.53625 403.515 183.8125 402.75 C184.95276751 400.10938051 186.09380306 398.14447156 188 396 C188.66 396 189.32 396 190 396 C190 395.34 190 394.68 190 394 C190.66 394 191.32 394 192 394 C192 393.34 192 392.68 192 392 C193.42578125 390.4921875 193.42578125 390.4921875 195.3125 388.875 C196.23482422 388.06675781 196.23482422 388.06675781 197.17578125 387.2421875 C199 386 199 386 202 386 C202.33 385.01 202.66 384.02 203 383 C203.99 383 204.98 383 206 383 C206 382.34 206 381.68 206 381 C208.90600261 379.74335022 210.79604584 379 214 379 C214 378.34 214 377.68 214 377 C216.2494806 376.66317938 218.49960704 376.33066999 220.75 376 C222.00296875 375.814375 223.2559375 375.62875 224.546875 375.4375 C228 375 228 375 232 375 C232 325.17 232 275.34 232 224 C228.37 223.67 224.74 223.34 221 223 C217.30078125 222.02734375 217.30078125 222.02734375 214.3125 220.9375 C213.29800781 220.57527344 212.28351562 220.21304688 211.23828125 219.83984375 C210.49964844 219.56269531 209.76101563 219.28554687 209 219 C209 218.34 209 217.68 209 217 C207.02 216.67 205.04 216.34 203 216 C202.67 215.01 202.34 214.02 202 213 C201.1028125 212.7834375 201.1028125 212.7834375 200.1875 212.5625 C197.22520517 211.80076704 195.95079184 210.29914753 194 208 C194 207.34 194 206.68 194 206 C192.68 205.34 191.36 204.68 190 204 C190 203.34 190 202.68 190 202 C189.1028125 201.62875 189.1028125 201.62875 188.1875 201.25 C185.68373081 199.81927475 184.51927612 198.4308418 183 196 C183 195.34 183 194.68 183 194 C182.34 194 181.68 194 181 194 C179.74335022 191.09399739 179 189.20395416 179 186 C178.34 186 177.68 186 177 186 C175.70756464 181.8803623 174.73747375 178.33168317 175 174 C174.34 174 173.68 174 173 174 C172.67 173.34 172.34 172.68 172 172 C171.01 172 170.02 172 169 172 C168.67 172.99 168.34 173.98 168 175 C165.99878825 177.36506843 165.03200339 177.9893322 162 179 C160.79833286 180.52644204 159.59690572 182.05307634 158.3984375 183.58203125 C156.31210663 185.69750082 153.7898715 186.13203998 151 187 C149.57944932 189.00136244 149.57944932 189.00136244 149 191 C148.34 191 147.68 191 147 191 C146.67 191.99 146.34 192.98 146 194 C145.01 194 144.02 194 143 194 C142.67 194.99 142.34 195.98 142 197 C140.01739574 198.68732277 138.0167658 200.35366057 136 202 C135.34 202.99 134.68 203.98 134 205 C133.175 205.12375 132.35 205.2475 131.5 205.375 C130.675 205.58125 129.85 205.7875 129 206 C128.30959426 207.65697379 127.6469365 209.3255761 127 211 C123.7385036 214.11969221 121.37595645 216.02756523 117 217 C116.67 217.99 116.34 218.98 116 220 C115.34 220 114.68 220 114 220 C113.34 221.32 112.68 222.64 112 224 C111.34 224 110.68 224 110 224 C110 224.66 110 225.32 110 226 C109.443125 226.20625 108.88625 226.4125 108.3125 226.625 C105.71721842 227.98938378 105.71721842 227.98938378 103.5 231.0625 C101 234 101 234 98.6875 234.875 C98.130625 234.91625 97.57375 234.9575 97 235 C97 235.66 97 236.32 97 237 C93.55300154 240.53107159 92.17432607 241.88449252 87.1875 242.375 C84 242 84 242 83 241 C82.41176471 234.76470588 82.41176471 234.76470588 84.875 231.5625 C87 230 87 230 89 230 C89.66 228.68 90.32 227.36 91 226 C91.66 226 92.32 226 93 226 C93.66 224.68 94.32 223.36 95 222 C95.66 222 96.32 222 97 222 C97 221.34 97 220.68 97 220 C97.639375 219.896875 98.27875 219.79375 98.9375 219.6875 C99.9584375 219.3471875 99.9584375 219.3471875 101 219 C101.33 218.01 101.66 217.02 102 216 C103.98260426 214.31267723 105.9832342 212.64633943 108 211 C108.66 210.01 109.32 209.02 110 208 C110.99 207.67 111.98 207.34 113 207 C114.33895632 205.33784732 115.67130142 203.67036393 117 202 C120.1149479 198.97740904 122.77429142 197.05642715 127 196 C128.10836423 194.11683841 128.10836423 194.11683841 129 192 C130.5 190.25 130.5 190.25 132 189 C132.66 189 133.32 189 134 189 C134.33 188.01 134.66 187.02 135 186 C135.99 185.67 136.98 185.34 138 185 C139.26669114 183.5384333 140.52962553 182.07241225 141.73828125 180.5625 C144.27700457 177.41857019 146.13260922 175.28913026 150 174 C151.18598855 172.55045844 152.36992465 171.09909178 153.53515625 169.6328125 C156.02311829 166.85956414 158.86907083 165.0085206 162 163 C162.66 163 163.32 163 164 163 C164.66 161.68 165.32 160.36 166 159 C166.99 159 167.98 159 169 159 C169 158.34 169 157.68 169 157 C169.99 157 170.98 157 172 157 C172.33 154.36 172.66 151.72 173 149 C173.66 149 174.32 149 175 149 C175.06058594 148.40832031 175.12117188 147.81664062 175.18359375 147.20703125 C175.62012371 143.09021792 176.08671346 139.04455467 177 135 C177.66 135 178.32 135 179 135 C179.12117188 134.43410156 179.24234375 133.86820313 179.3671875 133.28515625 C179.53476562 132.55167969 179.70234375 131.81820312 179.875 131.0625 C180.11863281 129.96615234 180.11863281 129.96615234 180.3671875 128.84765625 C181 127 181 127 183 126 C184.13350534 123.98330173 184.13350534 123.98330173 185 122 C185.66 122 186.32 122 187 122 C187.33 120.68 187.66 119.36 188 118 C188.66 118 189.32 118 190 118 C190.66 116.68 191.32 115.36 192 114 C192.66 114 193.32 114 194 114 C194.33 113.01 194.66 112.02 195 111 C195.99 111 196.98 111 198 111 C198.33 110.01 198.66 109.02 199 108 C201.0625 107.3125 201.0625 107.3125 203 107 C203 106.34 203 105.68 203 105 C205.64 104.34 208.28 103.68 211 103 C211 102.34 211 101.68 211 101 C215.53701494 99.54815522 219.18061476 98.76490804 224 99 C224 98.34 224 97.68 224 97 C231.92 97 239.84 97 248 97 C248 97.66 248 98.32 248 99 C248.67546875 99.06058594 249.3509375 99.12117188 250.046875 99.18359375 C250.93890625 99.26738281 251.8309375 99.35117188 252.75 99.4375 C254.07257813 99.55931641 254.07257813 99.55931641 255.421875 99.68359375 C257.69350452 99.96238465 259.79851823 100.38790577 262 101 C262 101.66 262 102.32 262 103 C262.763125 103.144375 263.52625 103.28875 264.3125 103.4375 C267 104 267 104 270 105 C270 105.66 270 106.32 270 107 C270.763125 107.268125 271.52625 107.53625 272.3125 107.8125 C274.88988618 108.95134505 276.26954864 109.81416671 278 112 C278 112.66 278 113.32 278 114 C278.928125 114.2165625 278.928125 114.2165625 279.875 114.4375 C284.05539522 115.5440752 284.86267608 117.3487383 287 121 C287.66 121.66 288.32 122.32 289 123 C289 123.99 289 124.98 289 126 C289.66 126 290.32 126 291 126 C292.25664978 128.90600261 293 130.79604584 293 134 C293.66 134 294.32 134 295 134 C296.29243536 138.1196377 297.26252625 141.66831683 297 146 C297.66 146 298.32 146 299 146 C299 155.57 299 165.14 299 175 C298.34 175 297.68 175 297 175 C296.93941406 175.69867188 296.87882813 176.39734375 296.81640625 177.1171875 C296.73261719 178.02726563 296.64882813 178.93734375 296.5625 179.875 C296.48128906 180.77992188 296.40007813 181.68484375 296.31640625 182.6171875 C296 185 296 185 295 187 C294.34 187 293.68 187 293 187 C292.67 188.98 292.34 190.96 292 193 C291.01 193.33 290.02 193.66 289 194 C288.32843384 195.93618425 288.32843384 195.93618425 288 198 C287.67 198.66 287.34 199.32 287 200 C286.34 200 285.68 200 285 200 C284.938125 200.8353125 284.938125 200.8353125 284.875 201.6875 C283.51022892 205.294395 281.08919824 206.73038496 278 209 C277.34 209 276.68 209 276 209 C276 209.66 276 210.32 276 211 C273 213 273 213 270 213 C269.67 213.99 269.34 214.98 269 216 C267.02 216.33 265.04 216.66 263 217 C263 217.66 263 218.32 263 219 C260.69 219.33 258.38 219.66 256 220 C256 220.66 256 221.32 256 222 C254.43883181 222.33951619 252.87598662 222.67132544 251.3125 223 C250.44238281 223.185625 249.57226562 223.37125 248.67578125 223.5625 C246 224 246 224 241 224 C241 273.83 241 323.66 241 375 C244.63 375.33 248.26 375.66 252 376 C254.00440123 376.30575612 256.00775284 376.62308838 258 377 C258 377.66 258 378.32 258 379 C259.11375 379.144375 260.2275 379.28875 261.375 379.4375 C265 380 265 380 267 381 C267 381.66 267 382.32 267 383 C268.65 383.33 270.3 383.66 272 384 C272 384.66 272 385.32 272 386 C272.804375 386.28875 273.60875 386.5775 274.4375 386.875 C277 388 277 388 278 390 C280.01669827 391.13350534 280.01669827 391.13350534 282 392 C282 392.99 282 393.98 282 395 C282.99 395.33 283.98 395.66 285 396 C285 396.66 285 397.32 285 398 C285.99 398.33 286.98 398.66 288 399 C288.33 399.99 288.66 400.98 289 402 C289.66 402.33 290.32 402.66 291 403 C294.55651374 409.59900011 297.360103 416.43783708 297 424 C297.66 424 298.32 424 299 424 C299 432.91 299 441.82 299 451 C298.34 451 297.68 451 297 451 C297.061875 452.5159375 297.061875 452.5159375 297.125 454.0625 C296.99426157 458.18076052 296.26749214 461.11830533 295 465 C294.34 465 293.68 465 293 465 C292.87882813 465.56589844 292.75765625 466.13179688 292.6328125 466.71484375 C292.46523438 467.44832031 292.29765625 468.18179687 292.125 468.9375 C291.96257813 469.66839844 291.80015625 470.39929688 291.6328125 471.15234375 C291 473 291 473 289 474 C287.86649466 476.01669827 287.86649466 476.01669827 287 478 C286.34 478 285.68 478 285 478 C284.67 478.99 284.34 479.98 284 481 C283.34 481 282.68 481 282 481 C281.34 482.32 280.68 483.64 280 485 C279.34 485 278.68 485 278 485 C277.34 486.32 276.68 487.64 276 489 C275.01 489 274.02 489 273 489 C272.67 489.99 272.34 490.98 272 492 C270.02 492.33 268.04 492.66 266 493 C266 493.66 266 494.32 266 495 C264.60721983 495.65239158 263.21060788 496.29660552 261.8125 496.9375 C261.03519531 497.29714844 260.25789062 497.65679688 259.45703125 498.02734375 C252.95493085 500.60130718 246.2453321 500.18613143 239.35473633 500.18530273 C237.33588105 500.18747484 235.31758592 500.20561801 233.29882812 500.22460938 C223.5561764 500.23911456 214.60349906 499.98097314 206 495 C206 494.34 206 493.68 206 493 C205.401875 492.855625 204.80375 492.71125 204.1875 492.5625 C199.97765852 491.47996933 197.87510205 490.27166785 195 487 C195 486.34 195 485.68 195 485 C194.360625 484.896875 193.72125 484.79375 193.0625 484.6875 C192.381875 484.460625 191.70125 484.23375 191 484 C190.67 483.01 190.34 482.02 190 481 C189.01 480.175 188.02 479.35 187 478.5 C184 476 184 476 183 473 C182.34 472.67 181.68 472.34 181 472 C180.3671875 469.93359375 180.3671875 469.93359375 179.875 467.4375 C179.70742188 466.61121094 179.53984375 465.78492188 179.3671875 464.93359375 C179.24601562 464.29550781 179.12484375 463.65742188 179 463 C178.34 463 177.68 463 177 463 C175.24252386 458.49646738 174.80705592 454.82360189 175 450 C174.34 450 173.68 450 173 450 C172.67 446.7 172.34 443.4 172 440 C170.68 439.67 169.36 439.34 168 439 C168 438.34 168 437.68 168 437 C167.46375 436.938125 166.9275 436.87625 166.375 436.8125 C160.13200582 434.67673883 156.42072686 429.33230952 153 424 C153 423.34 153 422.68 153 422 C151.68 421.34 150.36 420.68 149 420 C149 419.34 149 418.68 149 418 C147.68 417.34 146.36 416.68 145 416 C145 415.34 145 414.68 145 414 C144.01 413.67 143.02 413.34 142 413 C142 412.34 142 411.68 142 411 C140.68 410.34 139.36 409.68 138 409 C138 408.34 138 407.68 138 407 C136.68 406.34 135.36 405.68 134 405 C134 404.34 134 403.68 134 403 C133.01 402.67 132.02 402.34 131 402 C131 401.01 131 400.02 131 399 C130.01 398.67 129.02 398.34 128 398 C126.78011089 396.54932106 125.56429516 395.0946065 124.38671875 393.609375 C122.84715152 391.73360255 122.84715152 391.73360255 120 389.5 C116.8159573 386.84663108 114.49184924 384.29803576 112 381 C112 380.34 112 379.68 112 379 C111.34 379 110.68 379 110 379 C108.4921875 377.5390625 108.4921875 377.5390625 106.875 375.625 C106.33617187 374.99851562 105.79734375 374.37203125 105.2421875 373.7265625 C104 372 104 372 104 370 C103.29875 369.814375 102.5975 369.62875 101.875 369.4375 C97.97654078 367.48827039 95.36693166 364.65206981 93 361 C93 360.01 93 359.02 93 358 C92.01 357.67 91.02 357.34 90 357 C87.8125 355.0625 87.8125 355.0625 86 353 C86 352.34 86 351.68 86 351 C84.68 350.34 83.36 349.68 82 349 C82 348.34 82 347.68 82 347 C81.01 346.67 80.02 346.34 79 346 C77.3515625 344.36328125 77.3515625 344.36328125 75.625 342.3125 C75.01011719 341.590625 74.39523437 340.86875 73.76171875 340.125 C72.71402991 338.86126889 71.67252293 337.5923052 70.64453125 336.3125 C68.57360447 333.73892109 66.54655415 331.62212846 64 329.5 C61.72187953 327.60156627 60.07868355 326.00896203 58.25 323.75 C56.29368116 320.97640062 56.29368116 320.97640062 54 320 C53.27306096 318.02111039 52.60183749 316.02045442 52 314 C50.35 313.67 48.7 313.34 47 313 C46.34 316.3 45.68 319.6 45 323 C44.34 323 43.68 323 43 323 C42.855625 323.928125 42.71125 324.85625 42.5625 325.8125 C42 329 42 329 41 332 C40.34 332 39.68 332 39 332 C38.855625 332.598125 38.71125 333.19625 38.5625 333.8125 C37.63667025 337.41294901 36.86358573 339.59458798 34 342 C33.34 342 32.68 342 32 342 C31.34 343.65 30.68 345.3 30 347 C29.34 347 28.68 347 28 347 C27.34 348.32 26.68 349.64 26 351 C25.01 351 24.02 351 23 351 C22.67 351.99 22.34 352.98 22 354 C20.35 354.33 18.7 354.66 17 355 C17 355.66 17 356.32 17 357 C15.35 357.33 13.7 357.66 12 358 C12 358.66 12 359.32 12 360 C8.12315913 361.19287411 5.08378077 362 1 362 C1 362.66 1 363.32 1 364 C-2.63 364.33 -6.26 364.66 -10 365 C-10.33 402.29 -10.66 439.58 -11 478 C-7.37 478 -3.74 478 0 478 C0 478.66 0 479.32 0 480 C2.64 480.33 5.28 480.66 8 481 C8 481.66 8 482.32 8 483 C9.11375 483.144375 10.2275 483.28875 11.375 483.4375 C15 484 15 484 17 485 C17 485.66 17 486.32 17 487 C18.98 487.66 20.96 488.32 23 489 C23 489.66 23 490.32 23 491 C23.639375 491.103125 24.27875 491.20625 24.9375 491.3125 C25.9584375 491.6528125 25.9584375 491.6528125 27 492 C27.33 492.99 27.66 493.98 28 495 C28.99 495.33 29.98 495.66 31 496 C31.6875 498.0625 31.6875 498.0625 32 500 C32.66 500 33.32 500 34 500 C36.42099644 502.01749703 37.81699429 504.08798596 39 507 C39 507.99 39 508.98 39 510 C39.66 510 40.32 510 41 510 C42.25664978 512.90600261 43 514.79604584 43 518 C43.66 518 44.32 518 45 518 C45.90931025 522.64091365 46.14650014 527.13423921 46.1328125 531.84765625 C46.13424759 532.94913246 46.13424759 532.94913246 46.13571167 534.07286072 C46.13638875 535.61668992 46.13456758 537.16052205 46.13037109 538.7043457 C46.12500838 541.0588218 46.13033608 543.41310783 46.13671875 545.76757812 C46.13605803 547.27343792 46.13477701 548.77929759 46.1328125 550.28515625 C46.13483673 550.98423599 46.13686096 551.68331573 46.13894653 552.40357971 C46.12150372 556.06108183 45.86678351 559.44291674 45 563 C44.34 563 43.68 563 43 563 C42.855625 563.94875 42.71125 564.8975 42.5625 565.875 C42 569 42 569 41 571 C40.34 571 39.68 571 39 571 C38.855625 571.598125 38.71125 572.19625 38.5625 572.8125 C38.1127561 574.56150404 37.57107659 576.28677023 37 578 C36.34 578 35.68 578 35 578 C34.67 578.99 34.34 579.98 34 581 C33.34 581 32.68 581 32 581 C31.896875 581.639375 31.79375 582.27875 31.6875 582.9375 C31.460625 583.618125 31.23375 584.29875 31 585 C30.01 585.33 29.02 585.66 28 586 C27.67 586.99 27.34 587.98 27 589 C26.01 589.33 25.02 589.66 24 590 C23.34 590.99 22.68 591.98 22 593 C21.01 593 20.02 593 19 593 C19 593.66 19 594.32 19 595 C16.35261084 596.4606285 15.10551666 597 12 597 C12 597.66 12 598.32 12 599 C8.12315913 600.19287411 5.08378077 601 1 601 C1 601.66 1 602.32 1 603 C-2.58117288 603.81811277 -5.89195766 604.12844281 -9.5625 604.1328125 C-11.12871094 604.13474609 -11.12871094 604.13474609 -12.7265625 604.13671875 C-13.80679687 604.13285156 -14.88703125 604.12898437 -16 604.125 C-17.08023437 604.12886719 -18.16046875 604.13273438 -19.2734375 604.13671875 C-20.31757813 604.13542969 -21.36171875 604.13414062 -22.4375 604.1328125 C-23.85869141 604.13112061 -23.85869141 604.13112061 -25.30859375 604.12939453 C-27.96758753 604.00155829 -30.40832307 603.59206413 -33 603 C-33 602.34 -33 601.68 -33 601 C-34.258125 600.855625 -35.51625 600.71125 -36.8125 600.5625 C-39.42667123 600.26251314 -41.47439892 599.84186703 -44 599 C-44 598.34 -44 597.68 -44 597 C-44.78375 596.855625 -45.5675 596.71125 -46.375 596.5625 C-49 596 -49 596 -51 595 C-51 594.34 -51 593.68 -51 593 C-51.8971875 592.8453125 -51.8971875 592.8453125 -52.8125 592.6875 C-55.30869017 591.90298309 -56.25731865 590.90110692 -58 589 C-58.66 588.67 -59.32 588.34 -60 588 C-60 587.34 -60 586.68 -60 586 C-60.99 585.67 -61.98 585.34 -63 585 C-63.33 584.01 -63.66 583.02 -64 582 C-64.99 581.34 -65.98 580.68 -67 580 C-67 579.34 -67 578.68 -67 578 C-67.66 578 -68.32 578 -69 578 C-70.4606285 575.35261084 -71 574.10551666 -71 571 C-71.66 571 -72.32 571 -73 571 C-74.25664978 568.09399739 -75 566.20395416 -75 563 C-75.66 563 -76.32 563 -77 563 C-78.03523001 558.75165044 -78.14539968 554.63221169 -78.1328125 550.28515625 C-78.13376923 549.5517955 -78.13472595 548.81843475 -78.13571167 548.06285095 C-78.13638983 546.51724156 -78.13456103 544.97162926 -78.13037109 543.42602539 C-78.12502537 541.07366462 -78.13032448 538.72149544 -78.13671875 536.36914062 C-78.13605775 534.86197875 -78.13477615 533.35481699 -78.1328125 531.84765625 C-78.13483673 531.15060074 -78.13686096 530.45354523 -78.13894653 529.73536682 C-78.11989417 525.72131287 -77.77174977 521.93883608 -77 518 C-76.34 518 -75.68 518 -75 518 C-74.855625 517.236875 -74.71125 516.47375 -74.5625 515.6875 C-74 513 -74 513 -73 510 C-72.34 510 -71.68 510 -71 510 C-70.855625 509.401875 -70.71125 508.80375 -70.5625 508.1875 C-69.28729282 503.22836096 -69.28729282 503.22836096 -66.5625 501.0625 C-64.10694869 499.08608065 -63.12960279 497.87535256 -62 495 C-61.34 495 -60.68 495 -60 495 C-59.67 494.01 -59.34 493.02 -59 492 C-58.01 491.67 -57.02 491.34 -56 491 C-55.34 490.01 -54.68 489.02 -54 488 C-51.375 487.3125 -51.375 487.3125 -49 487 C-49 486.34 -49 485.68 -49 485 C-46.03 484.34 -43.06 483.68 -40 483 C-40 482.34 -40 481.68 -40 481 C-37.36 480.67 -34.72 480.34 -32 480 C-32 479.34 -32 478.68 -32 478 C-28.37 478 -24.74 478 -21 478 C-21.33 440.71 -21.66 403.42 -22 365 C-24.31 365 -26.62 365 -29 365 C-31.4375 364.5 -31.4375 364.5 -33 364 C-33 363.34 -33 362.68 -33 362 C-34.258125 361.855625 -35.51625 361.71125 -36.8125 361.5625 C-39.42667123 361.26251314 -41.47439892 360.84186703 -44 360 C-44 359.34 -44 358.68 -44 358 C-45.65 357.67 -47.3 357.34 -49 357 C-49 356.34 -49 355.68 -49 355 C-49.78375 354.896875 -50.5675 354.79375 -51.375 354.6875 C-54 354 -54 354 -56 351 C-58.05003955 349.80767387 -58.05003955 349.80767387 -60 349 C-60 348.34 -60 347.68 -60 347 C-60.99 346.67 -61.98 346.34 -63 346 C-63.6875 343.9375 -63.6875 343.9375 -64 342 C-64.66 342 -65.32 342 -66 342 C-68.42099644 339.98250297 -69.81699429 337.91201404 -71 335 C-71 334.01 -71 333.02 -71 332 C-71.66 332 -72.32 332 -73 332 C-74.49821059 328.62902617 -75 326.79557881 -75 323 C-75.66 323 -76.32 323 -77 323 C-77.13277344 321.95199219 -77.26554688 320.90398437 -77.40234375 319.82421875 C-77.58057235 318.44529222 -77.75896641 317.06638707 -77.9375 315.6875 C-78.02451172 314.99720703 -78.11152344 314.30691406 -78.20117188 313.59570312 C-78.59210135 310.59857712 -79.0415004 307.87549881 -80 305 C-81.92430968 303.8719564 -83.85953936 303.05437186 -85.9375 302.25 C-88.39680151 300.75951424 -89.86820695 298.83322697 -91.62890625 296.58984375 C-93.06808241 294.92105544 -94.58785659 293.61754078 -96.3125 292.25 C-97.6428125 291.13625 -97.6428125 291.13625 -99 290 C-99 289.34 -99 288.68 -99 288 C-99.7425 287.7525 -100.485 287.505 -101.25 287.25 C-104.23023087 285.89534961 -105.89919252 284.4898459 -108 282 C-108 281.34 -108 280.68 -108 280 C-109.32 279.34 -110.64 278.68 -112 278 C-112 277.34 -112 276.68 -112 276 C-112.99 275.67 -113.98 275.34 -115 275 C-116.68732277 273.01739574 -118.35366057 271.0167658 -120 269 C-120.99 268.34 -121.98 267.68 -123 267 C-123 266.34 -123 265.68 -123 265 C-124.32 264.34 -125.64 263.68 -127 263 C-127 262.34 -127 261.68 -127 261 C-127.99 260.67 -128.98 260.34 -130 260 C-132.1875 258.0625 -132.1875 258.0625 -134 256 C-134 255.34 -134 254.68 -134 254 C-135.32 253.34 -136.64 252.68 -138 252 C-138 251.34 -138 250.68 -138 250 C-138.99 249.67 -139.98 249.34 -141 249 C-142.68732277 247.01739574 -144.35366057 245.0167658 -146 243 C-146.99 242.34 -147.98 241.68 -149 241 C-149 240.34 -149 239.68 -149 239 C-150.32 238.34 -151.64 237.68 -153 237 C-153 236.34 -153 235.68 -153 235 C-153.99 234.67 -154.98 234.34 -156 234 C-157.68732277 232.01739574 -159.35366057 230.0167658 -161 228 C-161.99 227.34 -162.98 226.68 -164 226 C-164 225.34 -164 224.68 -164 224 C-164.5775 223.731875 -165.155 223.46375 -165.75 223.1875 C-168.05550043 221.97070811 -170.02056192 220.69666121 -172 219 C-172 218.34 -172 217.68 -172 217 C-173.32 216.34 -174.64 215.68 -176 215 C-176 214.34 -176 213.68 -176 213 C-176.598125 212.731875 -177.19625 212.46375 -177.8125 212.1875 C-179.99847854 211.00082594 -181.41332594 209.90400887 -183 208 C-183 207.34 -183 206.68 -183 206 C-184.32 205.34 -185.64 204.68 -187 204 C-187 203.34 -187 202.68 -187 202 C-187.58265625 201.7421875 -188.1653125 201.484375 -188.765625 201.21875 C-191.1802903 199.90165983 -192.81740177 198.44911616 -194.75 196.5 C-195.36359375 195.8915625 -195.9771875 195.283125 -196.609375 194.65625 C-198 193 -198 193 -198 191 C-199.32 190.34 -200.64 189.68 -202 189 C-202 188.34 -202 187.68 -202 187 C-202.66 187 -203.32 187 -204 187 C-204.33 187.99 -204.66 188.98 -205 190 C-205.66 190 -206.32 190 -207 190 C-207.144375 191.2375 -207.28875 192.475 -207.4375 193.75 C-207.78688502 196.56504499 -208.20379366 199.2701497 -209 202 C-209.66 202 -210.32 202 -211 202 C-211.0825 202.845625 -211.165 203.69125 -211.25 204.5625 C-212.5226539 210.39549705 -215.37967401 215.14972834 -220 219 C-220.66 219 -221.32 219 -222 219 C-222.103125 219.639375 -222.20625 220.27875 -222.3125 220.9375 C-222.539375 221.618125 -222.76625 222.29875 -223 223 C-223.99 223.33 -224.98 223.66 -226 224 C-226.804375 224.969375 -227.60875 225.93875 -228.4375 226.9375 C-231.77358491 230.9245283 -231.77358491 230.9245283 -235 232 C-235.99 232 -236.98 232 -238 232 C-238 232.66 -238 233.32 -238 234 C-240.31 234.33 -242.62 234.66 -245 235 C-245 235.66 -245 236.32 -245 237 C-250.22512279 238.46670113 -254.5814234 239.22577402 -260 239 C-260 239.66 -260 240.32 -260 241 C-260.99 241.33 -261.98 241.66 -263 242 C-263 286.22 -263 330.44 -263 376 C-258.71 376 -254.42 376 -250 376 C-248.68 376.33 -247.36 376.66 -246 377 C-246 377.66 -246 378.32 -246 379 C-243.03 379.66 -240.06 380.32 -237 381 C-237 381.66 -237 382.32 -237 383 C-235.68 383.33 -234.36 383.66 -233 384 C-233 384.66 -233 385.32 -233 386 C-231.6696875 386.309375 -231.6696875 386.309375 -230.3125 386.625 C-226.20757011 388.32893316 -224.66513384 390.49324495 -222 394 C-221.29875 394.70125 -220.5975 395.4025 -219.875 396.125 C-215 401 -215 401 -215 405 C-214.01 405.33 -213.02 405.66 -212 406 C-211.67 407.98 -211.34 409.96 -211 412 C-210.34 412 -209.68 412 -209 412 C-207.86235649 416.26616316 -207 419.56486311 -207 424 C-206.34 424 -205.68 424 -205 424 C-204.67 425.32 -204.34 426.64 -204 428 C-200.84813973 427.25418905 -200.84813973 427.25418905 -199.125 424.625 C-196.90161207 421.87846197 -195.08557889 420.65567648 -192 419 C-188.6489731 417.1296594 -187.16669693 416.2500454 -185 413 C-184.34 413 -183.68 413 -183 413 C-182.67 412.01 -182.34 411.02 -182 410 C-181.01 409.67 -180.02 409.34 -179 409 C-177.79833286 407.47355796 -176.59690572 405.94692366 -175.3984375 404.41796875 C-173.31210663 402.30249918 -170.7898715 401.86796002 -168 401 C-166.90833725 399.06669397 -166.90833725 399.06669397 -166 397 C-164.35666496 395.96210419 -162.68756133 394.96432076 -161 394 C-159.9171875 392.9171875 -159.9171875 392.9171875 -158.8125 391.8125 C-158.214375 391.214375 -157.61625 390.61625 -157 390 C-156.34 390 -155.68 390 -155 390 C-155 389.34 -155 388.68 -155 388 C-152.88414923 385.41396017 -151.70537877 384.13435786 -148.375 383.5 C-147.59125 383.335 -146.8075 383.17 -146 383 C-144.63979849 381.03241727 -144.63979849 381.03241727 -144 379 C-143.34 379 -142.68 379 -142 379 C-142 378.34 -142 377.68 -142 377 C-141.443125 376.773125 -140.88625 376.54625 -140.3125 376.3125 C-137.34760028 374.62971908 -135.383485 372.43891488 -133 370 C-131.80627344 368.88005787 -130.59739696 367.77607666 -129.375 366.6875 C-128.80523437 366.17574219 -128.23546875 365.66398437 -127.6484375 365.13671875 C-126 364 -126 364 -123 364 C-122.67 363.01 -122.34 362.02 -122 361 C-119.125 360.8125 -119.125 360.8125 -116 361 C-113.79990136 364.30014795 -113.37680997 365.1718327 -114 369 C-117.28345098 373.92517647 -119.3290423 375.23570205 -125 377 C-126.42055068 379.00136244 -126.42055068 379.00136244 -127 381 C-127.66 381 -128.32 381 -129 381 C-129.33 381.99 -129.66 382.98 -130 384 C-130.99 384 -131.98 384 -133 384 C-133.33 384.99 -133.66 385.98 -134 387 C-136.33203016 389.64296752 -137.61673278 390.87224426 -141 392 C-142.175625 393.2065625 -142.175625 393.2065625 -143.375 394.4375 C-146 397 -146 397 -148.6875 398.0625 C-151.16723474 398.80256311 -151.16723474 398.80256311 -152.3125 401.125 C-152.539375 401.74375 -152.76625 402.3625 -153 403 C-153.66 403 -154.32 403 -155 403 C-155 403.66 -155 404.32 -155 405 C-155.598125 405.268125 -156.19625 405.53625 -156.8125 405.8125 C-159.0299713 406.87296728 -159.0299713 406.87296728 -160.5 408.5625 C-162 410 -162 410 -164.0625 410.375 C-164.701875 410.58125 -165.34125 410.7875 -166 411 C-166.28875 411.804375 -166.5775 412.60875 -166.875 413.4375 C-167.24625 414.283125 -167.6175 415.12875 -168 416 C-169.97888961 416.72693904 -171.97954558 417.39816251 -174 418 C-174.33 418.99 -174.66 419.98 -175 421 C-177.0625 421.6875 -177.0625 421.6875 -179 422 C-179 422.66 -179 423.32 -179 424 C-181.66821069 427.06350116 -184.50620771 428.97727815 -188 431 C-188.66 431.66 -189.32 432.32 -190 433 C-190.99 433 -191.98 433 -193 433 C-193.33 433.99 -193.66 434.98 -194 436 C-194.99 436.33 -195.98 436.66 -197 437 C-197.474375 437.515625 -197.94875 438.03125 -198.4375 438.5625 C-200 440 -200 440 -204 440 C-204.33 443.63 -204.66 447.26 -205 451 C-205.66 451 -206.32 451 -207 451 C-207.06058594 451.67546875 -207.12117188 452.3509375 -207.18359375 453.046875 C-207.30927734 454.38492188 -207.30927734 454.38492188 -207.4375 455.75 C-207.55931641 457.07257813 -207.55931641 457.07257813 -207.68359375 458.421875 C-207.96238465 460.69350452 -208.38790577 462.79851823 -209 465 C-209.66 465 -210.32 465 -211 465 C-211.12117188 465.56589844 -211.24234375 466.13179688 -211.3671875 466.71484375 C-211.53476563 467.44832031 -211.70234375 468.18179687 -211.875 468.9375 C-212.03742188 469.66839844 -212.19984375 470.39929688 -212.3671875 471.15234375 C-213 473 -213 473 -215 474 C-215.33 474.99 -215.66 475.98 -216 477 C-217.9375 479.1875 -217.9375 479.1875 -220 481 C-220.66 481 -221.32 481 -222 481 C-222.66 482.32 -223.32 483.64 -224 485 C-224.66 485 -225.32 485 -226 485 C-226.33 485.99 -226.66 486.98 -227 488 C-227.99 488.33 -228.98 488.66 -230 489 C-230.33 489.66 -230.66 490.32 -231 491 C-233.62581138 492.57548683 -234.87099787 493 -238 493 C-238 493.66 -238 494.32 -238 495 C-239.20268681 495.65628849 -240.41252554 496.29947505 -241.625 496.9375 C-242.29789062 497.29714844 -242.97078125 497.65679688 -243.6640625 498.02734375 C-250.56414816 500.90045634 -258.34642577 500.18612711 -265.68505859 500.18530273 C-267.86185334 500.18748681 -270.03813855 500.20567081 -272.21484375 500.22460938 C-281.72682404 500.26363428 -289.46236793 499.69569764 -298 495 C-298 494.34 -298 493.68 -298 493 C-298.598125 492.855625 -299.19625 492.71125 -299.8125 492.5625 C-301.56150404 492.1127561 -303.28677023 491.57107659 -305 491 C-305.33 490.34 -305.66 489.68 -306 489 C-308.01669827 487.86649466 -308.01669827 487.86649466 -310 487 C-310 486.34 -310 485.68 -310 485 C-311.32 484.34 -312.64 483.68 -314 483 C-314 482.34 -314 481.68 -314 481 C-314.99 480.67 -315.98 480.34 -317 480 C-317 479.34 -317 478.68 -317 478 C-317.66 478 -318.32 478 -319 478 C-319.66 476.02 -320.32 474.04 -321 472 C-321.66 472 -322.32 472 -323 472 C-324.49821059 468.62902617 -325 466.79557881 -325 463 C-325.66 463 -326.32 463 -327 463 C-328.75747614 458.49646738 -329.19294408 454.82360189 -329 450 C-329.66 450 -330.32 450 -331 450 C-331 441.75 -331 433.5 -331 425 C-330.34 425 -329.68 425 -329 425 C-328.9175 423.72125 -328.835 422.4425 -328.75 421.125 C-328.15686735 415.78680615 -326.69014683 410.67528967 -324 406 C-323.01 405.67 -322.02 405.34 -321 405 C-320.3185177 403.10820797 -320.3185177 403.10820797 -320 401 C-319.67 400.01 -319.34 399.02 -319 398 C-318.34 398 -317.68 398 -317 398 C-316.67 397.01 -316.34 396.02 -316 395 C-314.02043058 393.30911778 -312.02054804 391.64169528 -310 390 C-309.67 389.34 -309.34 388.68 -309 388 C-307.35666496 386.96210419 -305.68756133 385.96432076 -304 385 C-303.01 384.34 -302.02 383.68 -301 383 C-300.01 383 -299.02 383 -298 383 C-298 382.34 -298 381.68 -298 381 C-295.09399739 379.74335022 -293.20395416 379 -290 379 C-290 378.34 -290 377.68 -290 377 C-286 376 -286 376 -272 376 C-272 331.45 -272 286.9 -272 241 C-272.99 241 -273.98 241 -275 241 C-275 240.34 -275 239.68 -275 239 C-276.155 239.04125 -277.31 239.0825 -278.5 239.125 C-282.94481301 239.14087433 -286.73724131 238.21793105 -291 237 C-291 236.34 -291 235.68 -291 235 C-293.31 234.67 -295.62 234.34 -298 234 C-298 233.34 -298 232.68 -298 232 C-298.598125 231.855625 -299.19625 231.71125 -299.8125 231.5625 C-301.56150404 231.1127561 -303.28677023 230.57107659 -305 230 C-305.495 229.01 -305.495 229.01 -306 228 C-308.01669827 226.86649466 -308.01669827 226.86649466 -310 226 C-310 225.34 -310 224.68 -310 224 C-311.32 223.34 -312.64 222.68 -314 222 C-314 221.34 -314 220.68 -314 220 C-314.99 219.67 -315.98 219.34 -317 219 C-317 218.34 -317 217.68 -317 217 C-317.66 217 -318.32 217 -319 217 C-319.66 215.02 -320.32 213.04 -321 211 C-321.66 211 -322.32 211 -323 211 C-323.66 208.69 -324.32 206.38 -325 204 C-325.66 204 -326.32 204 -327 204 C-328.45184478 199.46298506 -329.23509196 195.81938524 -329 191 C-329.66 191 -330.32 191 -331 191 C-331 181.76 -331 172.52 -331 163 C-330.34 163 -329.68 163 -329 163 C-328.90912109 161.98679688 -328.90912109 161.98679688 -328.81640625 160.953125 C-328.69072266 159.61507812 -328.69072266 159.61507812 -328.5625 158.25 C-328.48128906 157.36828125 -328.40007812 156.4865625 -328.31640625 155.578125 C-328.03761535 153.30649548 -327.61209423 151.20148177 -327 149 C-326.34 149 -325.68 149 -325 149 C-324.855625 148.21625 -324.71125 147.4325 -324.5625 146.625 C-324 144 -324 144 -323 142 C-322.34 142 -321.68 142 -321 142 C-320.34 140.35 -319.68 138.7 -319 137 C-318.34 137 -317.68 137 -317 137 C-316.505 135.02 -316.505 135.02 -316 133 C-315.34 133 -314.68 133 -314 133 C-313.01 131.02 -313.01 131.02 -312 129 C-311.34 129 -310.68 129 -310 129 C-310 128.34 -310 127.68 -310 127 C-307.03 126.01 -307.03 126.01 -304 125 C-304 124.34 -304 123.68 -304 123 C-301.525 122.505 -301.525 122.505 -299 122 C-299 121.34 -299 120.68 -299 120 C-295.62902617 118.50178941 -293.79557881 118 -290 118 C-290 117.34 -290 116.68 -290 116 C-276.42183648 112.36183178 -259.57816352 112.36183178 -246 116 C-246 116.66 -246 117.32 -246 118 C-243.03 118.66 -240.06 119.32 -237 120 C-237 120.66 -237 121.32 -237 122 C-235.02 122.495 -235.02 122.495 -233 123 C-233 123.66 -233 124.32 -233 125 C-232.113125 125.20625 -231.22625 125.4125 -230.3125 125.625 C-226.88052222 127.04959455 -225.4295584 128.50032052 -223.21484375 131.4296875 C-221.88083755 133.22927736 -221.88083755 133.22927736 -219.5 135.4375 C-211.55668246 143.57940048 -207.73148835 152.66193065 -207 164 C-206.34 164 -205.68 164 -205 164 C-204.67 167.3 -204.34 170.6 -204 174 C-202.68 174.33 -201.36 174.66 -200 175 C-197.75 176.9375 -197.75 176.9375 -196 179 C-196 179.66 -196 180.32 -196 181 C-194.68 181.66 -193.36 182.32 -192 183 C-192 183.66 -192 184.32 -192 185 C-190.35 185.66 -188.7 186.32 -187 187 C-187 187.66 -187 188.32 -187 189 C-186.09894531 189.14695313 -186.09894531 189.14695313 -185.1796875 189.296875 C-182.55562236 190.14334763 -181.78949213 191.08710063 -180.125 193.25 C-177.38922459 196.63354087 -174.35289093 199.21781391 -171 202 C-169.33333333 204 -167.66666667 206 -166 208 C-165.01 208.825 -164.02 209.65 -163 210.5 C-159.89294284 213.0892143 -157.58386262 215.89936486 -155 219 C-153.05753602 220.7456949 -151.03255202 222.35666007 -149 224 C-146.625 226.1875 -146.625 226.1875 -145 228 C-145 228.66 -145 229.32 -145 230 C-144.443125 230.04125 -143.88625 230.0825 -143.3125 230.125 C-139.82653414 231.44401411 -138.28404524 234.13030213 -136 237 C-135.01 237.66 -134.02 238.32 -133 239 C-133 239.66 -133 240.32 -133 241 C-131.68 241.66 -130.36 242.32 -129 243 C-129 243.66 -129 244.32 -129 245 C-128.01 245.33 -127.02 245.66 -126 246 C-124.31267723 247.98260426 -122.64633943 249.9832342 -121 252 C-120.01 252.66 -119.02 253.32 -118 254 C-118 254.66 -118 255.32 -118 256 C-116.68 256.66 -115.36 257.32 -114 258 C-114 258.66 -114 259.32 -114 260 C-113.01 260.33 -112.02 260.66 -111 261 C-108.8125 262.9375 -108.8125 262.9375 -107 265 C-107 265.66 -107 266.32 -107 267 C-105.68 267.66 -104.36 268.32 -103 269 C-103 269.66 -103 270.32 -103 271 C-101.68 271.66 -100.36 272.32 -99 273 C-99 273.66 -99 274.32 -99 275 C-98.01 275.33 -97.02 275.66 -96 276 C-93.8125 277.9375 -93.8125 277.9375 -92 280 C-92 280.66 -92 281.32 -92 282 C-90.68 282.66 -89.36 283.32 -88 284 C-88 284.66 -88 285.32 -88 286 C-87.443125 286.268125 -86.88625 286.53625 -86.3125 286.8125 C-83.80287477 288.10122647 -81.40665764 289.52926478 -79 291 C-78.34 287.37 -77.68 283.74 -77 280 C-76.34 280 -75.68 280 -75 280 C-74.855625 278.88625 -74.71125 277.7725 -74.5625 276.625 C-74 273 -74 273 -73 271 C-72.34 271 -71.68 271 -71 271 C-70.855625 270.401875 -70.71125 269.80375 -70.5625 269.1875 C-69.31679564 264.34309417 -67.87200267 263.09760214 -64 260 C-62.45637201 258.19910068 -60.9779363 256.36480956 -59.52734375 254.48828125 C-57.73559486 252.74235714 -56.43833866 252.39328043 -54 252 C-54 251.34 -54 250.68 -54 250 C-52.54462432 249.16151196 -51.08559627 248.32936066 -49.625 247.5 C-48.81289063 247.0359375 -48.00078125 246.571875 -47.1640625 246.09375 C-45 245 -45 245 -43 245 C-43 244.34 -43 243.68 -43 243 C-38.46298506 241.54815522 -34.81938524 240.76490804 -30 241 C-30 240.34 -30 239.68 -30 239 C-27.03 238.67 -24.06 238.34 -21 238 C-21.33 236.68 -21.66 235.36 -22 234 C-22.08612938 232.47486547 -22.12203075 230.94644784 -22.12025452 229.41888428 C-22.12231651 228.04754333 -22.12231651 228.04754333 -22.12442017 226.64849854 C-22.12082489 225.65299988 -22.11722961 224.65750122 -22.11352539 223.63183594 C-22.11367142 222.57786621 -22.11381744 221.52389648 -22.1139679 220.43798828 C-22.1132711 216.9534296 -22.10548953 213.46892434 -22.09765625 209.984375 C-22.09579124 207.56870554 -22.09436773 205.1530357 -22.09336853 202.73736572 C-22.08954986 196.37844804 -22.07972508 190.01955319 -22.06866455 183.66064453 C-22.05843649 177.17220366 -22.05386791 170.68375911 -22.04882812 164.1953125 C-22.03810226 151.46353193 -22.02122575 138.73176718 -22 126 C-23.32 126 -24.64 126 -26 126 C-26 125.34 -26 124.68 -26 124 C-26.74765625 123.93941406 -27.4953125 123.87882812 -28.265625 123.81640625 C-29.25046875 123.73261719 -30.2353125 123.64882812 -31.25 123.5625 C-32.22453125 123.48128906 -33.1990625 123.40007812 -34.203125 123.31640625 C-36.56461753 123.04925416 -38.71901065 122.64628032 -41 122 C-41 121.34 -41 120.68 -41 120 C-41.94875 119.855625 -42.8975 119.71125 -43.875 119.5625 C-47 119 -47 119 -49 118 C-49 117.34 -49 116.68 -49 116 C-49.969375 115.71125 -50.93875 115.4225 -51.9375 115.125 C-55 114 -55 114 -56 112 C-56.99 111.67 -57.98 111.34 -59 111 C-64 105.53488372 -64 105.53488372 -64 103 C-64.66 103 -65.32 103 -66 103 C-68.42099644 100.98250297 -69.81699429 98.91201404 -71 96 C-71 95.01 -71 94.02 -71 93 C-71.66 93 -72.32 93 -73 93 C-74.25664978 90.09399739 -75 88.20395416 -75 85 C-75.66 85 -76.32 85 -77 85 C-77.91234609 80.34766913 -78.1464725 75.84225547 -78.1328125 71.1171875 C-78.13376923 70.38049835 -78.13472595 69.6438092 -78.13571167 68.88479614 C-78.13638868 67.33677077 -78.13456802 65.78874249 -78.13037109 64.24072266 C-78.12500059 61.87526077 -78.13034021 59.50998741 -78.13671875 57.14453125 C-78.13605818 55.63541625 -78.13477747 54.12630137 -78.1328125 52.6171875 C-78.13584885 51.56082596 -78.13584885 51.56082596 -78.13894653 50.48312378 C-78.12318671 47.17814258 -78.01975691 44.16053755 -77 41 C-76.34 41 -75.68 41 -75 41 C-74.855625 39.88625 -74.71125 38.7725 -74.5625 37.625 C-74 34 -74 34 -73 32 C-72.34 32 -71.68 32 -71 32 C-70.855625 31.21625 -70.71125 30.4325 -70.5625 29.625 C-70 27 -70 27 -69 25 C-68.34 25 -67.68 25 -67 25 C-66.67 24.01 -66.34 23.02 -66 22 C-64.01739574 20.31267723 -62.0167658 18.64633943 -60 17 C-59.34 16.01 -58.68 15.02 -58 14 C-57.34 14 -56.68 14 -56 14 C-55.67 13.01 -55.34 12.02 -55 11 C-53.515 10.505 -53.515 10.505 -52 10 C-51.67 9.34 -51.34 8.68 -51 8 C-47.9681144 6.11813998 -46.75482645 6 -43 6 C-43 5.34 -43 4.68 -43 4 C-38.46298506 2.54815522 -34.81938524 1.76490804 -30 2 C-30 1.34 -30 0.68 -30 0 C-19.8725856 -1.32818549 -10.13582468 -1.23124985 0 0 Z " fill="#F2F2F2" transform="translate(373,30)"/>
<path d="M0 0 C0 0.66 0 1.32 0 2 C0.61488281 2.06058594 1.22976563 2.12117188 1.86328125 2.18359375 C2.67152344 2.26738281 3.47976563 2.35117187 4.3125 2.4375 C5.11300781 2.51871094 5.91351563 2.59992187 6.73828125 2.68359375 C9 3 9 3 12 4 C12 4.66 12 5.32 12 6 C13.175625 6.2165625 13.175625 6.2165625 14.375 6.4375 C17 7 17 7 19 8 C19 8.66 19 9.32 19 10 C19.9590625 10.1546875 19.9590625 10.1546875 20.9375 10.3125 C21.618125 10.539375 22.29875 10.76625 23 11 C23.495 12.485 23.495 12.485 24 14 C26.01508358 14.73323796 26.01508358 14.73323796 28 15 C28 15.66 28 16.32 28 17 C29.32 17.66 30.64 18.32 32 19 C32 19.66 32 20.32 32 21 C32.66 21 33.32 21 34 21 C34.103125 21.639375 34.20625 22.27875 34.3125 22.9375 C34.539375 23.618125 34.76625 24.29875 35 25 C36.485 25.495 36.485 25.495 38 26 C38.495 28.97 38.495 28.97 39 32 C39.66 32 40.32 32 41 32 C42.25664978 34.90600261 43 36.79604584 43 40 C43.66 40 44.32 40 45 40 C46.03523001 44.24834956 46.14539968 48.36778831 46.1328125 52.71484375 C46.13376923 53.4482045 46.13472595 54.18156525 46.13571167 54.93714905 C46.13638983 56.48275844 46.13456103 58.02837074 46.13037109 59.57397461 C46.12502537 61.92633538 46.13032448 64.27850456 46.13671875 66.63085938 C46.13605775 68.13802125 46.13477615 69.64518301 46.1328125 71.15234375 C46.13483673 71.84939926 46.13686096 72.54645477 46.13894653 73.26463318 C46.11989417 77.27868713 45.77174977 81.06116392 45 85 C44.34 85 43.68 85 43 85 C42.855625 85.763125 42.71125 86.52625 42.5625 87.3125 C42 90 42 90 41 93 C40.34 93 39.68 93 39 93 C38.7834375 93.8971875 38.7834375 93.8971875 38.5625 94.8125 C37.63667025 98.41294901 36.86358573 100.59458798 34 103 C33.34 103 32.68 103 32 103 C31.731875 103.763125 31.46375 104.52625 31.1875 105.3125 C30.0364442 107.91752101 29.19546244 109.24363005 27 111 C25.515 111.495 25.515 111.495 24 112 C23.34 112.99 22.68 113.98 22 115 C19.375 115.6875 19.375 115.6875 17 116 C17 116.66 17 117.32 17 118 C14.09399739 119.25664978 12.20395416 120 9 120 C9 120.66 9 121.32 9 122 C1.73571349 124.13655486 -4.05217655 124.38862897 -12 125 C-12 162.62 -12 200.24 -12 239 C-14.64 239 -17.28 239 -20 239 C-20 201.38 -20 163.76 -20 125 C-23.96 124.67 -27.92 124.34 -32 124 C-35.01211531 123.39040523 -38.01857603 122.74535599 -41 122 C-41 121.34 -41 120.68 -41 120 C-42.423125 119.7834375 -42.423125 119.7834375 -43.875 119.5625 C-47 119 -47 119 -49 118 C-49 117.34 -49 116.68 -49 116 C-49.969375 115.71125 -50.93875 115.4225 -51.9375 115.125 C-55 114 -55 114 -56 112 C-57.485 111.505 -57.485 111.505 -59 111 C-64 105.53488372 -64 105.53488372 -64 103 C-64.66 103 -65.32 103 -66 103 C-68.42099644 100.98250297 -69.81699429 98.91201404 -71 96 C-71 95.01 -71 94.02 -71 93 C-71.66 93 -72.32 93 -73 93 C-74.25664978 90.09399739 -75 88.20395416 -75 85 C-75.66 85 -76.32 85 -77 85 C-77.91234609 80.34766913 -78.1464725 75.84225547 -78.1328125 71.1171875 C-78.13376923 70.38049835 -78.13472595 69.6438092 -78.13571167 68.88479614 C-78.13638868 67.33677077 -78.13456802 65.78874249 -78.13037109 64.24072266 C-78.12500059 61.87526077 -78.13034021 59.50998741 -78.13671875 57.14453125 C-78.13605818 55.63541625 -78.13477747 54.12630137 -78.1328125 52.6171875 C-78.13483673 51.91294647 -78.13686096 51.20870544 -78.13894653 50.48312378 C-78.12318671 47.17814258 -78.01975691 44.16053755 -77 41 C-76.34 41 -75.68 41 -75 41 C-74.855625 39.88625 -74.71125 38.7725 -74.5625 37.625 C-74 34 -74 34 -73 32 C-72.34 32 -71.68 32 -71 32 C-70.7834375 30.824375 -70.7834375 30.824375 -70.5625 29.625 C-70 27 -70 27 -69 25 C-68.34 25 -67.68 25 -67 25 C-66.67 24.01 -66.34 23.02 -66 22 C-64.01739574 20.31267723 -62.0167658 18.64633943 -60 17 C-59.34 16.01 -58.68 15.02 -58 14 C-57.34 14 -56.68 14 -56 14 C-55.67 13.01 -55.34 12.02 -55 11 C-54.01 10.67 -53.02 10.34 -52 10 C-51.67 9.34 -51.34 8.68 -51 8 C-47.9681144 6.11813998 -46.75482645 6 -43 6 C-43 5.34 -43 4.68 -43 4 C-38.46298506 2.54815522 -34.81938524 1.76490804 -30 2 C-30 1.34 -30 0.68 -30 0 C-19.8725856 -1.32818549 -10.13582468 -1.23124985 0 0 Z " fill="#F8F8F8" transform="translate(373,30)"/>
<path d="M0 0 C1.04220703 -0.00773437 2.08441406 -0.01546875 3.15820312 -0.0234375 C10.46709871 -0.00531253 17.39441135 0.84251217 24.5625 2.25 C24.5625 2.91 24.5625 3.57 24.5625 4.25 C26.233125 4.4665625 26.233125 4.4665625 27.9375 4.6875 C31.5625 5.25 31.5625 5.25 33.5625 6.25 C33.5625 6.91 33.5625 7.57 33.5625 8.25 C35.5425 8.91 37.5225 9.57 39.5625 10.25 C39.5625 10.91 39.5625 11.57 39.5625 12.25 C40.5215625 12.4046875 40.5215625 12.4046875 41.5 12.5625 C42.180625 12.789375 42.86125 13.01625 43.5625 13.25 C44.0575 14.735 44.0575 14.735 44.5625 16.25 C46.0475 16.745 46.0475 16.745 47.5625 17.25 C48.25 19.3125 48.25 19.3125 48.5625 21.25 C49.2225 21.25 49.8825 21.25 50.5625 21.25 C52.98349644 23.26749703 54.37949429 25.33798596 55.5625 28.25 C55.5625 29.24 55.5625 30.23 55.5625 31.25 C56.2225 31.25 56.8825 31.25 57.5625 31.25 C58.81914978 34.15600261 59.5625 36.04604584 59.5625 39.25 C60.2225 39.25 60.8825 39.25 61.5625 39.25 C62.47181025 43.89091365 62.70900014 48.38423921 62.6953125 53.09765625 C62.69626923 53.83197372 62.69722595 54.5662912 62.69821167 55.32286072 C62.69888875 56.86668992 62.69706758 58.41052205 62.69287109 59.9543457 C62.68750838 62.3088218 62.69283608 64.66310783 62.69921875 67.01757812 C62.69855803 68.52343792 62.69727701 70.02929759 62.6953125 71.53515625 C62.69733673 72.23423599 62.69936096 72.93331573 62.70144653 73.65357971 C62.68400372 77.31108183 62.42928351 80.69291674 61.5625 84.25 C60.9025 84.25 60.2425 84.25 59.5625 84.25 C59.418125 85.19875 59.27375 86.1475 59.125 87.125 C58.5625 90.25 58.5625 90.25 57.5625 92.25 C56.9025 92.25 56.2425 92.25 55.5625 92.25 C55.3459375 93.1471875 55.3459375 93.1471875 55.125 94.0625 C54.6752561 95.81150404 54.13357659 97.53677023 53.5625 99.25 C52.9025 99.25 52.2425 99.25 51.5625 99.25 C51.0675 100.735 51.0675 100.735 50.5625 102.25 C49.9025 102.25 49.2425 102.25 48.5625 102.25 C48.459375 102.889375 48.35625 103.52875 48.25 104.1875 C48.023125 104.868125 47.79625 105.54875 47.5625 106.25 C46.0775 106.745 46.0775 106.745 44.5625 107.25 C44.0675 108.735 44.0675 108.735 43.5625 110.25 C42.0775 110.745 42.0775 110.745 40.5625 111.25 C39.9025 112.24 39.2425 113.23 38.5625 114.25 C37.5725 114.25 36.5825 114.25 35.5625 114.25 C35.5625 114.91 35.5625 115.57 35.5625 116.25 C32.91511084 117.7106285 31.66801666 118.25 28.5625 118.25 C28.5625 118.91 28.5625 119.57 28.5625 120.25 C24.68565913 121.44287411 21.64628077 122.25 17.5625 122.25 C17.5625 122.91 17.5625 123.57 17.5625 124.25 C13.98132712 125.06811277 10.67054234 125.37844281 7 125.3828125 C5.43378906 125.38474609 5.43378906 125.38474609 3.8359375 125.38671875 C2.75570312 125.38285156 1.67546875 125.37898437 0.5625 125.375 C-1.05785156 125.38080078 -1.05785156 125.38080078 -2.7109375 125.38671875 C-3.75507813 125.38542969 -4.79921875 125.38414062 -5.875 125.3828125 C-6.82246094 125.38168457 -7.76992188 125.38055664 -8.74609375 125.37939453 C-11.40508753 125.25155829 -13.84582307 124.84206413 -16.4375 124.25 C-16.4375 123.59 -16.4375 122.93 -16.4375 122.25 C-17.695625 122.105625 -18.95375 121.96125 -20.25 121.8125 C-22.86417123 121.51251314 -24.91189892 121.09186703 -27.4375 120.25 C-27.4375 119.59 -27.4375 118.93 -27.4375 118.25 C-28.613125 118.0334375 -28.613125 118.0334375 -29.8125 117.8125 C-32.4375 117.25 -32.4375 117.25 -34.4375 116.25 C-34.4375 115.59 -34.4375 114.93 -34.4375 114.25 C-35.035625 114.146875 -35.63375 114.04375 -36.25 113.9375 C-38.74619017 113.15298309 -39.69481865 112.15110692 -41.4375 110.25 C-42.0975 109.92 -42.7575 109.59 -43.4375 109.25 C-43.4375 108.59 -43.4375 107.93 -43.4375 107.25 C-44.9225 106.755 -44.9225 106.755 -46.4375 106.25 C-46.7675 105.26 -47.0975 104.27 -47.4375 103.25 C-48.4275 102.59 -49.4175 101.93 -50.4375 101.25 C-50.4375 100.59 -50.4375 99.93 -50.4375 99.25 C-51.0975 99.25 -51.7575 99.25 -52.4375 99.25 C-53.8981285 96.60261084 -54.4375 95.35551666 -54.4375 92.25 C-55.0975 92.25 -55.7575 92.25 -56.4375 92.25 C-57.69414978 89.34399739 -58.4375 87.45395416 -58.4375 84.25 C-59.0975 84.25 -59.7575 84.25 -60.4375 84.25 C-61.47273001 80.00165044 -61.58289968 75.88221169 -61.5703125 71.53515625 C-61.57126923 70.8017955 -61.57222595 70.06843475 -61.57321167 69.31285095 C-61.57388983 67.76724156 -61.57206103 66.22162926 -61.56787109 64.67602539 C-61.56252537 62.32366462 -61.56782448 59.97149544 -61.57421875 57.61914062 C-61.57355775 56.11197875 -61.57227615 54.60481699 -61.5703125 53.09765625 C-61.57233673 52.40060074 -61.57436096 51.70354523 -61.57644653 50.98536682 C-61.55739417 46.97131287 -61.20924977 43.18883608 -60.4375 39.25 C-59.7775 39.25 -59.1175 39.25 -58.4375 39.25 C-58.293125 38.486875 -58.14875 37.72375 -58 36.9375 C-57.4375 34.25 -57.4375 34.25 -56.4375 31.25 C-55.7775 31.25 -55.1175 31.25 -54.4375 31.25 C-54.2209375 30.3528125 -54.2209375 30.3528125 -54 29.4375 C-52.72479282 24.47836096 -52.72479282 24.47836096 -50 22.3125 C-47.54444869 20.33608065 -46.56710279 19.12535256 -45.4375 16.25 C-44.7775 16.25 -44.1175 16.25 -43.4375 16.25 C-43.1075 15.26 -42.7775 14.27 -42.4375 13.25 C-41.4475 12.92 -40.4575 12.59 -39.4375 12.25 C-38.7775 11.26 -38.1175 10.27 -37.4375 9.25 C-34.8125 8.5625 -34.8125 8.5625 -32.4375 8.25 C-32.4375 7.59 -32.4375 6.93 -32.4375 6.25 C-29.4675 5.59 -26.4975 4.93 -23.4375 4.25 C-23.4375 3.59 -23.4375 2.93 -23.4375 2.25 C-15.5569136 0.53415254 -8.05431013 -0.05955128 0 0 Z " fill="#F7F7F7" transform="translate(356.4375,508.75)"/>
<path d="M0 0 C2.31 0 4.62 0 7 0 C7.17280308 12.74992211 7.33917154 25.49992125 7.5 38.25 C7.51187725 39.19129887 7.5237545 40.13259773 7.53599167 41.10242081 C7.92887079 72.40360738 8.1437279 103.69606356 8 135 C5.36 135 2.72 135 0 135 C0 90.45 0 45.9 0 0 Z " fill="#FDFDFD" transform="translate(101,270)"/>
<path d="M0 0 C2.31 0 4.62 0 7 0 C8.03674325 25.95442597 8.08840259 51.90441323 8.0625 77.875 C8.06164398 78.73930759 8.06078796 79.60361519 8.05990601 80.49411392 C8.04838902 91.32942984 8.02813415 102.16471474 8 113 C5.36 113 2.72 113 0 113 C0 75.71 0 38.42 0 0 Z " fill="#FEFEFE" transform="translate(353,395)"/>
<path d="M0 0 C1.98 0.99 1.98 0.99 4 2 C4 2.66 4 3.32 4 4 C4.99 4.33 5.98 4.66 7 5 C7 5.66 7 6.32 7 7 C8.32 7.66 9.64 8.32 11 9 C11 9.66 11 10.32 11 11 C12.32 11.66 13.64 12.32 15 13 C15 13.66 15 14.32 15 15 C16.32 15.66 17.64 16.32 19 17 C19 17.66 19 18.32 19 19 C19.66 19 20.32 19 21 19 C21.33 19.99 21.66 20.98 22 22 C23.49595331 23.52032049 23.49595331 23.52032049 25.3125 24.9375 C28.01532417 27.17873075 30.65505065 29.37365673 33 32 C33 32.66 33 33.32 33 34 C33.99 34.33 34.98 34.66 36 35 C37.21463873 36.44443525 38.42524603 37.89299497 39.59375 39.375 C41.04761272 41.05501915 42.5734488 42.37188395 44.3125 43.75 C45.199375 44.4925 46.08625 45.235 47 46 C47 46.66 47 47.32 47 48 C47.99 48 48.98 48 50 48 C49.67 49.65 49.34 51.3 49 53 C45.01703245 50.10329633 41.99493217 46.79168464 38.8203125 43.07421875 C37.11405175 41.12996026 35.34703515 39.30976314 33.5 37.5 C30.40643357 34.46167583 27.57894493 31.2523468 24.75 27.96875 C23.06201714 26.06976929 21.31230266 24.27994012 19.5 22.5 C16.43527275 19.48987813 13.63581976 16.31348947 10.83984375 13.0546875 C8.23383207 10.14436448 5.43037324 7.45400387 2.6015625 4.76171875 C1 3 1 3 0 0 Z " fill="#0E0E0E" transform="translate(498,409)"/>
<path d="M0 0 C3.4823626 0.25795279 4.18808711 1.21561205 6.5625 3.9375 C7.366875 4.948125 8.17125 5.95875 9 7 C9.99 7.66 10.98 8.32 12 9 C12 9.66 12 10.32 12 11 C13.32 11.66 14.64 12.32 16 13 C16 13.66 16 14.32 16 15 C16.99 15.33 17.98 15.66 19 16 C20.68732277 17.98260426 22.35366057 19.9832342 24 22 C24.99 22.66 25.98 23.32 27 24 C27 24.66 27 25.32 27 26 C28.32 26.66 29.64 27.32 31 28 C31 28.66 31 29.32 31 30 C31.99 30.33 32.98 30.66 34 31 C36.1875 32.9375 36.1875 32.9375 38 35 C38 35.66 38 36.32 38 37 C39.32 37.66 40.64 38.32 42 39 C42 39.66 42 40.32 42 41 C43.32 41.66 44.64 42.32 46 43 C46 43.66 46 44.32 46 45 C46.99 45.33 47.98 45.66 49 46 C51.1875 47.9375 51.1875 47.9375 53 50 C53 50.66 53 51.32 53 52 C54.32 52.66 55.64 53.32 57 54 C57 54.66 57 55.32 57 56 C53.10094736 54.40365184 50.63606671 51.88350223 47.68066406 48.92358398 C47.16314072 48.40795898 46.64561737 47.89233398 46.1124115 47.36108398 C44.40856203 45.66092992 42.71200336 43.95369984 41.015625 42.24609375 C39.83343367 41.06271018 38.6508723 39.87969618 37.46795654 38.69703674 C34.99359196 36.22110962 32.52261975 33.74186269 30.05419922 31.26000977 C26.88255744 28.07133206 23.70432587 24.88932351 20.52377701 21.70953274 C18.08378022 19.26926478 15.64639259 16.82640518 13.20989227 14.38264656 C12.03825 13.20781267 10.86599273 12.0335918 9.69312286 10.85998344 C8.0601288 9.22483366 6.43046303 7.58644176 4.80175781 5.94702148 C3.87228333 5.0137352 2.94280884 4.08044891 1.98516846 3.11888123 C0 1 0 1 0 0 Z " fill="#030303" transform="translate(228,260)"/>
<path d="M0 0 C3.48972003 1.49530324 5.73465395 3.49191662 8.40136719 6.17431641 C9.2619574 7.03505768 10.12254761 7.89579895 11.00921631 8.78262329 C11.92914368 9.71287323 12.84907104 10.64312317 13.796875 11.6015625 C14.75479097 12.56321086 15.71315114 13.52441694 16.67193604 14.48519897 C19.18835125 17.00923282 21.69870107 19.53921591 24.20782471 22.07049561 C26.77162441 24.6547919 29.34112918 27.23340199 31.91015625 29.8125 C36.94569457 34.86945697 41.9748456 39.93272256 47 45 C46.01 45.495 46.01 45.495 45 46 C43.8274869 45.04882866 42.66212985 44.08882991 41.5 43.125 C40.8503125 42.59132813 40.200625 42.05765625 39.53125 41.5078125 C39.0259375 41.01023437 38.520625 40.51265625 38 40 C38 39.34 38 38.68 38 38 C36.68 37.34 35.36 36.68 34 36 C34 35.34 34 34.68 34 34 C33.01 33.67 32.02 33.34 31 33 C29.31267723 31.01739574 27.64633943 29.0167658 26 27 C25.01 26.34 24.02 25.68 23 25 C23 24.34 23 23.68 23 23 C21.68 22.34 20.36 21.68 19 21 C19 20.34 19 19.68 19 19 C18.01 18.67 17.02 18.34 16 18 C13.8125 16.0625 13.8125 16.0625 12 14 C12 13.34 12 12.68 12 12 C10.68 11.34 9.36 10.68 8 10 C8 9.34 8 8.68 8 8 C7.01 7.67 6.02 7.34 5 7 C3.11864786 5.13454661 1.62429515 3.10719371 0 1 C0 0.67 0 0.34 0 0 Z " fill="#070707" transform="translate(227,272)"/>
<path d="M0 0 C5.10887254 2.60850986 8.72833409 6.47401482 12.70703125 10.51171875 C13.43242599 11.23994339 14.15782074 11.96816803 14.90519714 12.71846008 C17.21238286 15.03680702 19.51250216 17.36202408 21.8125 19.6875 C23.37909567 21.26413069 24.94614791 22.84030786 26.51367188 24.41601562 C30.34775396 28.27210425 34.17606363 32.13385144 38 36 C34.06830895 36 32.83572772 34.60580385 30 32 C30 31.34 30 30.68 30 30 C28.68 29.34 27.36 28.68 26 28 C26 27.34 26 26.68 26 26 C25.401875 25.731875 24.80375 25.46375 24.1875 25.1875 C22.00152146 24.00082594 20.58667406 22.90400887 19 21 C19 20.34 19 19.68 19 19 C17.68 18.34 16.36 17.68 15 17 C15 16.34 15 15.68 15 15 C14.12601563 14.61328125 14.12601563 14.61328125 13.234375 14.21875 C10.8197097 12.90165983 9.18259823 11.44911616 7.25 9.5 C6.63640625 8.8915625 6.0228125 8.283125 5.390625 7.65625 C4 6 4 6 4 4 C2.68 3.34 1.36 2.68 0 2 C0 1.34 0 0.68 0 0 Z " fill="#101010" transform="translate(171,217)"/>
<path d="M0 0 C3.36179774 1.44077046 5.59156268 3.24750021 8 6 C8 6.66 8 7.32 8 8 C8.99 8.33 9.98 8.66 11 9 C16 14.46511628 16 14.46511628 16 17 C16.66 17 17.32 17 18 17 C19.20850097 18.44348727 20.41240781 19.89122208 21.5859375 21.36328125 C23.31494238 23.36453276 25.31802554 24.93201772 27.3828125 26.57421875 C30.01224061 28.89243435 32.21930772 31.56238274 34.484375 34.23046875 C36.03207632 36.08344907 36.03207632 36.08344907 38 38 C37.67 38.99 37.34 39.98 37 41 C32.36273805 36.47114157 27.93997639 31.84854397 23.71484375 26.93359375 C22.03995701 25.04505403 20.30052413 23.26844352 18.5 21.5 C15.43657607 18.49115823 12.63802575 15.31646525 9.84375 12.05859375 C7.20565543 9.11309409 4.3660025 6.39038568 1.50390625 3.6640625 C0 2 0 2 0 0 Z " fill="#101010" transform="translate(456,364)"/>
<path d="M0 0 C4.23031617 3.30171018 7.67237153 6.81359917 11.1484375 10.89453125 C13.02093689 13.02380798 14.97783592 15.01297004 17 17 C20.26628348 20.21593615 23.28490192 23.57099216 26.265625 27.05078125 C28.55562162 29.62444863 31.01388438 31.99707177 33.51953125 34.359375 C35.11191924 36.1240266 36.03618775 37.83729933 37 40 C36.01 39.67 35.02 39.34 34 39 C34 38.34 34 37.68 34 37 C32.68 36.34 31.36 35.68 30 35 C30 34.34 30 33.68 30 33 C28.515 32.505 28.515 32.505 27 32 C25.3515625 30.36328125 25.3515625 30.36328125 23.625 28.3125 C22.70267578 27.2296875 22.70267578 27.2296875 21.76171875 26.125 C20.71402991 24.86126889 19.67252293 23.5923052 18.64453125 22.3125 C16.57360447 19.73892109 14.54655415 17.62212846 12 15.5 C9.72187953 13.60156627 8.07868355 12.00896203 6.25 9.75 C4.29368116 6.97640062 4.29368116 6.97640062 2 6 C1.27306096 4.02111039 0.60183749 2.02045442 0 0 Z " fill="#141414" transform="translate(425,344)"/>
<path d="M0 0 C0.66 0.33 1.32 0.66 2 1 C-2.12088649 5.23678642 -6.35710298 9.2568045 -10.83203125 13.1171875 C-13.24842951 15.2157532 -15.62529024 17.354397 -18 19.5 C-19.66666667 21 -21.33333333 22.5 -23 24 C-24.12535156 25.01900391 -24.12535156 25.01900391 -25.2734375 26.05859375 C-25.96695312 26.67863281 -26.66046875 27.29867187 -27.375 27.9375 C-27.98085938 28.48277344 -28.58671875 29.02804688 -29.2109375 29.58984375 C-31.0524655 31.04135381 -32.87138806 32.02946548 -35 33 C-33.71480435 30.13302508 -32.42870746 28.02392288 -30 26 C-29.34 26 -28.68 26 -28 26 C-27.67 25.01 -27.34 24.02 -27 23 C-26.01 22.67 -25.02 22.34 -24 22 C-22.73330886 20.5384333 -21.47037447 19.07241225 -20.26171875 17.5625 C-17.72299543 14.41857019 -15.86739078 12.28913026 -12 11 C-10.8150483 9.55172571 -9.63251597 8.10125875 -8.47265625 6.6328125 C-6.00307255 3.89465338 -3.05882736 2.03921824 0 0 Z " fill="#131313" transform="translate(535,193)"/>
<path d="M0 0 C-1.12775574 3.38326722 -2.35703248 4.66796984 -5 7 C-5.99 7.33 -6.98 7.66 -8 8 C-8.78375 8.804375 -9.5675 9.60875 -10.375 10.4375 C-13 13 -13 13 -15.6875 14.0625 C-18.16723474 14.80256311 -18.16723474 14.80256311 -19.3125 17.125 C-19.539375 17.74375 -19.76625 18.3625 -20 19 C-20.66 19 -21.32 19 -22 19 C-22 19.66 -22 20.32 -22 21 C-22.598125 21.268125 -23.19625 21.53625 -23.8125 21.8125 C-26.0299713 22.87296728 -26.0299713 22.87296728 -27.5 24.5625 C-29.27460185 26.26316011 -30.61006256 26.58794182 -33 27 C-29.13324973 23.03033242 -25.07380259 19.36454665 -20.875 15.75 C-20.21991455 15.18514893 -19.5648291 14.62029785 -18.88989258 14.03833008 C-2.55861535 0 -2.55861535 0 0 0 Z " fill="#131313" transform="translate(240,414)"/>
<path d="M0 0 C3.43925601 0.56090871 4.76659773 1.51026824 6.875 4.25 C9.61077541 7.63354087 12.64710907 10.21781391 16 13 C17.66666667 15 19.33333333 17 21 19 C21.99 19.825 22.98 20.65 24 21.5 C26.27812047 23.39843373 27.92131645 24.99103797 29.75 27.25 C31.70631884 30.02359938 31.70631884 30.02359938 34 31 C33.67 31.66 33.34 32.32 33 33 C26.19782929 27.32553055 19.9611376 21.11490122 13.71533203 14.84570312 C11.97934037 13.10427568 10.23796858 11.36835324 8.49609375 9.6328125 C7.39290774 8.52896698 6.29003127 7.42481199 5.1875 6.3203125 C4.66575195 5.80058868 4.14400391 5.28086487 3.60644531 4.74539185 C0 1.11499844 0 1.11499844 0 0 Z " fill="#242424" transform="translate(186,219)"/>
<path d="M0 0 C2 2 2 2 2.125 5.125 C2.08375 6.07375 2.0425 7.0225 2 8 C1.34 8 0.68 8 0 8 C-0.33 7.34 -0.66 6.68 -1 6 C-1.99 6 -2.98 6 -4 6 C-4.33 6.99 -4.66 7.98 -5 9 C-7.00121175 11.36506843 -7.96799661 11.9893322 -11 13 C-12.19813903 14.52196039 -13.39623453 16.04395518 -14.59375 17.56640625 C-16.72373798 19.73781066 -19.09611666 20.32467829 -22 21 C-17.97401828 16.0158495 -13.67634433 11.77365213 -8.75 7.6875 C-4.2619296 3.96920833 -4.2619296 3.96920833 0 0 Z " fill="#0B0B0B" transform="translate(546,196)"/>
<path d="M0 0 C5.28755722 4.36530886 9.98915584 9.01677937 14.625 14.0625 C15.9080841 15.4499313 17.19192194 16.83666597 18.4765625 18.22265625 C19.07629883 18.87250488 19.67603516 19.52235352 20.29394531 20.19189453 C21.81073517 21.79941395 23.36718829 23.34071317 24.9609375 24.87109375 C27 27 27 27 27 29 C23.57995317 27.85998439 22.57039309 26.36355885 20.38671875 23.609375 C18.84715152 21.73360255 18.84715152 21.73360255 16 19.5 C12.8159573 16.84663108 10.49184924 14.29803576 8 11 C8 10.34 8 9.68 8 9 C7.34 9 6.68 9 6 9 C4.4921875 7.5390625 4.4921875 7.5390625 2.875 5.625 C2.06675781 4.68527344 2.06675781 4.68527344 1.2421875 3.7265625 C0 2 0 2 0 0 Z " fill="#0F0F0F" transform="translate(477,400)"/>
<path d="M0 0 C3.36016893 1.12005631 4.69064913 2.37211797 7 5 C7 5.66 7 6.32 7 7 C8.32 7.66 9.64 8.32 11 9 C11 9.66 11 10.32 11 11 C12.32 11.66 13.64 12.32 15 13 C15 13.66 15 14.32 15 15 C15.99 15.33 16.98 15.66 18 16 C20.1875 17.9375 20.1875 17.9375 22 20 C22 20.66 22 21.32 22 22 C23.32 22.66 24.64 23.32 26 24 C26 24.66 26 25.32 26 26 C22.16394511 24.41636918 19.71554351 21.97385878 16.796875 19.0625 C16.3142218 18.58176025 15.8315686 18.10102051 15.33428955 17.60571289 C14.32000936 16.59278907 13.30823196 15.57735362 12.29882812 14.55957031 C10.74828028 12.99826835 9.18729497 11.44797503 7.625 9.8984375 C6.63998266 8.91209939 5.65558547 7.9251415 4.671875 6.9375 C3.7756543 6.03902344 2.87943359 5.14054687 1.95605469 4.21484375 C0 2 0 2 0 0 Z " fill="#1A1A1A" transform="translate(259,290)"/>
<path d="M0 0 C0.66 0.33 1.32 0.66 2 1 C-20.00494252 21.66831417 -20.00494252 21.66831417 -24 23 C-22.6618467 18.9855401 -20.23686108 17.64233558 -17 15 C-16.34 14.01 -15.68 13.02 -15 12 C-14.01 11.67 -13.02 11.34 -12 11 C-10.66104368 9.33784732 -9.32869858 7.67036393 -8 6 C-5.52164116 3.70640313 -3.03642298 1.51821149 0 0 Z " fill="#171717" transform="translate(498,226)"/>
<path d="M0 0 C0.66 0.33 1.32 0.66 2 1 C-2.08586093 5.91580143 -6.32165934 10.26127373 -11.19921875 14.390625 C-13.4306369 16.38486421 -15.24225613 18.58310217 -17 21 C-15.6761777 15.51559333 -14.44725579 13.55780463 -10 10 C-8.45637201 8.19910068 -6.9779363 6.36480956 -5.52734375 4.48828125 C-3.73559486 2.74235714 -2.43833866 2.39328043 0 2 C0 1.34 0 0.68 0 0 Z " fill="#6D6D6D" transform="translate(319,280)"/>
<path d="M0 0 C0.66 0.33 1.32 0.66 2 1 C1.27941406 1.71929687 0.55882812 2.43859375 -0.18359375 3.1796875 C-1.97272901 4.97130422 -3.75715051 6.76765029 -5.53515625 8.5703125 C-6.78619141 9.83488281 -6.78619141 9.83488281 -8.0625 11.125 C-8.89910156 11.97320312 -9.73570312 12.82140625 -10.59765625 13.6953125 C-12.64630765 15.66068538 -14.68583204 17.36458338 -17 19 C-16.67 17.68 -16.34 16.36 -16 15 C-15.34 15 -14.68 15 -14 15 C-13.67 13.68 -13.34 12.36 -13 11 C-12.34 11 -11.68 11 -11 11 C-10.34 9.68 -9.68 8.36 -9 7 C-8.34 7 -7.68 7 -7 7 C-6.67 6.01 -6.34 5.02 -6 4 C-5.01 4 -4.02 4 -3 4 C-2.67 3.01 -2.34 2.02 -2 1 C-1.34 0.67 -0.68 0.34 0 0 Z " fill="#6B6B6B" transform="translate(574,137)"/>
<path d="M0 0 C0.99 0.33 1.98 0.66 3 1 C0.77476959 2.94218351 -1.45492465 4.87879088 -3.6875 6.8125 C-4.31333984 7.35970703 -4.93917969 7.90691406 -5.58398438 8.47070312 C-8.90564718 11.34020241 -12.12444393 13.8880813 -16 16 C-16.33 13.03 -16.66 10.06 -17 7 C-16.34 7 -15.68 7 -15 7 C-14.67 8.32 -14.34 9.64 -14 11 C-10.84813973 10.25418905 -10.84813973 10.25418905 -9.125 7.625 C-6.93105968 4.91483843 -5.01892907 3.66835554 -2 2 C-1.34 1.34 -0.68 0.68 0 0 Z " fill="#121212" transform="translate(183,447)"/>
<path d="M0 0 C0.99 0.33 1.98 0.66 3 1 C-11.59681093 13.66970387 -11.59681093 13.66970387 -19 19 C-19 18.01 -19 17.02 -19 16 C-18.01 15.67 -17.02 15.34 -16 15 C-16 14.34 -16 13.68 -16 13 C-15.443125 12.773125 -14.88625 12.54625 -14.3125 12.3125 C-11.34760028 10.62971908 -9.383485 8.43891488 -7 6 C-5.80785645 4.85785806 -4.59894637 3.73299356 -3.375 2.625 C-2.80523437 2.10164063 -2.23546875 1.57828125 -1.6484375 1.0390625 C-0.83246094 0.52472656 -0.83246094 0.52472656 0 0 Z " fill="#131313" transform="translate(247,394)"/>
<path d="M0 0 C0.66 0.33 1.32 0.66 2 1 C-0.20788305 2.89635983 -2.41629285 4.79210041 -4.625 6.6875 C-5.24246094 7.21794922 -5.85992187 7.74839844 -6.49609375 8.29492188 C-7.72910758 9.35271795 -8.9638004 10.40856019 -10.20019531 11.46240234 C-11.3820317 12.47206127 -12.55866637 13.48784728 -13.72949219 14.51025391 C-17.77932099 18 -17.77932099 18 -20 18 C-18.52267049 14.1052222 -16.54120367 13.02354496 -13 11 C-12.278125 10.278125 -11.55625 9.55625 -10.8125 8.8125 C-9.9153125 7.9153125 -9.9153125 7.9153125 -9 7 C-8.34 7 -7.68 7 -7 7 C-7 6.34 -7 5.68 -7 5 C-4.69064913 2.37211797 -3.36016893 1.12005631 0 0 Z " fill="#101010" transform="translate(225,413)"/>
<path d="M0 0 C0.99 0 1.98 0 3 0 C-0.03099046 6.79001294 -6.31759083 11.42635359 -12 16 C-11.34 14.02 -10.68 12.04 -10 10 C-9.34 10 -8.68 10 -8 10 C-7.67 9.01 -7.34 8.02 -7 7 C-5.02043058 5.30911778 -3.02054804 3.64169528 -1 2 C-0.67 1.34 -0.34 0.68 0 0 Z " fill="#5C5C5C" transform="translate(64,418)"/>
<path d="M0 0 C3.64727571 0.55744389 5.05844308 1.80815379 7.375 4.625 C7.97183594 5.33914063 8.56867188 6.05328125 9.18359375 6.7890625 C9.78300781 7.51867187 10.38242187 8.24828125 11 9 C12.14308831 10.33568743 13.28869165 11.6692291 14.4375 13 C15.283125 13.99 16.12875 14.98 17 16 C16.67 16.66 16.34 17.32 16 18 C13.88948191 15.94367496 11.78662837 13.88039798 9.6875 11.8125 C9.09259766 11.23435547 8.49769531 10.65621094 7.88476562 10.06054688 C4.70625629 6.91755161 2.09029485 4.0070273 0 0 Z " fill="#0E0E0E" transform="translate(425,331)"/>
<path d="M0 0 C4.26763313 2.2859534 7.47663624 5.23583857 10.8125 8.6875 C11.31458984 9.19861328 11.81667969 9.70972656 12.33398438 10.23632812 C13.56063509 11.48634362 14.78097491 12.7425468 16 14 C15.01 14.33 14.02 14.66 13 15 C11.49403892 13.54782324 9.99537896 12.08807139 8.5 10.625 C7.6646875 9.81289062 6.829375 9.00078125 5.96875 8.1640625 C4 6 4 6 4 4 C2.68 3.34 1.36 2.68 0 2 C0 1.34 0 0.68 0 0 Z " fill="#1E1E1E" transform="translate(171,217)"/>
<path d="M0 0 C-1.56089026 1.41844009 -3.1237889 2.83467025 -4.6875 4.25 C-5.55761719 5.03890625 -6.42773438 5.8278125 -7.32421875 6.640625 C-14.53642384 13 -14.53642384 13 -17 13 C-17 13.66 -17 14.32 -17 15 C-17.66 14.67 -18.32 14.34 -19 14 C-18.34 13.01 -17.68 12.02 -17 11 C-16.34 11 -15.68 11 -15 11 C-14.67 10.01 -14.34 9.02 -14 8 C-13.01 7.67 -12.02 7.34 -11 7 C-10.195625 6.030625 -9.39125 5.06125 -8.5625 4.0625 C-3.64028777 -1.82014388 -3.64028777 -1.82014388 0 0 Z " fill="#151515" transform="translate(205,432)"/>
<path d="M0 0 C2.93230193 1.32120828 4.98664899 2.74638197 7.234375 5.0390625 C8.09482422 5.90917969 8.09482422 5.90917969 8.97265625 6.796875 C9.55917969 7.40015625 10.14570313 8.0034375 10.75 8.625 C11.35199219 9.23601562 11.95398438 9.84703125 12.57421875 10.4765625 C14.05405305 11.97988624 15.52764676 13.48934856 17 15 C16.01 15.495 16.01 15.495 15 16 C14.01 15.34 13.02 14.68 12 14 C12 13.34 12 12.68 12 12 C10.68 11.34 9.36 10.68 8 10 C8 9.34 8 8.68 8 8 C7.01 7.67 6.02 7.34 5 7 C3.11864786 5.13454661 1.62429515 3.10719371 0 1 C0 0.67 0 0.34 0 0 Z " fill="#232323" transform="translate(227,272)"/>
<path d="M0 0 C1.32 0.33 2.64 0.66 4 1 C4 1.66 4 2.32 4 3 C5.32 3.66 6.64 4.32 8 5 C8 5.66 8 6.32 8 7 C8.66 7 9.32 7 10 7 C10.103125 7.639375 10.20625 8.27875 10.3125 8.9375 C10.539375 9.618125 10.76625 10.29875 11 11 C11.99 11.33 12.98 11.66 14 12 C14.33 13.98 14.66 15.96 15 18 C14.43539063 17.28070313 13.87078125 16.56140625 13.2890625 15.8203125 C10.33800962 12.18437362 7.18349087 8.75869932 4.0234375 5.3046875 C2 3 2 3 0 0 Z " fill="#131313" transform="translate(397,44)"/>
<path d="M0 0 C10.24714829 8.57414449 10.24714829 8.57414449 14 13 C14 13.66 14 14.32 14 15 C13.01 14.67 12.02 14.34 11 14 C11 13.34 11 12.68 11 12 C9.68 11.34 8.36 10.68 7 10 C7 9.34 7 8.68 7 8 C5.68 7.34 4.36 6.68 3 6 C3 5.34 3 4.68 3 4 C2.01 3.67 1.02 3.34 0 3 C0 2.01 0 1.02 0 0 Z " fill="#070707" transform="translate(504,429)"/>
<path d="M0 0 C3.43925601 0.56090871 4.76659773 1.51026824 6.875 4.25 C8.8645206 6.72551037 10.79606254 8.75038627 13.3125 10.6875 C16.08407252 13.07234147 16.39627851 13.62626229 17 17 C10.98173262 12.02838782 5.33662648 6.70170757 0 1 C0 0.67 0 0.34 0 0 Z " fill="#141414" transform="translate(186,219)"/>
<path d="M0 0 C1.98 0.66 3.96 1.32 6 2 C6 2.66 6 3.32 6 4 C6.639375 4.103125 7.27875 4.20625 7.9375 4.3125 C8.618125 4.539375 9.29875 4.76625 10 5 C10.33 5.99 10.66 6.98 11 8 C11.99 8.33 12.98 8.66 14 9 C14.6875 11.0625 14.6875 11.0625 15 13 C14.01 12.13375 13.02 11.2675 12 10.375 C8.6242947 7.46871793 5.11264353 4.808192 1.50390625 2.19921875 C1.00761719 1.80347656 0.51132812 1.40773438 0 1 C0 0.67 0 0.34 0 0 Z " fill="#0F0F0F" transform="translate(390,517)"/>
<path d="M0 0 C5.26851387 4.11201083 10.96781697 8.93563395 14 15 C8.39000551 13.64000133 5.30115275 9.44974971 2 5 C0.5625 2 0.5625 2 0 0 Z " fill="#131313" transform="translate(526,452)"/>
<path d="M0 0 C4.56048012 3.61251516 8.01665146 6.98797445 11 12 C5.90025053 10.65006632 2.80502464 7.32802771 0 3 C0 2.01 0 1.02 0 0 Z " fill="#151515" transform="translate(466,388)"/>
<path d="M0 0 C0.66 0.33 1.32 0.66 2 1 C0.23055495 2.46001748 -1.54060571 3.91795593 -3.3125 5.375 C-4.29863281 6.18710937 -5.28476562 6.99921875 -6.30078125 7.8359375 C-9 10 -9 10 -12 12 C-11.67 10.68 -11.34 9.36 -11 8 C-10.34 8 -9.68 8 -9 8 C-8.67 7.01 -8.34 6.02 -8 5 C-7.01 4.67 -6.02 4.34 -5 4 C-4.34 3.01 -3.68 2.02 -3 1 C-2.01 0.67 -1.02 0.34 0 0 Z " fill="#151515" transform="translate(322,517)"/>
<path d="M0 0 C1.98 0.99 1.98 0.99 4 2 C4 2.66 4 3.32 4 4 C4.598125 4.268125 5.19625 4.53625 5.8125 4.8125 C7.97224808 5.98493467 9.35790256 7.19369282 11 9 C10.67 9.99 10.34 10.98 10 12 C8.32737283 10.38113585 6.66204463 8.7547271 5 7.125 C4.071875 6.22007812 3.14375 5.31515625 2.1875 4.3828125 C0 2 0 2 0 0 Z " fill="#141414" transform="translate(442,349)"/>
<path d="M0 0 C0 0.99 0 1.98 0 3 C-1.46688037 4.27554815 -2.93976866 5.54881117 -4.4921875 6.71875 C-6.27499979 8.11472845 -6.27499979 8.11472845 -8 11 C-10.625 11.6875 -10.625 11.6875 -13 12 C-8.87675353 7.74790208 -4.48717034 3.86364295 0 0 Z " fill="#131313" transform="translate(515,224)"/>
<path d="M0 0 C0.66 0.33 1.32 0.66 2 1 C0.21371169 2.67277835 -1.5785075 4.33824443 -3.375 6 C-4.13683594 6.71542969 -4.13683594 6.71542969 -4.9140625 7.4453125 C-8.7734375 11 -8.7734375 11 -11 11 C-11 10.34 -11 9.68 -11 9 C-9.52785633 7.72414216 -8.05028599 6.45305165 -6.52734375 5.23828125 C-4.91131796 3.9719575 -4.91131796 3.9719575 -3.25 2.25 C-2 1 -2 1 0 0 Z " fill="#0F0F0F" transform="translate(498,226)"/>
<path d="M0 0 C0.66 0.33 1.32 0.66 2 1 C0.39801112 2.46072532 -1.20667116 3.91849716 -2.8125 5.375 C-3.70582031 6.18710938 -4.59914063 6.99921875 -5.51953125 7.8359375 C-8 10 -8 10 -11 12 C-10.67 10.68 -10.34 9.36 -10 8 C-9.34 8 -8.68 8 -8 8 C-7.34 6.68 -6.68 5.36 -6 4 C-5.34 4 -4.68 4 -4 4 C-4 3.34 -4 2.68 -4 2 C-2.125 0.9375 -2.125 0.9375 0 0 Z " fill="#1D1D1D" transform="translate(67,155)"/>
<path d="M0 0 C3.45201639 1.47721422 5.64961936 3.43794001 8.25 6.125 C8.95640625 6.84945313 9.6628125 7.57390625 10.390625 8.3203125 C11.18726563 9.15175781 11.18726563 9.15175781 12 10 C11.01 10.495 11.01 10.495 10 11 C9.01 10.34 8.02 9.68 7 9 C7 8.34 7 7.68 7 7 C5.68 6.34 4.36 5.68 3 5 C3 4.34 3 3.68 3 3 C2.01 2.67 1.02 2.34 0 2 C0 1.34 0 0.68 0 0 Z " fill="#111111" transform="translate(243,288)"/>
<path d="M0 0 C3.36016893 1.12005631 4.69064913 2.37211797 7 5 C7 5.66 7 6.32 7 7 C8.32 7.66 9.64 8.32 11 9 C10.67 9.99 10.34 10.98 10 12 C8.32737283 10.38113585 6.66204463 8.7547271 5 7.125 C4.071875 6.22007812 3.14375 5.31515625 2.1875 4.3828125 C0 2 0 2 0 0 Z " fill="#0E0E0E" transform="translate(248,279)"/>
<path d="M0 0 C3.36016893 1.12005631 4.69064913 2.37211797 7 5 C7 5.66 7 6.32 7 7 C8.32 7.66 9.64 8.32 11 9 C11 9.66 11 10.32 11 11 C7.84164893 9.60249952 5.67727175 7.94801766 3.25 5.5 C2.63640625 4.8915625 2.0228125 4.283125 1.390625 3.65625 C0 2 0 2 0 0 Z " fill="#292929" transform="translate(274,305)"/>
<path d="M0 0 C3.45201639 1.47721422 5.64961936 3.43794001 8.25 6.125 C8.95640625 6.84945312 9.6628125 7.57390625 10.390625 8.3203125 C11.18726563 9.15175781 11.18726563 9.15175781 12 10 C8.06830895 10 6.83572772 8.60580385 4 6 C4 5.34 4 4.68 4 4 C2.68 3.34 1.36 2.68 0 2 C0 1.34 0 0.68 0 0 Z " fill="#080808" transform="translate(197,243)"/>
<path d="M0 0 C0 3.6026412 -1.17803615 4.96901452 -3.48828125 7.63671875 C-5.72852527 9.65699049 -8.10395457 10.32650106 -11 11 C-7.6381774 6.74828319 -4.25171681 3.3618226 0 0 Z " fill="#0F0F0F" transform="translate(501,236)"/>
<path d="M0 0 C0.99 0.33 1.98 0.66 3 1 C1.73548068 2.31858428 0.46314525 3.62967631 -0.8125 4.9375 C-1.52019531 5.66839844 -2.22789062 6.39929688 -2.95703125 7.15234375 C-5 9 -5 9 -8 10 C-6.71480435 7.13302508 -5.42870746 5.02392288 -3 3 C-2.34 3 -1.68 3 -1 3 C-0.67 2.01 -0.34 1.02 0 0 Z " fill="#0F0F0F" transform="translate(508,216)"/>
<path d="M0 0 C0.66 0.33 1.32 0.66 2 1 C-1.72143296 4.91447559 -5.14032976 8.49653351 -10 11 C-9.34 9.68 -8.68 8.36 -8 7 C-7.34 7 -6.68 7 -6 7 C-5.34 5.68 -4.68 4.36 -4 3 C-3.34 3 -2.68 3 -2 3 C-2 2.34 -2 1.68 -2 1 C-1.34 0.67 -0.68 0.34 0 0 Z " fill="#101010" transform="translate(472,249)"/>
<path d="M0 0 C2 2 2 2 2.125 5.125 C2.08375 6.07375 2.0425 7.0225 2 8 C1.34 8 0.68 8 0 8 C-0.33 7.34 -0.66 6.68 -1 6 C-1.99 5.67 -2.98 5.34 -4 5 C-2.68 3.35 -1.36 1.7 0 0 Z " fill="#151515" transform="translate(546,196)"/>
<path d="M0 0 C2.30874272 1.11161687 4.49200954 2.29749414 6.6875 3.625 C8.69485508 5.08517923 8.69485508 5.08517923 10 5 C10 6.65 10 8.3 10 10 C2.51708428 3.84965831 2.51708428 3.84965831 0 0 Z " fill="#020202" transform="translate(285,316)"/>
<path d="M0 0 C3.21043882 1.38188453 5.04936365 2.92421903 7.25 5.625 C8.03117187 6.57246094 8.03117187 6.57246094 8.828125 7.5390625 C9.40820312 8.26222656 9.40820312 8.26222656 10 9 C9.01 9 8.02 9 7 9 C7 8.34 7 7.68 7 7 C5.68 6.34 4.36 5.68 3 5 C3 4.34 3 3.68 3 3 C2.01 2.67 1.02 2.34 0 2 C0 1.34 0 0.68 0 0 Z " fill="#161616" transform="translate(452,374)"/>
<path d="M0 0 C0 0.99 0 1.98 0 3 C-0.66 3 -1.32 3 -2 3 C-2.66 4.32 -3.32 5.64 -4 7 C-4.66 7 -5.32 7 -6 7 C-6 7.66 -6 8.32 -6 9 C-7.32 9.33 -8.64 9.66 -10 10 C-3.84965831 2.51708428 -3.84965831 2.51708428 0 0 Z " fill="#0E0E0E" transform="translate(489,247)"/>
<path d="M0 0 C0.66 0 1.32 0 2 0 C1.67 3.63 1.34 7.26 1 11 C-0.65 10.67 -2.3 10.34 -4 10 C-4 9.34 -4 8.68 -4 8 C-3.01 8 -2.02 8 -1 8 C-0.67 5.36 -0.34 2.72 0 0 Z " fill="#0B0B0B" transform="translate(546,179)"/>
<path d="M0 0 C2.875 -0.1875 2.875 -0.1875 6 0 C8.1519437 3.22791555 8.20086443 4.28400809 8 8 C7.71125 7.38125 7.4225 6.7625 7.125 6.125 C6.06279958 3.86674235 6.06279958 3.86674235 4 2 C1.39719432 2.32041397 1.39719432 2.32041397 -1 3 C-0.67 2.01 -0.34 1.02 0 0 Z " fill="#181818" transform="translate(251,391)"/>
<path d="M0 0 C4.2742558 1.5830577 6.26531794 4.50568404 9 8 C5.08158173 6.69386058 2.67359191 5.16870152 0 2 C0 1.34 0 0.68 0 0 Z " fill="#010101" transform="translate(265,310)"/>
<path d="M0 0 C0.66 0 1.32 0 2 0 C2.12375 0.61875 2.2475 1.2375 2.375 1.875 C2.87197356 4.19120832 2.87197356 4.19120832 5 6 C3.68 6.99 2.36 7.98 1 9 C0.67 6.03 0.34 3.06 0 0 Z " fill="#0C0C0C" transform="translate(166,454)"/>
<path d="M0 0 C1.32 0.33 2.64 0.66 4 1 C4 1.66 4 2.32 4 3 C5.32 3.66 6.64 4.32 8 5 C7.67 5.99 7.34 6.98 7 8 C5.83035398 6.8572081 4.66435444 5.71068285 3.5 4.5625 C2.8503125 3.92441406 2.200625 3.28632813 1.53125 2.62890625 C0 1 0 1 0 0 Z " fill="#090909" transform="translate(397,283)"/>
<path d="M0 0 C0.66 0.33 1.32 0.66 2 1 C-2.82142857 7.29464286 -2.82142857 7.29464286 -7 8 C-6.02133662 6.85373678 -5.04205413 5.70800212 -4.0625 4.5625 C-3.51722656 3.92441406 -2.97195313 3.28632813 -2.41015625 2.62890625 C-1.63204305 1.73008851 -0.84063472 0.84063472 0 0 Z " fill="#121212" transform="translate(477,257)"/>
<path d="M0 0 C-0.66 1.32 -1.32 2.64 -2 4 C-2.66 4 -3.32 4 -4 4 C-4.33 4.99 -4.66 5.98 -5 7 C-5.99 6.67 -6.98 6.34 -8 6 C-7.0479279 4.99403703 -6.08812654 3.99538437 -5.125 3 C-4.59132813 2.443125 -4.05765625 1.88625 -3.5078125 1.3125 C-2 0 -2 0 0 0 Z " fill="#121212" transform="translate(524,217)"/>
<path d="M0 0 C1.32 0.33 2.64 0.66 4 1 C4 1.66 4 2.32 4 3 C5.32 3.66 6.64 4.32 8 5 C7.67 5.99 7.34 6.98 7 8 C5.83035398 6.8572081 4.66435444 5.71068285 3.5 4.5625 C2.8503125 3.92441406 2.200625 3.28632812 1.53125 2.62890625 C0 1 0 1 0 0 Z " fill="#1F1F1F" transform="translate(397,44)"/>
<path d="M0 0 C0 3 0 3 -1.25 4.625 C-3.17415516 6.1368362 -4.60989418 6.58791279 -7 7 C-4.78071806 4.09197539 -3.07030857 2.04687238 0 0 Z " fill="#0E0E0E" transform="translate(206,441)"/>
<path d="M0 0 C2.86697492 1.28519565 4.97607712 2.57129254 7 5 C7 5.66 7 6.32 7 7 C6.01 6.67 5.02 6.34 4 6 C4 5.34 4 4.68 4 4 C2.68 3.34 1.36 2.68 0 2 C0 1.34 0 0.68 0 0 Z " fill="#202020" transform="translate(511,437)"/>
<path d="M0 0 C1.98 0.99 1.98 0.99 4 2 C4 2.66 4 3.32 4 4 C4.99 4.33 5.98 4.66 7 5 C6.67 5.99 6.34 6.98 6 8 C4.9970458 6.85675161 3.99770973 5.71032809 3 4.5625 C2.443125 3.92441406 1.88625 3.28632813 1.3125 2.62890625 C0 1 0 1 0 0 Z " fill="#1B1B1B" transform="translate(498,409)"/>
<path d="M0 0 C1.14926266 0.95421808 2.29430541 1.91352045 3.4375 2.875 C4.07558594 3.40867188 4.71367187 3.94234375 5.37109375 4.4921875 C7 6 7 6 8 8 C7.01 8 6.02 8 5 8 C0 2.65116279 0 2.65116279 0 0 Z " fill="#1F1F1F" transform="translate(309,133)"/>
<path d="M0 0 C0.33 0.66 0.66 1.32 1 2 C-0.65 3.98 -2.3 5.96 -4 8 C-4.99 7.67 -5.98 7.34 -7 7 C-4.69 4.69 -2.38 2.38 0 0 Z " fill="#202020" transform="translate(404,133)"/>
<path d="M0 0 C2.86697492 1.28519565 4.97607712 2.57129254 7 5 C7 5.66 7 6.32 7 7 C3.63983107 5.87994369 2.30935087 4.62788203 0 2 C0 1.34 0 0.68 0 0 Z " fill="#222222" transform="translate(497,422)"/>
<path d="M0 0 C0 0.99 0 1.98 0 3 C-0.99 3.33 -1.98 3.66 -3 4 C-3.33 4.99 -3.66 5.98 -4 7 C-4.99 6.67 -5.98 6.34 -7 6 C-4.69 4.02 -2.38 2.04 0 0 Z " fill="#0A0A0A" transform="translate(247,407)"/>
<path d="M0 0 C0.66 0 1.32 0 2 0 C3.7143618 1.95927063 5.38405168 3.95880212 7 6 C6.67 6.66 6.34 7.32 6 8 C4.99403703 7.0479279 3.99538437 6.08812654 3 5.125 C2.443125 4.59132813 1.88625 4.05765625 1.3125 3.5078125 C0 2 0 2 0 0 Z " fill="#191919" transform="translate(472,381)"/>
<path d="M0 0 C1.14926266 0.95421808 2.29430541 1.91352045 3.4375 2.875 C4.07558594 3.40867187 4.71367187 3.94234375 5.37109375 4.4921875 C7 6 7 6 8 8 C4.11137013 6.73882275 2.10624401 5.54735833 0 2 C0 1.34 0 0.68 0 0 Z " fill="#050505" transform="translate(445,366)"/>
<path d="M0 0 C1.32 1.32 2.64 2.64 4 4 C3.34 4 2.68 4 2 4 C1.67 4.99 1.34 5.98 1 7 C0.34 7 -0.32 7 -1 7 C-0.67 4.69 -0.34 2.38 0 0 Z " fill="#101010" transform="translate(167,213)"/>
</svg>
