<?xml version="1.0" encoding="UTF-8"?>
<svg version="1.1" xmlns="http://www.w3.org/2000/svg" width="400" height="150">
<path d="M0 0 C132 0 264 0 400 0 C400 49.5 400 99 400 150 C268 150 136 150 0 150 C0 100.5 0 51 0 0 Z " fill="#000000" transform="translate(0,0)"/>
<path d="M0 0 C4.29 0 8.58 0 13 0 C15.70062473 7.59071492 17.70331298 15.3204259 19.64428711 23.13110352 C20.19101354 25.32660941 20.74657408 27.51975788 21.30273438 29.71289062 C21.65417787 31.11705445 22.00510795 32.52134689 22.35546875 33.92578125 C22.82956177 35.81937378 22.82956177 35.81937378 23.31323242 37.7512207 C24 41 24 41 24 45 C20.7 45 17.4 45 14 45 C13.34 42.03 12.68 39.06 12 36 C8.37 35.67 4.74 35.34 1 35 C0.855625 36.27875 0.71125 37.5575 0.5625 38.875 C0.29357254 41.25692894 0.07773654 42.84452691 -1 45 C-3.97 45 -6.94 45 -10 45 C-9.32820565 38.68808606 -8.12265341 32.61745733 -6.6875 26.4375 C-6.35745972 24.99963135 -6.35745972 24.99963135 -6.02075195 23.53271484 C-4.18946632 15.63566702 -2.15312573 7.81504896 0 0 Z " fill="#F5F5F5" transform="translate(262,43)"/>
<path d="M0 0 C3.7030336 2.19576867 5.47122886 5.34165887 6.8671875 9.296875 C7.0546875 13.171875 7.0546875 13.171875 6.8671875 16.296875 C3.5671875 16.296875 0.2671875 16.296875 -3.1328125 16.296875 C-3.4628125 13.656875 -3.7928125 11.016875 -4.1328125 8.296875 C-7.4328125 8.296875 -10.7328125 8.296875 -14.1328125 8.296875 C-15.56008837 12.57870262 -15.35729019 16.68632936 -15.3828125 21.171875 C-15.4034375 22.07035156 -15.4240625 22.96882813 -15.4453125 23.89453125 C-15.49928791 30.61291623 -15.49928791 30.61291623 -12.1328125 36.296875 C-9.09027742 36.88032976 -9.09027742 36.88032976 -6.1328125 36.296875 C-3.77328156 33.93734406 -3.64139837 32.51791883 -3.1328125 29.296875 C0.1671875 29.296875 3.4671875 29.296875 6.8671875 29.296875 C7.37256182 34.60330541 6.17374501 37.16367812 2.8671875 41.296875 C-1.56083013 45.30976597 -6.10626136 45.59714423 -11.88671875 45.51171875 C-16.39408294 45.08057957 -19.20172897 43.2020951 -22.3828125 40.109375 C-27.55463198 31.79752227 -27.1685811 20.9446262 -25.703125 11.5390625 C-24.4323323 6.91086687 -22.33017748 3.2761304 -18.4921875 0.33203125 C-12.88265551 -2.12910447 -5.77509191 -1.90387645 0 0 Z " fill="#F4F4F4" transform="translate(129.1328125,43.703125)"/>
<path d="M0 0 C2.97 0 5.94 0 9 0 C9.33 5.61 9.66 11.22 10 17 C11.32 16.34 12.64 15.68 14 15 C18.18629486 14.70097894 21.48824621 14.52876585 25 17 C27.32891212 20.49336818 27.23551143 21.86007865 27.1953125 25.98046875 C27.18886719 27.14384766 27.18242187 28.30722656 27.17578125 29.50585938 C27.15902344 30.72080078 27.14226562 31.93574219 27.125 33.1875 C27.11597656 34.41404297 27.10695312 35.64058594 27.09765625 36.90429688 C27.07406017 39.93639295 27.04113841 42.96809938 27 46 C24.03 46 21.06 46 18 46 C17.67 38.74 17.34 31.48 17 24 C14.69 24.33 12.38 24.66 10 25 C9.67 31.93 9.34 38.86 9 46 C6.03 46 3.06 46 0 46 C0 30.82 0 15.64 0 0 Z " fill="#F8F8F8" transform="translate(141,42)"/>
<path d="M0 0 C3.14924709 1.31116513 5.43587432 2.87174864 7 6 C7.15344209 7.88472859 7.24959571 9.77427874 7.31640625 11.6640625 C7.35830078 12.78554687 7.40019531 13.90703125 7.44335938 15.0625 C7.48267578 16.238125 7.52199219 17.41375 7.5625 18.625 C7.60568359 19.80835937 7.64886719 20.99171875 7.69335938 22.2109375 C7.79967426 25.14050328 7.90170642 28.07015588 8 31 C5.36 31 2.72 31 0 31 C0 30.01 0 29.02 0 28 C-0.66 28 -1.32 28 -2 28 C-2 28.66 -2 29.32 -2 30 C-6.13219551 32.00348873 -9.42635406 32.57170574 -14 32 C-16.9375 30.0625 -16.9375 30.0625 -19 27 C-19.63465337 23.87127021 -19.62707175 21.12949826 -19 18 C-16.44687736 14.17031605 -13.40277747 13.03594764 -9 12 C-6.66787973 11.92477031 -4.3314689 11.90674124 -2 12 C-2.33 10.68 -2.66 9.36 -3 8 C-5.41619823 7.74969023 -5.41619823 7.74969023 -8 8 C-8.99 9.485 -8.99 9.485 -10 11 C-11.9453125 11.29296875 -11.9453125 11.29296875 -14.125 11.1875 C-16.043125 11.0946875 -16.043125 11.0946875 -18 11 C-17.83721765 6.76765896 -17.63098132 4.6475861 -14.625 1.5625 C-9.65371788 -0.58029402 -5.33732392 -0.80772558 0 0 Z " fill="#F6F6F6" transform="translate(192,57)"/>
<path d="M0 0 C3.39518445 2.36873334 4.90830689 4.11132227 6.6875 7.875 C7.00362439 11.28608415 6.87341372 14.43559625 6.6875 17.875 C0.4175 17.875 -5.8525 17.875 -12.3125 17.875 C-11.3225 19.525 -10.3325 21.175 -9.3125 22.875 C-5.68650578 23.29225678 -5.68650578 23.29225678 -2.3125 22.875 C-1.9825 21.885 -1.6525 20.895 -1.3125 19.875 C1.3275 19.875 3.9675 19.875 6.6875 19.875 C6.0861014 25.28758741 6.0861014 25.28758741 4.5 27.625 C-0.19572564 30.86343148 -5.74031088 31.78701499 -11.3125 30.875 C-16.41459922 28.17955136 -19.48631037 25.3535689 -21.3125 19.875 C-21.89021254 13.52016202 -21.62448266 8.3949711 -18.3125 2.875 C-12.74887858 -2.29121989 -6.90604781 -2.3454502 0 0 Z " fill="#F8F8F8" transform="translate(325.3125,58.125)"/>
<path d="M0 0 C2.8100346 1.79363911 4.50940468 3.01880935 6 6 C6.084915 7.8863912 6.107193 9.77578515 6.09765625 11.6640625 C6.09443359 12.78554687 6.09121094 13.90703125 6.08789062 15.0625 C6.07951172 16.238125 6.07113281 17.41375 6.0625 18.625 C6.05798828 19.80835937 6.05347656 20.99171875 6.04882812 22.2109375 C6.03701467 25.14067507 6.02054258 28.07031272 6 31 C3.03 31 0.06 31 -3 31 C-3.02505615 30.36908447 -3.0501123 29.73816895 -3.07592773 29.08813477 C-3.19154137 26.24603175 -3.31442316 23.40428917 -3.4375 20.5625 C-3.47681641 19.56927734 -3.51613281 18.57605469 -3.55664062 17.55273438 C-3.59853516 16.60849609 -3.64042969 15.66425781 -3.68359375 14.69140625 C-3.72025146 13.81685791 -3.75690918 12.94230957 -3.79467773 12.04125977 C-3.78181066 10.0072598 -3.78181066 10.0072598 -5 9 C-7.5 8.83333333 -7.5 8.83333333 -10 9 C-11.61780157 10.61780157 -11.22272147 12.45635518 -11.31640625 14.69140625 C-11.35830078 15.63564453 -11.40019531 16.57988281 -11.44335938 17.55273438 C-11.48267578 18.54595703 -11.52199219 19.53917969 -11.5625 20.5625 C-11.60568359 21.55958984 -11.64886719 22.55667969 -11.69335938 23.58398438 C-11.79980298 26.0558415 -11.90181928 28.5278031 -12 31 C-14.97 31 -17.94 31 -21 31 C-21.33 21.1 -21.66 11.2 -22 1 C-19.36 1 -16.72 1 -14 1 C-13.34 1.66 -12.68 2.32 -12 3 C-11.505 2.505 -11.01 2.01 -10.5 1.5 C-7.05368668 -0.56778799 -3.87349363 -0.7147518 0 0 Z " fill="#F6F6F6" transform="translate(242,57)"/>
<path d="M0 0 C3.3 0 6.6 0 10 0 C10 2.97 10 5.94 10 9 C12.31 9 14.62 9 17 9 C17 11.64 17 14.28 17 17 C14.69 17 12.38 17 10 17 C10.33 21.62 10.66 26.24 11 31 C12.98 31.33 14.96 31.66 17 32 C17 34.31 17 36.62 17 39 C14.47738236 40.26130882 12.92906681 40.06637548 10.125 39.875 C9.26132812 39.83117187 8.39765625 39.78734375 7.5078125 39.7421875 C3.87419273 38.66681716 2.85850956 37.28450883 1 34 C0.54172245 31.0395992 0.61983591 28.17376464 0.75 25.1875 C0.76804687 24.39923828 0.78609375 23.61097656 0.8046875 22.79882812 C0.85155952 20.86535739 0.9232959 18.93251715 1 17 C-0.65 17 -2.3 17 -4 17 C-4 14.03 -4 11.06 -4 8 C-2.68 8 -1.36 8 0 8 C0 5.36 0 2.72 0 0 Z " fill="#F1F1F1" transform="translate(361,49)"/>
<path d="M0 0 C2.97 0 5.94 0 9 0 C9 15.18 9 30.36 9 46 C6.03 46 3.06 46 0 46 C0 30.82 0 15.64 0 0 Z " fill="#FAFAFA" transform="translate(290,42)"/>
<path d="M0 0 C0 2.97 0 5.94 0 9 C-2.31 9.66 -4.62 10.32 -7 11 C-7.33 17.6 -7.66 24.2 -8 31 C-10.97 31 -13.94 31 -17 31 C-17 21.1 -17 11.2 -17 1 C-14.36 1 -11.72 1 -9 1 C-8.67 1.66 -8.34 2.32 -8 3 C-7.13375 2.2575 -7.13375 2.2575 -6.25 1.5 C-4 0 -4 0 0 0 Z " fill="#FCFCFC" transform="translate(354,57)"/>
<path d="M0 0 C0.50961846 1.39235043 1.00724909 2.78909118 1.5 4.1875 C1.7784375 4.96480469 2.056875 5.74210937 2.34375 6.54296875 C3.0353168 9.13222779 3.11370917 11.33257238 3 14 C0.23058394 14.83830973 -2.54035069 15.67082034 -5.3125 16.5 C-6.09818359 16.73847656 -6.88386719 16.97695313 -7.69335938 17.22265625 C-8.45068359 17.44824219 -9.20800781 17.67382812 -9.98828125 17.90625 C-10.68477783 18.11572266 -11.38127441 18.32519531 -12.09887695 18.54101562 C-14 19 -14 19 -17 19 C-17.50833591 17.75336669 -18.00631145 16.50250613 -18.5 15.25 C-18.7784375 14.55390625 -19.056875 13.8578125 -19.34375 13.140625 C-20 11 -20 11 -20 7 C-17.23174812 5.82685974 -14.46071514 4.66129785 -11.6875 3.5 C-10.50897461 2.99919922 -10.50897461 2.99919922 -9.30664062 2.48828125 C-8.54931641 2.17246094 -7.79199219 1.85664062 -7.01171875 1.53125 C-6.31522217 1.23798828 -5.61872559 0.94472656 -4.90112305 0.64257812 C-3 0 -3 0 0 0 Z " fill="#F6F6F6" transform="translate(92,47)"/>
<path d="M0 0 C4.56736441 0.70062483 8.5699505 2.31270207 12.8125 4.0625 C13.50537109 4.34416016 14.19824219 4.62582031 14.91210938 4.91601562 C16.60967624 5.60674973 18.30506312 6.30283728 20 7 C19.43584866 11.3149954 18.80723554 15.02408182 17 19 C9.91296261 18.45484328 3.67203894 16.39081395 -3 14 C-2.48594831 9.03083364 -1.76615118 4.70973649 0 0 Z " fill="#F7F7F7" transform="translate(35,47)"/>
<path d="M0 0 C3.15330554 0.60694155 5.18888867 1.6416665 7.75 3.5625 C8.67039062 4.24505859 8.67039062 4.24505859 9.609375 4.94140625 C10.06828125 5.29074219 10.5271875 5.64007813 11 6 C9.51407215 10.12842841 7.50667639 13.63213592 5.125 17.3125 C4.44695313 18.38113281 3.76890625 19.44976562 3.0703125 20.55078125 C2.04550781 21.76314453 2.04550781 21.76314453 1 23 C-3.37451315 23 -4.00472003 22.59622397 -7.25 20 C-7.95640625 19.443125 -8.6628125 18.88625 -9.390625 18.3125 C-9.92171875 17.879375 -10.4528125 17.44625 -11 17 C-10.12429445 12.59214242 -7.68803513 9.69289817 -4.9375 6.25 C-4.46505859 5.64800781 -3.99261719 5.04601562 -3.50585938 4.42578125 C-2.34309599 2.94590057 -1.1723234 1.47231904 0 0 Z " fill="#F8F8F8" transform="translate(51,69)"/>
<path d="M0 0 C4.40064304 1.54228144 6.59595898 5.01426977 9.25 8.625 C9.70890625 9.23601562 10.1678125 9.84703125 10.640625 10.4765625 C11.76751252 11.9790792 12.88472437 13.48884409 14 15 C12.63783758 18.21965664 11.27468847 19.81687435 8.375 21.75 C7.74335937 22.17796875 7.11171875 22.6059375 6.4609375 23.046875 C5.97882813 23.36140625 5.49671875 23.6759375 5 24 C0.69826046 22.47708531 -1.33869252 19.24209693 -3.8125 15.625 C-4.44188477 14.75875 -4.44188477 14.75875 -5.08398438 13.875 C-8.00459983 9.66007555 -8.00459983 9.66007555 -7.984375 6.7578125 C-6.76689164 4.58373507 -5.516715 3.61094073 -3.4375 2.25 C-2.79683594 1.82203125 -2.15617187 1.3940625 -1.49609375 0.953125 C-1.00238281 0.63859375 -0.50867188 0.3240625 0 0 Z " fill="#F8F8F8" transform="translate(73,69)"/>
<path d="M0 0 C4.29 0 8.58 0 13 0 C13 6.93 13 13.86 13 21 C8.71 21 4.42 21 0 21 C0 14.07 0 7.14 0 0 Z " fill="#FEFEFE" transform="translate(57,32)"/>
<path d="M0 0 C2.97 0 5.94 0 9 0 C9 9.9 9 19.8 9 30 C6.03 30 3.06 30 0 30 C0 20.1 0 10.2 0 0 Z " fill="#F2F2F2" transform="translate(205,58)"/>
<path d="M0 0 C3.3 0 6.6 0 10 0 C10 3.3 10 6.6 10 10 C6.7 10 3.4 10 0 10 C0 6.7 0 3.4 0 0 Z " fill="#E7E7E7" transform="translate(205,44)"/>
<path d="M0 0 C6.27 0 12.54 0 19 0 C18.67 0.66 18.34 1.32 18 2 C16.329375 2.2165625 16.329375 2.2165625 14.625 2.4375 C10.75495397 3.03802438 10.49241947 3.39428874 8 6 C5.03906909 6.44413964 3.63565504 6.46030193 1.1875 4.6875 C0 3 0 3 0 0 Z " fill="#151515" transform="translate(313,76)"/>
<path d="M0 0 C0.66 0.33 1.32 0.66 2 1 C2.46806645 3.33744294 2.82669794 5.69739079 3.125 8.0625 C3.29257812 9.35285156 3.46015625 10.64320312 3.6328125 11.97265625 C3.75398438 12.97167969 3.87515625 13.97070312 4 15 C2.02 15 0.04 15 -2 15 C-1.85816304 13.24967156 -1.71136571 11.49974466 -1.5625 9.75 C-1.48128906 8.77546875 -1.40007812 7.8009375 -1.31640625 6.796875 C-1.04925416 4.43538247 -0.64628032 2.28098935 0 0 Z " fill="#131313" transform="translate(268,55)"/>
<path d="M0 0 C3.0625 0.1875 3.0625 0.1875 5.0625 2.1875 C5.0625 3.5075 5.0625 4.8275 5.0625 6.1875 C1.7625 6.1875 -1.5375 6.1875 -4.9375 6.1875 C-3.87127483 0.24710265 -3.87127483 0.24710265 0 0 Z " fill="#212121" transform="translate(317.9375,63.8125)"/>
<path d="M0 0 C0.94875 0.04125 1.8975 0.0825 2.875 0.125 C2.91754356 2.12454746 2.91580783 4.12541636 2.875 6.125 C1.875 7.125 1.875 7.125 -1.1875 7.1875 C-2.156875 7.166875 -3.12625 7.14625 -4.125 7.125 C-4.75 4.75 -4.75 4.75 -5.125 2.125 C-3.125 0.125 -3.125 0.125 0 0 Z " fill="#0B0B0B" transform="translate(187.125,73.875)"/>
<path d="M0 0 C1.2065625 0.0309375 1.2065625 0.0309375 2.4375 0.0625 C2.7675 1.7125 3.0975 3.3625 3.4375 5.0625 C-1.0175 5.5575 -1.0175 5.5575 -5.5625 6.0625 C-3.26136364 0.07954545 -3.26136364 0.07954545 0 0 Z " fill="#161616" transform="translate(186.5625,63.9375)"/>
</svg>
